<svg width="168" height="20" viewBox="0 0 168 20" fill="none" xmlns="http://www.w3.org/2000/svg">
<path d="M14.3867 13.6562C14.3867 14.5234 14.2227 15.2852 13.8945 15.9414C13.5664 16.5977 13.125 17.1406 12.5703 17.5703C11.9141 18.0859 11.1914 18.4531 10.4023 18.6719C9.62109 18.8906 8.625 19 7.41406 19H0.429688V1.55078H6.59375C7.875 1.55078 8.84375 1.60156 9.5 1.70312C10.1641 1.79688 10.7852 2 11.3633 2.3125C11.9883 2.64844 12.4531 3.09766 12.7578 3.66016C13.0703 4.22266 13.2266 4.87109 13.2266 5.60547C13.2266 6.45703 13.0117 7.21484 12.582 7.87891C12.1602 8.54297 11.5742 9.03125 10.8242 9.34375V9.4375C11.9023 9.66406 12.7656 10.1289 13.4141 10.832C14.0625 11.5273 14.3867 12.4688 14.3867 13.6562ZM8.77344 6.48438C8.77344 6.20312 8.69922 5.91406 8.55078 5.61719C8.41016 5.32031 8.1875 5.10547 7.88281 4.97266C7.59375 4.84766 7.25 4.78125 6.85156 4.77344C6.46094 4.75781 5.875 4.75 5.09375 4.75H4.78906V8.44141H5.33984C6.08984 8.44141 6.61328 8.43359 6.91016 8.41797C7.21484 8.40234 7.52734 8.32031 7.84766 8.17188C8.19922 8.00781 8.44141 7.78125 8.57422 7.49219C8.70703 7.20312 8.77344 6.86719 8.77344 6.48438ZM9.875 13.5742C9.875 13.0352 9.76562 12.6133 9.54688 12.3086C9.32812 12.0039 9 11.7734 8.5625 11.6172C8.29688 11.5156 7.92969 11.4609 7.46094 11.4531C7 11.4375 6.37891 11.4297 5.59766 11.4297H4.78906V15.8008H5.02344C6.16406 15.8008 6.95312 15.793 7.39062 15.7773C7.82812 15.7617 8.27344 15.6562 8.72656 15.4609C9.125 15.2891 9.41406 15.0391 9.59375 14.7109C9.78125 14.375 9.875 13.9961 9.875 13.5742Z" fill="black"/>
<path d="M23.9258 15.5664V12.8242C23.2305 12.8945 22.668 12.957 22.2383 13.0117C21.8086 13.0586 21.3867 13.1562 20.9727 13.3047C20.6133 13.4297 20.332 13.6211 20.1289 13.8789C19.9336 14.1289 19.8359 14.4648 19.8359 14.8867C19.8359 15.5039 20 15.9297 20.3281 16.1641C20.6641 16.3906 21.1562 16.5039 21.8047 16.5039C22.1641 16.5039 22.5312 16.4219 22.9062 16.2578C23.2812 16.0938 23.6211 15.8633 23.9258 15.5664ZM23.9258 17.6055C23.6445 17.8398 23.3906 18.0508 23.1641 18.2383C22.9453 18.4258 22.6484 18.6133 22.2734 18.8008C21.9062 18.9805 21.5469 19.1172 21.1953 19.2109C20.8516 19.3047 20.3672 19.3516 19.7422 19.3516C18.5781 19.3516 17.6094 18.9609 16.8359 18.1797C16.0703 17.3984 15.6875 16.4141 15.6875 15.2266C15.6875 14.25 15.8828 13.4609 16.2734 12.8594C16.6641 12.2578 17.2266 11.7812 17.9609 11.4297C18.7031 11.0703 19.5898 10.8203 20.6211 10.6797C21.6523 10.5391 22.7617 10.4297 23.9492 10.3516V10.2812C23.9492 9.55469 23.6797 9.05469 23.1406 8.78125C22.6094 8.5 21.8086 8.35938 20.7383 8.35938C20.2539 8.35938 19.6875 8.44922 19.0391 8.62891C18.3906 8.80078 17.7578 9.02344 17.1406 9.29688H16.7891V6.12109C17.1953 6.00391 17.8516 5.86719 18.7578 5.71094C19.6641 5.54688 20.5781 5.46484 21.5 5.46484C23.7656 5.46484 25.4141 5.84375 26.4453 6.60156C27.4844 7.35156 28.0039 8.5 28.0039 10.0469V19H23.9258V17.6055Z" fill="black"/>
<path d="M43.3672 19H39.2422V12.4727C39.2422 11.9414 39.2188 11.4141 39.1719 10.8906C39.1328 10.3594 39.0547 9.96875 38.9375 9.71875C38.7969 9.42188 38.5938 9.21094 38.3281 9.08594C38.0625 8.95312 37.707 8.88672 37.2617 8.88672C36.9258 8.88672 36.5859 8.94922 36.2422 9.07422C35.8984 9.19922 35.5312 9.39844 35.1406 9.67188V19H31.0391V5.83984H35.1406V7.29297C35.8125 6.72266 36.4648 6.27734 37.0977 5.95703C37.7383 5.63672 38.4453 5.47656 39.2188 5.47656C40.5625 5.47656 41.5898 5.90234 42.3008 6.75391C43.0117 7.59766 43.3672 8.82422 43.3672 10.4336V19Z" fill="black"/>
<path d="M59.5859 19H54.7109L51.1484 13.2695L50.5156 14.125V19H46.4141V0.765625H50.5156V10.9844L54.4062 5.83984H59.2461L54.6406 11.5117L59.5859 19Z" fill="black"/>
<path d="M71.4922 19V4.87891H66.3359V1.55078H81.0312V4.87891H75.875V19H71.4922Z" fill="black"/>
<path d="M91.4375 9.71875H91.0977C90.9414 9.66406 90.7148 9.625 90.418 9.60156C90.1211 9.57031 89.793 9.55469 89.4336 9.55469C89.0039 9.55469 88.5508 9.61719 88.0742 9.74219C87.6055 9.86719 87.1484 10.0156 86.7031 10.1875V19H82.6016V5.83984H86.7031V7.72656C86.8906 7.55469 87.1484 7.33984 87.4766 7.08203C87.8125 6.81641 88.1172 6.60547 88.3906 6.44922C88.6875 6.26953 89.0312 6.11719 89.4219 5.99219C89.8203 5.85938 90.1953 5.79297 90.5469 5.79297C90.6797 5.79297 90.8281 5.79688 90.9922 5.80469C91.1562 5.8125 91.3047 5.82422 91.4375 5.83984V9.71875Z" fill="black"/>
<path d="M100.262 15.5664V12.8242C99.5664 12.8945 99.0039 12.957 98.5742 13.0117C98.1445 13.0586 97.7227 13.1562 97.3086 13.3047C96.9492 13.4297 96.668 13.6211 96.4648 13.8789C96.2695 14.1289 96.1719 14.4648 96.1719 14.8867C96.1719 15.5039 96.3359 15.9297 96.6641 16.1641C97 16.3906 97.4922 16.5039 98.1406 16.5039C98.5 16.5039 98.8672 16.4219 99.2422 16.2578C99.6172 16.0938 99.957 15.8633 100.262 15.5664ZM100.262 17.6055C99.9805 17.8398 99.7266 18.0508 99.5 18.2383C99.2812 18.4258 98.9844 18.6133 98.6094 18.8008C98.2422 18.9805 97.8828 19.1172 97.5312 19.2109C97.1875 19.3047 96.7031 19.3516 96.0781 19.3516C94.9141 19.3516 93.9453 18.9609 93.1719 18.1797C92.4062 17.3984 92.0234 16.4141 92.0234 15.2266C92.0234 14.25 92.2188 13.4609 92.6094 12.8594C93 12.2578 93.5625 11.7812 94.2969 11.4297C95.0391 11.0703 95.9258 10.8203 96.957 10.6797C97.9883 10.5391 99.0977 10.4297 100.285 10.3516V10.2812C100.285 9.55469 100.016 9.05469 99.4766 8.78125C98.9453 8.5 98.1445 8.35938 97.0742 8.35938C96.5898 8.35938 96.0234 8.44922 95.375 8.62891C94.7266 8.80078 94.0938 9.02344 93.4766 9.29688H93.125V6.12109C93.5312 6.00391 94.1875 5.86719 95.0938 5.71094C96 5.54688 96.9141 5.46484 97.8359 5.46484C100.102 5.46484 101.75 5.84375 102.781 6.60156C103.82 7.35156 104.34 8.5 104.34 10.0469V19H100.262V17.6055Z" fill="black"/>
<path d="M119.703 19H115.578V12.4727C115.578 11.9414 115.555 11.4141 115.508 10.8906C115.469 10.3594 115.391 9.96875 115.273 9.71875C115.133 9.42188 114.93 9.21094 114.664 9.08594C114.398 8.95312 114.043 8.88672 113.598 8.88672C113.262 8.88672 112.922 8.94922 112.578 9.07422C112.234 9.19922 111.867 9.39844 111.477 9.67188V19H107.375V5.83984H111.477V7.29297C112.148 6.72266 112.801 6.27734 113.434 5.95703C114.074 5.63672 114.781 5.47656 115.555 5.47656C116.898 5.47656 117.926 5.90234 118.637 6.75391C119.348 7.59766 119.703 8.82422 119.703 10.4336V19Z" fill="black"/>
<path d="M126.758 19.3633C125.789 19.3633 124.871 19.2578 124.004 19.0469C123.145 18.8359 122.434 18.5898 121.871 18.3086V14.8398H122.211C122.406 14.9883 122.629 15.1523 122.879 15.332C123.129 15.5117 123.477 15.6992 123.922 15.8945C124.305 16.0742 124.734 16.2305 125.211 16.3633C125.695 16.4883 126.219 16.5508 126.781 16.5508C127.359 16.5508 127.867 16.4609 128.305 16.2812C128.75 16.1016 128.973 15.8164 128.973 15.4258C128.973 15.1211 128.871 14.8906 128.668 14.7344C128.465 14.5781 128.07 14.4297 127.484 14.2891C127.172 14.2109 126.777 14.1289 126.301 14.043C125.824 13.9492 125.402 13.8438 125.035 13.7266C124.004 13.4062 123.227 12.9336 122.703 12.3086C122.188 11.6758 121.93 10.8477 121.93 9.82422C121.93 9.23828 122.062 8.6875 122.328 8.17188C122.602 7.64844 123 7.18359 123.523 6.77734C124.047 6.37891 124.691 6.0625 125.457 5.82812C126.23 5.59375 127.102 5.47656 128.07 5.47656C128.992 5.47656 129.84 5.57031 130.613 5.75781C131.387 5.9375 132.039 6.15625 132.57 6.41406V9.74219H132.242C132.102 9.63281 131.879 9.48828 131.574 9.30859C131.27 9.12109 130.973 8.96094 130.684 8.82812C130.34 8.67188 129.953 8.54297 129.523 8.44141C129.102 8.33984 128.668 8.28906 128.223 8.28906C127.629 8.28906 127.125 8.39062 126.711 8.59375C126.305 8.79688 126.102 9.06641 126.102 9.40234C126.102 9.69922 126.203 9.93359 126.406 10.1055C126.609 10.2773 127.051 10.4453 127.73 10.6094C128.082 10.6953 128.484 10.7812 128.938 10.8672C129.398 10.9453 129.84 11.0547 130.262 11.1953C131.207 11.5 131.922 11.9492 132.406 12.543C132.898 13.1289 133.145 13.9102 133.145 14.8867C133.145 15.5039 133 16.0938 132.711 16.6562C132.422 17.2109 132.012 17.6797 131.48 18.0625C130.918 18.4766 130.254 18.7969 129.488 19.0234C128.73 19.25 127.82 19.3633 126.758 19.3633Z" fill="black"/>
<path d="M143.516 3.85938H143.199C143.043 3.8125 142.797 3.75391 142.461 3.68359C142.133 3.60547 141.82 3.56641 141.523 3.56641C140.695 3.56641 140.129 3.71875 139.824 4.02344C139.527 4.32812 139.379 4.89844 139.379 5.73438V5.83984H142.637V8.69922H139.52V19H135.418V8.69922H133.777V5.83984H135.418V5.47656C135.418 3.86719 135.84 2.66016 136.684 1.85547C137.527 1.05078 138.805 0.648438 140.516 0.648438C141.109 0.648438 141.664 0.671875 142.18 0.71875C142.695 0.757812 143.141 0.8125 143.516 0.882812V3.85938Z" fill="black"/>
<path d="M151.027 19.3516C148.543 19.3516 146.637 18.7578 145.309 17.5703C143.988 16.3828 143.328 14.6914 143.328 12.4961C143.328 10.3477 143.945 8.63281 145.18 7.35156C146.414 6.07031 148.141 5.42969 150.359 5.42969C152.375 5.42969 153.891 5.97266 154.906 7.05859C155.922 8.14453 156.43 9.69922 156.43 11.7227V13.1992H147.441C147.48 13.8086 147.609 14.3203 147.828 14.7344C148.047 15.1406 148.336 15.4648 148.695 15.707C149.047 15.9492 149.457 16.125 149.926 16.2344C150.395 16.3359 150.906 16.3867 151.461 16.3867C151.938 16.3867 152.406 16.3359 152.867 16.2344C153.328 16.125 153.75 15.9844 154.133 15.8125C154.469 15.6641 154.777 15.5039 155.059 15.332C155.348 15.1602 155.582 15.0078 155.762 14.875H156.195V18.2617C155.859 18.3945 155.551 18.5195 155.27 18.6367C154.996 18.7461 154.617 18.8594 154.133 18.9766C153.688 19.0938 153.227 19.1836 152.75 19.2461C152.281 19.3164 151.707 19.3516 151.027 19.3516ZM152.387 10.7266C152.363 9.85938 152.16 9.19922 151.777 8.74609C151.402 8.29297 150.824 8.06641 150.043 8.06641C149.246 8.06641 148.621 8.30469 148.168 8.78125C147.723 9.25781 147.477 9.90625 147.43 10.7266H152.387Z" fill="black"/>
<path d="M167.375 9.71875H167.035C166.879 9.66406 166.652 9.625 166.355 9.60156C166.059 9.57031 165.73 9.55469 165.371 9.55469C164.941 9.55469 164.488 9.61719 164.012 9.74219C163.543 9.86719 163.086 10.0156 162.641 10.1875V19H158.539V5.83984H162.641V7.72656C162.828 7.55469 163.086 7.33984 163.414 7.08203C163.75 6.81641 164.055 6.60547 164.328 6.44922C164.625 6.26953 164.969 6.11719 165.359 5.99219C165.758 5.85938 166.133 5.79297 166.484 5.79297C166.617 5.79297 166.766 5.79688 166.93 5.80469C167.094 5.8125 167.242 5.82422 167.375 5.83984V9.71875Z" fill="black"/>
</svg>
