<svg width="38" height="38" viewBox="0 0 38 38" fill="none" xmlns="http://www.w3.org/2000/svg">
<path d="M31.3944 37.5C34.7663 37.5 37.5 34.7663 37.5 31.3944V6.35981C37.5 3.12368 34.8762 0.5 31.6395 0.5H6.36049C3.12372 0.5 0.5 3.12372 0.5 6.36049V31.4399C0.5 34.7867 3.21337 37.5 6.56076 37.5H31.3944Z" fill="#FFB92A" stroke="white"/>
<path d="M4.39607 15.0117V24.1603L2.76335 24.5269V15.3783L4.39607 15.0117ZM8.71854 16.1916C7.71107 16.4176 7.09261 17.5521 7.09261 17.5521V16.6994L5.50809 17.0449V22.5032C5.70157 22.4292 5.91135 22.3864 6.13063 22.3864C6.48365 22.3864 6.81155 22.4923 7.08582 22.6729V20.0083C7.09804 18.732 7.46396 17.9866 8.22839 17.8148C8.8998 17.6641 9.15167 18.1644 9.14081 18.937V23.1047L10.6961 22.7537L10.707 18.5989C10.7206 16.5643 9.8998 15.9261 8.71854 16.1916ZM11.0729 15.7951L11.9643 15.5948V14.3145L13.5407 13.9635V15.2411L14.6629 14.9886L14.6473 16.3722L13.5237 16.6247L13.5156 20.0891C13.523 20.512 13.597 20.7741 14.0716 20.6675C14.2569 20.6261 14.4049 20.5792 14.5739 20.5147L14.578 21.8141C14.1843 22.0008 13.9466 22.0762 13.6228 22.1488C12.7213 22.3572 11.9433 21.7707 11.9433 20.5724L11.9487 16.9784L11.0566 17.1787L11.0729 15.7951ZM16.5624 18.4149C16.5631 18.5609 16.559 18.6804 16.5828 18.8209C16.7009 19.5229 17.0458 20.068 17.7552 19.9092C18.4069 19.7632 18.6235 19.3301 18.7484 18.8521L20.4001 18.4815C20.2277 19.5398 19.6554 20.8739 17.8523 21.2778C16.2352 21.6403 15.2576 20.7069 14.9894 19.1115C14.6955 17.3627 15.151 14.7571 17.5475 14.2194C19.316 13.8229 20.1435 14.8691 20.3709 16.2221C20.4612 16.7584 20.4558 17.157 20.4246 17.548L16.5624 18.4149ZM18.857 16.6953C18.8611 16.5751 18.8441 16.4733 18.8312 16.3966C18.7348 15.8223 18.4185 15.3762 17.7206 15.5331C16.9989 15.6946 16.6432 16.3043 16.5773 17.2065L18.857 16.6953ZM24.3255 14.6844C23.2277 14.9445 22.6982 15.7096 22.6921 17.2099L22.6778 20.0612L21.1028 20.4149V13.5419L22.6228 13.2011C22.6425 13.3694 22.6785 13.8786 22.6758 14.4367C22.9317 13.5568 23.2827 13.1047 24.3248 12.8711V14.6844H24.3255ZM29.9202 18.3851L29.9113 18.3871L28.3302 18.7442C28.2216 18.5466 28.1123 18.233 28.0648 18.0123C27.8407 18.4869 27.5339 19.0334 26.4219 19.2832C25.2406 19.5487 24.5692 18.7442 24.4225 17.9675C24.0756 16.1352 25.3906 15.2452 26.7362 14.9024C27.2202 14.7788 27.6276 14.7062 28.0872 14.5901L28.0641 14.178C28.0539 13.6763 27.9378 13.0653 27.0926 13.2554C26.3397 13.4244 26.3003 13.901 26.2331 14.2479L24.6235 14.6091C24.6439 13.5032 25.1265 12.436 26.9908 12.0171C28.4497 11.6892 29.6629 12.1223 29.652 13.9159V17.176C29.652 17.176 29.6907 17.7259 29.7532 17.9906C29.8163 18.2595 29.9202 18.3851 29.9202 18.3851ZM28.0627 15.7041C27.669 15.7924 27.3377 15.8935 27.0329 16.0022C26.1815 16.3525 25.8944 16.7489 26.0003 17.3083C26.0722 17.6899 26.3479 17.9336 26.8577 17.8189C27.946 17.5745 28.041 16.5446 28.0593 15.8114L28.0627 15.7041ZM35.6018 14.829C35.5135 16.1488 34.8978 17.362 33.1259 17.7598C31.6086 18.1006 30.6242 17.3002 30.3255 15.7218C29.9643 13.8128 30.5101 11.2092 32.7335 10.7102C34.6792 10.273 35.4517 11.679 35.5298 12.5371L34.0009 12.8806C33.893 12.3742 33.6439 11.8861 32.9371 12.0449C31.8251 12.2948 31.7321 14.2262 31.9317 15.2825C32.1048 16.199 32.5183 16.5303 33.0851 16.4034C33.6065 16.2866 33.9052 15.8874 34.0254 15.1841L35.6018 14.829ZM9.73687 26.5127L7.50741 24.9954C7.50741 24.9954 7.50673 28.5555 7.50673 28.7191C7.50673 28.8331 7.41372 28.9261 7.30035 28.9261C7.18629 28.9261 7.09464 28.8331 7.09464 28.7191C7.09464 28.679 7.08989 24.6478 7.08989 24.1556C7.08989 23.6281 6.66151 23.1984 6.13402 23.1984C5.60449 23.1984 5.17679 23.6281 5.17679 24.1556L5.17815 32.106C5.17815 33.5331 6.33972 34.6967 7.76742 34.6967H7.9385C9.34651 34.6967 10.4769 33.5555 10.4769 32.1468C10.4769 32.1468 10.4782 27.9933 10.4782 27.9513C10.4782 27.3993 10.1734 26.8474 9.73687 26.5127ZM3.26776 25.3274C2.87333 25.4224 2.62961 25.8189 2.72465 26.2133C2.8197 26.6077 3.21617 26.8515 3.6106 26.7564L4.72465 26.4889V24.977L3.26776 25.3274ZM3.26776 27.2751C2.87333 27.3701 2.62961 27.7666 2.72465 28.161C2.8197 28.5555 3.21617 28.7992 3.6106 28.7041L4.72465 28.4367V26.9248L3.26776 27.2751ZM2.72465 30.1094C2.81902 30.5039 3.21617 30.7476 3.6106 30.6525L4.72465 30.3851V28.8732L3.26776 29.2228C2.87333 29.3179 2.63029 29.715 2.72465 30.1094Z" fill="black"/>
</svg>
