<svg width="144" height="70" viewBox="0 0 144 70" fill="none" xmlns="http://www.w3.org/2000/svg">
<g clip-path="url(#clip0_245_22752)">
<path d="M5.5704 60.68L5.3304 62.56C5.30528 62.7617 5.32034 62.9663 5.3747 63.1622C5.42907 63.3581 5.52168 63.5412 5.64718 63.7011C5.77268 63.861 5.92859 63.9945 6.10592 64.0938C6.28326 64.1932 6.4785 64.2564 6.6804 64.28H67.7904C67.9953 64.2826 68.1987 64.2449 68.3889 64.1689C68.5792 64.0929 68.7527 63.9802 68.8994 63.8372C69.0461 63.6942 69.1632 63.5237 69.244 63.3354C69.3249 63.1472 69.3678 62.9448 69.3704 62.74C69.3756 62.6767 69.3756 62.6132 69.3704 62.55L69.1204 60.67C69.0504 59.9664 69.2612 59.2636 69.707 58.7148C70.1528 58.166 70.7974 57.8156 71.5004 57.74C71.8451 57.7025 72.1939 57.7333 72.5267 57.8306C72.8595 57.9279 73.1699 58.0898 73.4401 58.3071C73.7104 58.5244 73.9352 58.7928 74.1016 59.097C74.2681 59.4012 74.373 59.7352 74.4104 60.08L74.6504 61.91C75.1204 65.98 72.8104 69.56 68.6504 69.56H6.0104C1.8904 69.56 -0.409596 65.98 0.0604036 61.91L0.300404 60.08C0.335361 59.737 0.437653 59.4043 0.601418 59.101C0.765182 58.7976 0.987199 58.5296 1.25475 58.3122C1.52229 58.0948 1.83011 57.9324 2.16055 57.8342C2.49099 57.736 2.83756 57.704 3.1804 57.74C3.88423 57.8181 4.52885 58.1706 4.97442 58.721C5.41998 59.2714 5.63054 59.9753 5.5604 60.68" fill="#FF0000"/>
<path d="M61.8696 46.5501C63.1912 46.621 64.487 46.165 65.473 45.2822C66.459 44.3993 67.0547 43.1614 67.1296 41.8401C67.1344 41.7535 67.1344 41.6667 67.1296 41.5801C67.0696 38.6701 64.4196 36.7901 61.4696 36.7801H55.4996C54.8366 36.7801 54.2007 36.5167 53.7318 36.0478C53.263 35.579 52.9996 34.9431 52.9996 34.2801C52.9996 33.617 53.263 32.9811 53.7318 32.5123C54.2007 32.0434 54.8366 31.7801 55.4996 31.7801H59.4996C62.1896 31.6701 64.2596 30.0401 64.3896 27.5101C64.5196 24.7801 62.1796 22.7401 59.3296 22.7401H49.6496V46.5101H61.8696M69.1996 27.5101C69.204 28.5531 69.0001 29.5866 68.6 30.5499C68.1999 31.5132 67.6116 32.387 66.8696 33.1201L66.7196 33.2901L66.9196 33.4101C68.382 34.2231 69.6103 35.3992 70.4861 36.825C71.3619 38.2507 71.8556 39.878 71.9196 41.5501C71.9545 44.1904 70.9436 46.7373 69.1076 48.6351C67.2717 50.5329 64.7596 51.6275 62.1196 51.6801H47.1196C46.4256 51.6695 45.7638 51.385 45.2787 50.8886C44.7935 50.3922 44.5242 49.7242 44.5296 49.0301V20.5001C44.5242 20.1501 44.589 19.8026 44.7202 19.4781C44.8513 19.1536 45.0462 18.8587 45.2932 18.6108C45.5402 18.3628 45.8344 18.1669 46.1584 18.0345C46.4824 17.9021 46.8296 17.836 47.1796 17.8401H59.3296C61.8752 17.7701 64.3445 18.7134 66.1951 20.4628C68.0458 22.2121 69.1264 24.6245 69.1996 27.1701V27.5001" fill="#1D1D1B"/>
<path d="M21.7604 41.9201L21.8304 42.1201L21.9004 41.9201C22.5804 40.0401 23.4104 37.9201 24.2804 35.6901C25.1504 33.4601 26.0804 31.0201 26.9704 28.8401C27.8604 26.6601 28.7304 24.6601 29.5504 22.9401C30.0902 21.6707 30.7605 20.4609 31.5504 19.3301C31.9353 18.8521 32.4251 18.4691 32.9817 18.2107C33.5383 17.9524 34.1469 17.8255 34.7604 17.8401H35.3704C36.0639 17.8111 36.7449 18.031 37.2904 18.4601C37.7092 18.8073 37.9808 19.3005 38.0504 19.8401L41.8604 49.3401C41.8759 49.6666 41.8265 49.9929 41.7149 50.3002C41.6033 50.6075 41.4318 50.8895 41.2104 51.1301C40.6946 51.5618 40.0315 51.7769 39.3604 51.7301C38.6752 51.7685 37.9975 51.5708 37.4404 51.1701C37.1943 51.002 36.9873 50.7827 36.8337 50.5273C36.6801 50.2719 36.5835 49.9863 36.5504 49.6901C36.4204 48.6901 36.3104 47.6201 36.1904 46.4201C36.0704 45.2201 35.4304 40.0901 35.2604 38.7801C35.0904 37.4701 34.0404 29.1201 33.6704 26.0901V25.8301L32.4504 28.3901C32.0404 29.2701 31.5904 30.3201 31.1004 31.5501C30.6104 32.7801 30.1004 34.0801 29.6304 35.4601C29.1604 36.8401 26.7404 43.5201 26.7404 43.5201C26.5204 44.1301 26.1004 45.3601 25.7404 46.5201C25.3804 47.6801 25.0104 48.6701 24.9204 48.8601C24.5078 49.6675 23.7915 50.278 22.9289 50.5574C22.0663 50.8368 21.1281 50.7622 20.3204 50.3501C19.663 50.0219 19.1272 49.4931 18.7904 48.8401C18.6904 48.6501 18.3504 47.6301 17.9604 46.5001C17.5704 45.3701 17.1904 44.1501 16.9604 43.5001C16.9604 43.5001 14.6104 36.7601 14.0804 35.4401C13.5504 34.1201 13.0804 32.7701 12.6104 31.5301C12.1404 30.2901 11.6604 29.2501 11.2604 28.3701L10.0304 25.8401V26.1001C9.66043 29.1001 8.60043 37.4601 8.43043 38.7901C8.26043 40.1201 7.64043 45.2001 7.50043 46.3901C7.36043 47.5801 7.25043 48.6801 7.13043 49.6601C7.09739 49.9563 7.00075 50.2419 6.84715 50.4973C6.69355 50.7527 6.48659 50.972 6.24043 51.1401C5.68605 51.5386 5.01228 51.7362 4.33043 51.7001C3.66572 51.7448 3.00961 51.5297 2.50043 51.1001C2.27903 50.8595 2.10757 50.5775 1.99599 50.2702C1.88441 49.9629 1.83494 49.6366 1.85043 49.3101L5.61043 19.8401C5.69768 19.3209 5.9715 18.8515 6.38043 18.5201C6.91624 18.0671 7.59897 17.8253 8.30043 17.8401H8.91043C9.51814 17.825 10.1213 17.9487 10.674 18.2017C11.2268 18.4547 11.7146 18.8303 12.1004 19.3001C12.894 20.4286 13.5645 21.6388 14.1004 22.9101C14.9204 24.6301 15.7804 26.5967 16.6804 28.8101C17.5804 31.0234 18.4804 33.3067 19.3804 35.6601C20.2504 37.9201 21.0704 40.0101 21.7504 41.8901" fill="#1D1D1B"/>
<path d="M14.3002 -2.93255e-05H60.5602C64.9202 -2.93255e-05 67.0902 3.26997 67.5602 7.58997L67.7602 8.96997C67.839 9.68433 67.6318 10.4008 67.184 10.963C66.7362 11.5251 66.0841 11.8871 65.3702 11.97C64.6696 12.0255 63.9754 11.8026 63.4381 11.3495C62.9008 10.8965 62.5638 10.2499 62.5002 9.54997L62.3002 8.21997C62.1102 6.57997 61.4202 5.30997 59.7502 5.30997H15.1202C13.4502 5.30997 12.7602 6.57997 12.5602 8.21997L12.3802 9.52997C12.3167 10.231 11.9779 10.8783 11.4381 11.33C10.8983 11.7817 10.2014 12.0011 9.50021 11.94C9.14619 11.9002 8.80348 11.791 8.49169 11.6187C8.1799 11.4463 7.90516 11.2142 7.68318 10.9355C7.46119 10.6569 7.29633 10.3372 7.19801 9.99479C7.0997 9.65238 7.06986 9.29393 7.11021 8.93997L7.30021 7.55997C7.82021 3.24997 9.98021 -0.0300293 14.3002 -0.0300293" fill="#FF0000"/>
<path d="M97.4997 31.1C97.1797 32.33 96.8497 33.65 96.4997 35.1C96.1497 36.55 95.7997 37.85 95.4997 39.1C95.1997 40.35 94.8497 41.49 94.4997 42.46C94.3126 43.15 94.058 43.8199 93.7397 44.46C93.5436 44.7774 93.2628 45.0336 92.9288 45.1997C92.5948 45.3658 92.221 45.4352 91.8497 45.4C91.5114 45.3916 91.1755 45.3412 90.8497 45.25C90.6323 45.1843 90.431 45.0738 90.2588 44.9257C90.0866 44.7776 89.9472 44.5952 89.8497 44.39C89.5331 43.7215 89.2787 43.0252 89.0897 42.31C88.7897 41.31 88.4697 40.0901 88.0897 38.7401C87.7097 37.3901 87.4197 35.97 87.0897 34.46C86.7597 32.95 86.4397 31.55 86.1797 30.26C85.9197 28.97 85.6797 27.86 85.4997 26.96C85.3197 26.06 85.2197 25.51 85.1897 25.32C85.1842 25.2435 85.1842 25.1666 85.1897 25.09V24.96C85.1842 24.7813 85.2212 24.6037 85.2977 24.4421C85.3742 24.2804 85.488 24.1392 85.6297 24.03C85.9361 23.7877 86.3194 23.6635 86.7097 23.68C87.0615 23.6647 87.4099 23.7553 87.7097 23.94C87.9982 24.1556 88.1918 24.4746 88.2497 24.83C88.2497 24.83 88.3097 25.2 88.4297 25.83C88.5497 26.46 88.7197 27.21 88.9097 28.14C89.0997 29.07 89.3197 30.14 89.5497 31.31C89.7797 32.48 90.0297 33.67 90.2997 34.87C90.5697 36.07 90.8197 37.22 91.0797 38.35C91.3397 39.48 91.5697 40.44 91.7997 41.25C92.0197 40.49 92.2697 39.62 92.5397 38.64C92.8097 37.66 93.0897 36.64 93.3597 35.64C93.6297 34.64 93.8797 33.55 94.1297 32.51C94.3797 31.47 94.6097 30.51 94.8297 29.59C95.0497 28.67 95.2197 27.9 95.3797 27.2C95.5397 26.5 95.6597 25.99 95.7497 25.65C95.8507 25.2569 96.075 24.9065 96.3897 24.65C96.6952 24.3727 97.0876 24.2101 97.4997 24.19C97.9399 24.1697 98.3728 24.3081 98.7197 24.58C99.0307 24.8328 99.243 25.1867 99.3197 25.58C99.5897 26.67 99.8497 27.91 100.14 29.27C100.43 30.63 100.74 32 101.05 33.39C101.36 34.78 101.7 36.1501 102.05 37.4901C102.4 38.8301 102.72 40.01 103.05 41.04C103.27 40.23 103.52 39.2701 103.78 38.1501C104.04 37.0301 104.29 35.8701 104.56 34.6701C104.83 33.4701 105.1 32.31 105.34 31.14C105.58 29.97 105.82 28.92 106.02 27.99C106.22 27.06 106.39 26.3 106.5 25.72C106.61 25.14 106.69 24.82 106.69 24.8C106.759 24.4517 106.951 24.1396 107.23 23.92C107.528 23.7329 107.878 23.6422 108.23 23.66C108.623 23.6464 109.008 23.7701 109.32 24.01C109.46 24.1208 109.572 24.2623 109.648 24.4236C109.725 24.5849 109.763 24.7616 109.76 24.94V25.07C109.764 25.15 109.764 25.2301 109.76 25.31C109.76 25.49 109.63 26.03 109.44 26.95C109.25 27.87 109.02 28.95 108.75 30.24C108.48 31.53 108.17 32.9301 107.84 34.4201C107.51 35.9101 107.16 37.33 106.84 38.68C106.52 40.03 106.2 41.22 105.84 42.24C105.652 42.9493 105.398 43.639 105.08 44.3C104.878 44.72 104.518 45.0434 104.08 45.2C103.757 45.3091 103.42 45.3697 103.08 45.38C102.943 45.39 102.806 45.39 102.67 45.38C102.473 45.3521 102.279 45.3087 102.09 45.25C101.875 45.1736 101.673 45.0657 101.49 44.93C101.28 44.7755 101.114 44.5686 101.01 44.33C100.718 43.6422 100.477 42.9335 100.29 42.21C99.9997 41.21 99.6997 40.11 99.3697 38.87C99.0397 37.63 98.7297 36.31 98.3697 34.95C98.0097 33.59 97.7597 32.32 97.4897 31.14" fill="#1D1D1B"/>
<path d="M115.19 39.14C114.85 40.22 114.55 41.22 114.3 42.14C114.05 43.06 113.79 43.81 113.57 44.4C113.517 44.7979 113.308 45.1583 112.989 45.4021C112.67 45.6459 112.268 45.7531 111.87 45.7C111.472 45.647 111.112 45.4381 110.868 45.1193C110.624 44.8005 110.517 44.3979 110.57 44C110.568 43.8504 110.592 43.7016 110.64 43.56L111.06 42.17C111.3 41.39 111.61 40.42 111.99 39.24C112.37 38.06 112.8 36.8 113.26 35.41C113.72 34.02 114.2 32.64 114.69 31.28C115.18 29.92 115.69 28.65 116.15 27.48C116.534 26.4969 116.985 25.5414 117.5 24.62C117.646 24.286 117.904 24.0135 118.23 23.85C118.625 23.6997 119.047 23.6317 119.47 23.65C119.904 23.641 120.336 23.7192 120.74 23.88C120.908 23.9604 121.058 24.0735 121.181 24.2125C121.305 24.3516 121.4 24.5139 121.46 24.69C121.78 25.36 122.16 26.27 122.59 27.4C123.02 28.53 123.5 29.76 123.98 31.08C124.46 32.4 124.98 33.74 125.42 35.08C125.86 36.42 126.33 37.72 126.72 38.9C127.11 40.08 127.45 41.09 127.72 41.9C127.99 42.71 128.18 43.27 128.24 43.52C128.288 43.6616 128.312 43.8104 128.31 43.96C128.32 44.1467 128.289 44.3333 128.218 44.5062C128.147 44.6792 128.038 44.8342 127.9 44.96C127.742 45.1011 127.556 45.2085 127.355 45.2756C127.154 45.3426 126.941 45.3679 126.73 45.35C126.419 45.3793 126.108 45.29 125.86 45.1C125.65 44.9031 125.495 44.655 125.41 44.38C125.18 43.79 124.92 43.04 124.61 42.12C124.3 41.2 123.98 40.2 123.61 39.12H115.16M122.66 36.19C122.18 34.73 121.74 33.39 121.31 32.19C120.88 30.99 120.5 29.84 120.02 28.7C119.91 28.45 119.79 28.17 119.67 27.83C119.55 27.49 119.47 27.32 119.45 27.26C119.356 27.431 119.282 27.6122 119.23 27.8C119.1 28.16 118.99 28.45 118.87 28.7C118.42 29.8 117.99 30.96 117.57 32.19C117.15 33.42 116.71 34.75 116.24 36.19H122.66Z" fill="#1D1D1B"/>
<path d="M134.15 36.89C134.033 36.7727 133.926 36.6456 133.83 36.51L133.5 36.05C133.18 35.6 132.85 35.05 132.5 34.41C132.15 33.77 131.75 33.09 131.38 32.41C131.01 31.73 130.65 30.96 130.31 30.23C129.97 29.5 129.63 28.82 129.36 28.23C129.09 27.64 128.83 27.05 128.63 26.59C128.48 26.2673 128.356 25.9329 128.26 25.59C128.221 25.5067 128.191 25.4196 128.17 25.33C128.17 25.33 128.17 25.2 128.17 25.08C128.169 24.8936 128.205 24.7089 128.278 24.537C128.35 24.3652 128.456 24.2097 128.59 24.08C128.747 23.9363 128.932 23.8259 129.133 23.7555C129.334 23.685 129.547 23.656 129.76 23.67C129.941 23.6496 130.125 23.6695 130.298 23.7282C130.471 23.787 130.629 23.8832 130.76 24.01C130.936 24.207 131.075 24.4339 131.17 24.68L131.5 25.42C131.67 25.8 131.88 26.27 132.12 26.83C132.36 27.39 132.65 28.01 132.97 28.69C133.29 29.37 133.6 30.02 133.97 30.69L134.92 32.56C135.178 33.0633 135.465 33.5508 135.78 34.02C136.29 33.2238 136.754 32.3991 137.17 31.55C137.66 30.55 138.17 29.6 138.58 28.63C138.99 27.66 139.42 26.81 139.76 26.08L140.35 24.69C140.449 24.4435 140.591 24.2166 140.77 24.02C140.898 23.8883 141.055 23.7887 141.229 23.7296C141.403 23.6705 141.588 23.6535 141.77 23.68C141.983 23.6648 142.196 23.6933 142.397 23.7638C142.599 23.8343 142.783 23.9454 142.94 24.09C143.077 24.2171 143.186 24.372 143.258 24.5445C143.331 24.717 143.365 24.903 143.36 25.09C143.37 25.173 143.37 25.257 143.36 25.34L143.28 25.6L142.89 26.6C142.7 27.07 142.46 27.6 142.17 28.24C141.88 28.88 141.58 29.55 141.24 30.24C140.9 30.93 140.52 31.69 140.15 32.42C139.78 33.15 139.41 33.82 139.04 34.42C138.67 35.02 138.32 35.63 138.04 36.07C137.848 36.3499 137.631 36.6111 137.39 36.85V43.85C137.4 44.054 137.367 44.2577 137.295 44.4487C137.223 44.6396 137.112 44.8137 136.97 44.96C136.684 45.2428 136.297 45.4013 135.895 45.4013C135.493 45.4013 135.106 45.2428 134.82 44.96C134.667 44.8111 134.546 44.6321 134.465 44.4342C134.384 44.2363 134.345 44.0238 134.35 43.81V36.81" fill="#1D1D1B"/>
</g>
<defs>
<clipPath id="clip0_245_22752">
<rect width="143.2" height="69.57" fill="white"/>
</clipPath>
</defs>
</svg>
