<svg version="1.2" xmlns="http://www.w3.org/2000/svg" viewBox="0 0 623 361" width="623" height="361">
	<title>mtn-logo-svg</title>
	<style>
		.s0 { fill: #ffcc00 } 
		.s1 { fill: #020001 } 
	</style>
	<path id="Forme 1" class="s0" d="m0 0h623v361h-623z"/>
	<path id="Layer" fill-rule="evenodd" class="s1" d="m594.9 180.7c0 78.3-126.9 141.8-283.4 141.8-156.6 0-283.5-63.5-283.5-141.8 0-78.2 126.9-141.7 283.5-141.7 156.5 0 283.4 63.5 283.4 141.7zm-22.4 0c0-65.9-116.8-119.3-261-119.3-144.2 0-261.1 53.4-261.1 119.3 0 65.9 116.9 119.4 261.1 119.4 144.2 0 261-53.5 261-119.4zm-296.8-24.8v-22.4h80v22.4h-28.8v72.1h-22.4v-72.1zm176.5-22.4v94.5h-22.4l-40.6-56.2v56.2h-22.3v-94.5h22.3l40.6 56.2v-56.2zm-282.1 94.5v-94.5h22.3l24.9 38.2 24.9-38.2h22.3v94.5h-22.3v-53.5l-17 26.1h-15.8l-17-26.1v53.5z"/>
</svg>