<svg width="72" height="73" viewBox="0 0 72 73" fill="none" xmlns="http://www.w3.org/2000/svg">
<path d="M52.5489 6.41113H19.4511C11.9104 6.41113 5.79205 12.5634 5.79205 20.1605V53.4728C5.79205 61.0699 11.9104 67.2222 19.4511 67.2222H52.5489C60.0896 67.2222 66.208 61.0699 66.208 53.4728V20.1492C66.208 12.5634 60.0896 6.41113 52.5489 6.41113ZM31.3943 21.199L33.1102 20.9846C33.2569 20.9733 36.7112 20.5556 40.7186 21.4022C46.2612 22.5762 50.1783 25.5677 52.0635 30.0605L48.4625 31.5844C45.9 25.4548 38.6302 24.7662 35.3001 24.7888V43.0197H31.3943V21.199ZM19.0673 23.6938C19.0673 22.0683 20.3768 20.7588 21.991 20.7588C23.6053 20.7588 24.9147 22.0683 24.9147 23.6938C24.9147 25.3193 23.6053 26.6288 21.991 26.6288C20.3768 26.6288 19.0673 25.3193 19.0673 23.6938ZM53.023 40.4233C52.8085 41.8118 52.4925 43.0648 52.0861 44.0356C49.4446 50.2894 43.2698 53.4615 33.7536 53.4615H19.8914V31.7651H23.7972V49.5331H33.7423C41.5426 49.5331 46.5096 47.1625 48.4738 42.5004C48.6995 41.9585 48.9027 41.2361 49.0495 40.4233H45.8097L51.3862 33.3793L56.974 40.4346L53.023 40.4233Z" fill="black"/>
</svg>
