<svg width="137" height="73" viewBox="0 0 137 73" fill="none" xmlns="http://www.w3.org/2000/svg">
<path d="M4.82831 23.0381H14.3671C16.0491 23.0381 17.5617 23.1961 18.905 23.4896C20.2484 23.7944 21.4111 24.2911 22.3706 24.991C23.3301 25.6796 24.0752 26.5714 24.6057 27.6551C25.125 28.7388 25.3846 30.0369 25.3846 31.5609C25.3846 33.1977 25.0798 34.5636 24.4815 35.6699C23.872 36.7762 23.0592 37.6679 22.0207 38.3453C20.9821 39.0226 19.7855 39.5193 18.4083 39.824C17.0311 40.1288 15.5749 40.2756 14.0284 40.2756H10.021V52.4558H4.82831V23.0381ZM13.6672 35.8844C14.5138 35.8844 15.3379 35.8279 16.1055 35.6925C16.8731 35.5683 17.5617 35.3425 18.1713 35.0264C18.7809 34.7104 19.255 34.2701 19.6162 33.717C19.9774 33.1638 20.1581 32.4414 20.1581 31.5496C20.1581 30.6917 19.9774 29.9918 19.6162 29.4499C19.255 28.9081 18.7809 28.4904 18.1939 28.1856C17.5956 27.8808 16.9296 27.6776 16.1732 27.5873C15.4169 27.4857 14.638 27.4406 13.8365 27.4406H10.0323V35.8731H13.6672V35.8844Z" fill="black"/>
<path d="M39.766 49.9294H39.6419C39.1452 50.8212 38.3437 51.5437 37.2487 52.1081C36.1424 52.6725 34.9007 52.966 33.4896 52.966C32.6882 52.966 31.8641 52.8644 30.9949 52.65C30.1257 52.4355 29.3242 52.0968 28.6017 51.6114C27.868 51.126 27.2697 50.4939 26.7843 49.7037C26.2989 48.9135 26.0618 47.9314 26.0618 46.7687C26.0618 45.2673 26.4795 44.082 27.3261 43.1902C28.1728 42.2984 29.2452 41.6211 30.5659 41.1583C31.8867 40.6842 33.3542 40.3794 34.9684 40.2213C36.5827 40.0746 38.1518 39.9956 39.6983 39.9956V39.4989C39.6983 38.2572 39.2468 37.3315 38.355 36.7332C37.4632 36.1349 36.3908 35.8414 35.149 35.8414C34.0992 35.8414 33.0945 36.0672 32.135 36.5074C31.1755 36.9477 30.374 37.4895 29.7419 38.1217L27.1794 35.0851C28.3082 34.0353 29.6064 33.2451 31.0852 32.7145C32.564 32.184 34.0541 31.9243 35.5667 31.9243C37.3277 31.9243 38.7839 32.1727 39.9241 32.6694C41.0642 33.166 41.9673 33.8208 42.6333 34.6223C43.2993 35.4237 43.7509 36.3268 44.0218 37.3202C44.2814 38.3136 44.4169 39.3183 44.4169 40.3117V52.4468H39.7886L39.766 49.9294ZM39.687 43.3595H38.5695C37.768 43.3595 36.9326 43.3934 36.0521 43.4611C35.1716 43.5289 34.3589 43.6869 33.6138 43.9127C32.8688 44.1497 32.2479 44.4771 31.7512 44.9061C31.2545 45.335 31.0062 45.922 31.0062 46.6784C31.0062 47.1525 31.1078 47.5476 31.3223 47.8636C31.5255 48.1797 31.7964 48.4394 32.1237 48.6313C32.4511 48.8232 32.8236 48.9586 33.2413 49.0489C33.659 49.128 34.0654 49.1731 34.483 49.1731C36.1876 49.1731 37.4858 48.7216 38.3663 47.8072C39.2468 46.8928 39.687 45.6398 39.687 44.0707V43.3595Z" fill="black"/>
<path d="M45.8619 32.5112H51.3594L56.8908 47.0169H56.9698L61.8803 32.5112H67.0391L57.6584 56.7363C57.2972 57.6507 56.9134 58.4634 56.507 59.1633C56.1006 59.8745 55.6039 60.4615 55.0169 60.9469C54.4412 61.4323 53.7526 61.8048 52.9737 62.0532C52.1948 62.3015 51.2465 62.4257 50.1403 62.4257C49.7226 62.4257 49.3049 62.4031 48.876 62.3692C48.447 62.3241 48.018 62.2564 47.5778 62.1435L47.9842 57.82C48.3115 57.9329 48.6389 58.0119 48.955 58.0458C49.2711 58.0909 49.5646 58.1022 49.8468 58.1022C50.366 58.1022 50.8063 58.0458 51.1675 57.9103C51.5287 57.7861 51.8335 57.5942 52.0706 57.3233C52.3189 57.0637 52.5334 56.7363 52.7366 56.3525C52.9285 55.9687 53.1317 55.5059 53.3575 54.9866L54.3509 52.4467L45.8619 32.5112Z" fill="black"/>
<path d="M119.169 6.41113H86.0713C78.5306 6.41113 72.4123 12.5634 72.4123 20.1605V53.4728C72.4123 61.0699 78.5306 67.2222 86.0713 67.2222H119.169C126.71 67.2222 132.828 61.0699 132.828 53.4728V20.1492C132.828 12.5634 126.71 6.41113 119.169 6.41113ZM98.0146 21.199L99.7304 20.9846C99.8771 20.9733 103.331 20.5556 107.339 21.4022C112.881 22.5762 116.799 25.5677 118.684 30.0605L115.083 31.5844C112.52 25.4548 105.25 24.7662 101.92 24.7888V43.0197H98.0146V21.199ZM85.6875 23.6938C85.6875 22.0683 86.997 20.7588 88.6113 20.7588C90.2255 20.7588 91.535 22.0683 91.535 23.6938C91.535 25.3193 90.2255 26.6288 88.6113 26.6288C86.997 26.6288 85.6875 25.3193 85.6875 23.6938ZM119.643 40.4233C119.429 41.8118 119.113 43.0648 118.706 44.0356C116.065 50.2894 109.89 53.4615 100.374 53.4615H86.5116V31.7651H90.4174V49.5331H100.363C108.163 49.5331 113.13 47.1625 115.094 42.5004C115.32 41.9585 115.523 41.2361 115.67 40.4233H112.43L118.006 33.3793L123.594 40.4346L119.643 40.4233Z" fill="black"/>
</svg>
