<svg width="72" height="72" viewBox="0 0 72 72" fill="none" xmlns="http://www.w3.org/2000/svg">
<path d="M53.6951 52.7546C51.2145 52.7546 48.8813 51.7887 47.1272 50.0354L37.6438 40.5517C36.9779 39.8841 35.8175 39.8861 35.1519 40.5517L25.6338 50.07C23.8797 51.8233 21.5465 52.7892 19.0659 52.7892H17.197L29.2081 64.8C32.9591 68.551 39.0409 68.551 42.7922 64.8L54.8374 52.7546H53.6951Z" fill="#32BCAD"/>
<path d="M19.0658 19.2102C21.5463 19.2102 23.8795 20.176 25.6337 21.9293L35.1517 31.4491C35.8372 32.1348 36.9564 32.1374 37.6436 31.4483L47.127 21.964C48.8812 20.2107 51.2143 19.2449 53.6949 19.2449H54.8371L42.7922 7.19967C39.0407 3.44842 32.9589 3.44842 29.2079 7.19967L17.1974 19.2102L19.0658 19.2102Z" fill="#32BCAD"/>
<path d="M64.8005 29.2068L57.5215 21.9279C57.3613 21.9921 57.1877 22.0322 57.0045 22.0322H53.695C51.984 22.0322 50.3091 22.7262 49.1 23.936L39.6169 33.4194C38.7295 34.3069 37.5634 34.7509 36.3983 34.7509C35.2322 34.7509 34.0669 34.3069 33.1798 33.4203L23.6608 23.9014C22.4518 22.6912 20.7769 21.9975 19.0659 21.9975H14.9965C14.8229 21.9975 14.6607 21.9566 14.5076 21.8989L7.1997 29.2068C3.44845 32.9581 3.44845 39.0396 7.1997 42.7909L14.5073 50.0985C14.6607 50.0408 14.8229 49.9999 14.9965 49.9999H19.0659C20.7769 49.9999 22.4518 49.3062 23.6608 48.0963L33.1789 38.5783C34.8993 36.8593 37.8983 36.8587 39.6169 38.5791L49.1 48.0616C50.3091 49.2715 51.984 49.9655 53.695 49.9655H57.0045C57.1877 49.9655 57.3613 50.0055 57.5215 50.0698L64.8005 42.7908C68.5514 39.0396 68.5514 32.958 64.8005 29.2068" fill="#32BCAD"/>
</svg>
