<svg width="137" height="72" viewBox="0 0 137 72" fill="none" xmlns="http://www.w3.org/2000/svg">
<path d="M57.6592 55.738V29.6408C57.6592 24.8389 61.5519 20.9463 66.3536 20.9463L74.059 20.9579C78.8468 20.9674 82.7233 24.8515 82.7233 29.6395V35.1944C82.7233 39.9963 78.8305 43.8889 74.0287 43.8889H63.1406" stroke="#939598" stroke-width="1.25" stroke-miterlimit="10" stroke-linecap="round" stroke-linejoin="round"/>
<path d="M84.8765 20.9429H88.2189C90.1896 20.9429 91.7869 22.5403 91.7869 24.511V44.0057" stroke="#939598" stroke-width="1.25" stroke-miterlimit="10" stroke-linecap="round" stroke-linejoin="round"/>
<path d="M91.0703 17.9225L89.5546 16.4065C89.1783 16.0305 89.1783 15.4206 89.5546 15.0445L91.0694 13.5296C91.4462 13.1529 92.0568 13.1529 92.4333 13.5296L93.9481 15.0445C94.3243 15.4206 94.3243 16.0305 93.9481 16.4065L92.4323 17.9225C92.0562 18.2985 91.4466 18.2985 91.0703 17.9225" fill="#32BCAD"/>
<path d="M98.1994 20.9253H101.514C103.219 20.9253 104.855 21.6028 106.06 22.8084L113.814 30.5616C114.818 31.566 116.446 31.566 117.451 30.5616L125.175 22.8367C126.381 21.6312 128.016 20.9537 129.722 20.9537H132.417" stroke="#939598" stroke-width="1.25" stroke-miterlimit="10" stroke-linecap="round" stroke-linejoin="round"/>
<path d="M98.1994 43.8349H101.514C103.219 43.8349 104.855 43.1574 106.06 41.9518L113.814 34.1986C114.818 33.1942 116.446 33.1942 117.451 34.1986L125.175 41.9234C126.381 43.129 128.016 43.8065 129.722 43.8065H132.417" stroke="#939598" stroke-width="1.25" stroke-miterlimit="10" stroke-linecap="round" stroke-linejoin="round"/>
<path d="M37.897 48.7881C36.2334 48.7881 34.6687 48.1404 33.4922 46.9645L27.1323 40.6043C26.6857 40.1566 25.9074 40.1579 25.4611 40.6043L19.0778 46.9877C17.9014 48.1636 16.3367 48.8114 14.6731 48.8114H13.4197L21.4749 56.8664C23.9905 59.3819 28.0692 59.3819 30.585 56.8664L38.663 48.7881H37.897Z" fill="#32BCAD"/>
<path d="M14.673 26.2917C16.3366 26.2917 17.9014 26.9394 19.0778 28.1153L25.461 34.4997C25.9207 34.9596 26.6713 34.9613 27.1322 34.4991L33.4922 28.1386C34.6686 26.9627 36.2333 26.315 37.8969 26.315H38.663L30.5851 18.2369C28.0692 15.7212 23.9904 15.7212 21.4749 18.2369L13.42 26.2917L14.673 26.2917Z" fill="#32BCAD"/>
<path d="M45.3448 32.9962L40.4632 28.1147C40.3557 28.1577 40.2393 28.1846 40.1164 28.1846H37.8969C36.7495 28.1846 35.6262 28.65 34.8154 29.4614L28.4556 35.8214C27.8604 36.4166 27.0783 36.7143 26.297 36.7143C25.515 36.7143 24.7335 36.4166 24.1385 35.822L17.7547 29.4382C16.9439 28.6266 15.8206 28.1613 14.6731 28.1613H11.944C11.8276 28.1613 11.7188 28.1339 11.6161 28.0952L6.7151 32.9962C4.19934 35.512 4.19934 39.5905 6.7151 42.1063L11.6159 47.0071C11.7188 46.9685 11.8276 46.941 11.944 46.941H14.6731C15.8206 46.941 16.9439 46.4758 17.7547 45.6644L24.1379 39.2811C25.2917 38.1283 27.3029 38.128 28.4556 39.2817L34.8154 45.6411C35.6262 46.4525 36.7495 46.9179 37.8969 46.9179H40.1164C40.2393 46.9179 40.3557 46.9448 40.4632 46.9879L45.3448 42.1063C47.8604 39.5905 47.8604 35.512 45.3448 32.9962" fill="#32BCAD"/>
<path d="M64.2854 53.5194C63.9252 53.5194 63.5059 53.6061 63.0911 53.7018V55.292C63.3784 55.397 63.7065 55.4475 64.021 55.4475C64.8185 55.4475 65.1967 55.1785 65.1967 54.476C65.1967 53.8157 64.8869 53.5194 64.2854 53.5194M62.8221 56.4728V53.3278H63.041L63.0638 53.4648C63.4329 53.3781 63.9432 53.2642 64.3079 53.2642C64.6045 53.2642 64.8869 53.3093 65.1237 53.501C65.3975 53.7246 65.484 54.0843 65.484 54.476C65.484 54.887 65.347 55.2741 64.9734 55.488C64.7137 55.634 64.3628 55.6932 64.0482 55.6932C63.7245 55.6932 63.4148 55.6429 63.0911 55.5475V56.4728H62.8221Z" fill="#939598"/>
<path d="M67.4862 53.5101C66.6885 53.5101 66.333 53.761 66.333 54.4629C66.333 55.1419 66.6839 55.4475 67.4862 55.4475C68.2791 55.4475 68.6347 55.2011 68.6347 54.4993C68.6347 53.8203 68.2839 53.5101 67.4862 53.5101ZM68.5116 55.4475C68.2471 55.6386 67.8918 55.6934 67.4862 55.6934C67.0715 55.6934 66.7158 55.6342 66.4561 55.4475C66.1644 55.2425 66.0457 54.9049 66.0457 54.4814C66.0457 54.0617 66.1644 53.7203 66.4561 53.5101C66.7158 53.3236 67.0715 53.2642 67.4862 53.2642C67.8962 53.2642 68.2471 53.3236 68.5116 53.5101C68.808 53.7203 68.9218 54.0617 68.9218 54.4762C68.9218 54.9005 68.8033 55.2425 68.5116 55.4475Z" fill="#939598"/>
<path d="M72.2871 55.6299L71.3983 53.7206H71.3799L70.505 55.6299H70.2634L69.3154 53.3281H69.6117L70.4002 55.2605H70.4186L71.2751 53.3281H71.5213L72.401 55.2605H72.4194L73.1896 53.3281H73.4765L72.5287 55.6299H72.2871Z" fill="#939598"/>
<path d="M75.1958 53.5055C74.4576 53.5055 74.2068 53.8336 74.1611 54.308H76.2305C76.2078 53.7839 75.9386 53.5055 75.1958 53.5055ZM75.1869 55.6932C74.7445 55.6932 74.4576 55.6296 74.2297 55.4379C73.9607 55.2055 73.8694 54.8685 73.8694 54.4812C73.8694 54.112 73.9927 53.7201 74.2981 53.4966C74.5532 53.319 74.8678 53.2642 75.1958 53.2642C75.4923 53.2642 75.834 53.296 76.1164 53.4876C76.4492 53.7107 76.5132 54.103 76.5132 54.5494H74.1522C74.1611 55.0232 74.3162 55.4429 75.2093 55.4429C75.6334 55.4429 76.0299 55.3743 76.3991 55.3105V55.5519C76.0162 55.6206 75.5923 55.6932 75.1869 55.6932" fill="#939598"/>
<path d="M77.2848 55.6296V53.3278H77.5035L77.5266 53.4648C78.0141 53.3419 78.242 53.2642 78.6704 53.2642H78.7024V53.5194H78.6384C78.2785 53.5194 78.0598 53.5694 77.554 53.7018V55.6296H77.2848Z" fill="#939598"/>
<path d="M80.2642 53.5055C79.5259 53.5055 79.2752 53.8336 79.2295 54.308H81.2989C81.2762 53.7839 81.007 53.5055 80.2642 53.5055ZM80.2552 55.6932C79.8128 55.6932 79.5259 55.6296 79.2981 55.4379C79.0289 55.2055 78.9378 54.8685 78.9378 54.4812C78.9378 54.112 79.0611 53.7201 79.3665 53.4966C79.6216 53.319 79.9361 53.2642 80.2642 53.2642C80.5606 53.2642 80.9024 53.296 81.1847 53.4876C81.5176 53.7107 81.5816 54.103 81.5816 54.5494H79.2206C79.2295 55.0232 79.3846 55.4429 80.2777 55.4429C80.7016 55.4429 81.0981 55.3743 81.4675 55.3105V55.5519C81.0845 55.6206 80.6606 55.6932 80.2552 55.6932" fill="#939598"/>
<path d="M84.5273 53.6655C84.2402 53.5605 83.9122 53.5102 83.5976 53.5102C82.8001 53.5102 82.4216 53.7796 82.4216 54.4813C82.4216 55.1464 82.7315 55.4381 83.333 55.4381C83.6932 55.4381 84.1126 55.3514 84.5273 55.2603V53.6655ZM84.5776 55.6297L84.5548 55.4927C84.1855 55.5794 83.675 55.6935 83.3103 55.6935C83.0145 55.6935 82.7315 55.6526 82.4945 55.4565C82.2211 55.2331 82.1345 54.873 82.1345 54.4813C82.1345 54.0711 82.2712 53.6834 82.6448 53.4738C82.9047 53.3235 83.2556 53.2643 83.5748 53.2643C83.8939 53.2643 84.2038 53.3191 84.5273 53.4102V52.3574H84.7963V55.6297H84.5776Z" fill="#939598"/>
<path d="M88.7393 53.5198C88.379 53.5198 87.9597 53.6064 87.545 53.7021V55.2879C87.8368 55.3973 88.1603 55.4478 88.4749 55.4478C89.2724 55.4478 89.6505 55.1788 89.6505 54.4763C89.6505 53.816 89.3408 53.5198 88.7393 53.5198M89.4274 55.4884C89.1676 55.6343 88.8167 55.6935 88.5021 55.6935C88.1603 55.6935 87.8186 55.6343 87.4722 55.5204L87.4584 55.6299H87.2759V52.3574H87.545V53.4556C87.9142 53.374 88.4109 53.2645 88.7618 53.2645C89.0584 53.2645 89.3407 53.3096 89.5776 53.5013C89.8513 53.7249 89.9378 54.0846 89.9378 54.4763C89.9378 54.8873 89.8009 55.2744 89.4274 55.4884Z" fill="#939598"/>
<path d="M90.2947 56.5139V56.2636C90.4267 56.2769 90.5502 56.2865 90.6367 56.2865C90.9695 56.2865 91.1698 56.1904 91.3566 55.8121L91.4433 55.6299L90.2402 53.3281H90.5502L91.5803 55.3152H91.5984L92.5782 53.3281H92.8836L91.5893 55.9127C91.3523 56.3821 91.097 56.5368 90.6275 56.5368C90.5226 56.5368 90.4088 56.5278 90.2947 56.5139" fill="#939598"/>
<path d="M96.5899 54.3171H95.6968V55.1242H96.5943C97.2097 55.1242 97.4423 55.0554 97.4423 54.7184C97.4423 54.3579 97.1234 54.3171 96.5899 54.3171M96.4261 53.0091H95.6968V53.8292H96.4305C97.0367 53.8292 97.2781 53.7566 97.2781 53.4147C97.2781 53.0504 96.9729 53.0091 96.4261 53.0091M97.8115 55.4113C97.4831 55.6208 97.0866 55.6298 96.3621 55.6298H94.9993V52.5078H96.3303C96.9546 52.5078 97.3373 52.5168 97.6564 52.7084C97.8845 52.8452 97.9754 53.0548 97.9754 53.3282C97.9754 53.656 97.8389 53.8751 97.4831 54.0211V54.039C97.8845 54.1306 98.1442 54.3356 98.1442 54.7776C98.1442 55.0783 98.0348 55.2743 97.8115 55.4113" fill="#939598"/>
<path d="M100.871 54.6635C100.602 54.6405 100.328 54.6271 100.041 54.6271C99.5718 54.6271 99.4074 54.7228 99.4074 54.9367C99.4074 55.1373 99.5443 55.2469 99.9042 55.2469C100.205 55.2469 100.565 55.1787 100.871 55.1099V54.6635ZM101.007 55.6296L100.989 55.4928C100.597 55.5889 100.141 55.6934 99.7402 55.6934C99.4938 55.6934 99.2298 55.6614 99.0427 55.5246C98.8699 55.4018 98.7876 55.2012 98.7876 54.9687C98.7876 54.7087 98.9017 54.4673 99.1749 54.3444C99.4165 54.2305 99.7402 54.2215 100.037 54.2215C100.278 54.2215 100.601 54.2349 100.871 54.2533V54.212C100.871 53.8521 100.633 53.7336 99.9863 53.7336C99.7356 53.7336 99.4302 53.747 99.1385 53.7744V53.3095C99.462 53.2827 99.8269 53.2642 100.128 53.2642C100.529 53.2642 100.944 53.2962 101.199 53.4783C101.463 53.6654 101.513 53.9252 101.513 54.2666V55.6296L101.007 55.6296Z" fill="#939598"/>
<path d="M104.518 55.6296V54.3577C104.518 53.9388 104.304 53.7883 103.921 53.7883C103.639 53.7883 103.283 53.861 102.982 53.9342V55.6296H102.34V53.3278H102.864L102.887 53.4737C103.292 53.3691 103.744 53.2642 104.117 53.2642C104.4 53.2642 104.687 53.3049 104.906 53.5012C105.088 53.6654 105.156 53.8929 105.156 54.2213V55.6296H104.518Z" fill="#939598"/>
<path d="M106.972 55.6932C106.676 55.6932 106.352 55.6525 106.115 55.4519C105.833 55.2238 105.75 54.8639 105.75 54.476C105.75 54.1118 105.869 53.7151 106.22 53.492C106.507 53.3049 106.863 53.2642 107.232 53.2642C107.496 53.2642 107.756 53.2825 108.043 53.3093V53.8016C107.81 53.7793 107.532 53.7608 107.309 53.7608C106.698 53.7608 106.411 53.9525 106.411 54.4812C106.411 54.978 106.626 55.192 107.127 55.192C107.418 55.192 107.761 55.1373 108.093 55.0735V55.5473C107.733 55.6206 107.341 55.6932 106.972 55.6932" fill="#939598"/>
<path d="M109.991 53.7469C109.381 53.7469 109.112 53.9386 109.112 54.4627C109.112 54.987 109.376 55.2105 109.991 55.2105C110.597 55.2105 110.862 55.0232 110.862 54.4991C110.862 53.975 110.602 53.7469 109.991 53.7469ZM111.094 55.4519C110.812 55.6429 110.443 55.6932 109.991 55.6932C109.531 55.6932 109.162 55.6386 108.884 55.4519C108.565 55.2423 108.451 54.8959 108.451 54.4812C108.451 54.066 108.565 53.7151 108.884 53.5055C109.162 53.3188 109.531 53.2642 109.991 53.2642C110.447 53.2642 110.812 53.3188 111.094 53.5055C111.413 53.7151 111.523 54.066 111.523 54.4762C111.523 54.8914 111.409 55.2423 111.094 55.4519Z" fill="#939598"/>
<path d="M115.233 55.6933C114.846 55.6933 114.427 55.6296 114.112 55.3698C113.738 55.0596 113.624 54.5812 113.624 54.0659C113.624 53.606 113.77 53.059 114.258 52.7401C114.636 52.4941 115.105 52.4438 115.579 52.4438C115.926 52.4438 116.281 52.4667 116.669 52.4985V53.059C116.336 53.0316 115.926 53.0087 115.607 53.0087C114.718 53.0087 114.34 53.3463 114.34 54.0659C114.34 54.8004 114.691 55.1284 115.347 55.1284C115.775 55.1284 116.254 55.0417 116.737 54.9411V55.4971C116.254 55.5933 115.748 55.6933 115.233 55.6933" fill="#939598"/>
<path d="M118.626 53.6743C118.092 53.6743 117.887 53.866 117.846 54.2169H119.396C119.378 53.8431 119.159 53.6743 118.626 53.6743ZM118.53 55.6934C118.152 55.6934 117.81 55.6481 117.554 55.4379C117.281 55.2105 117.185 54.8685 117.185 54.4762C117.185 54.1253 117.299 53.7336 117.618 53.5055C117.901 53.3051 118.261 53.2642 118.626 53.2642C118.954 53.2642 119.341 53.3006 119.624 53.4966C119.993 53.7565 120.025 54.1577 120.029 54.6315H117.842C117.855 54.9826 118.042 55.2105 118.689 55.2105C119.09 55.2105 119.537 55.1512 119.916 55.092V55.5431C119.473 55.6163 118.99 55.6934 118.53 55.6934" fill="#939598"/>
<path d="M122.888 55.6296V54.3577C122.888 53.9388 122.675 53.7883 122.291 53.7883C122.009 53.7883 121.654 53.861 121.353 53.9342V55.6296H120.71V53.3278H121.234L121.257 53.4737C121.662 53.3691 122.114 53.2642 122.488 53.2642C122.77 53.2642 123.057 53.3049 123.276 53.5012C123.458 53.6654 123.527 53.8929 123.527 54.2213V55.6296H122.888Z" fill="#939598"/>
<path d="M125.356 55.6933C125.046 55.6933 124.763 55.6066 124.608 55.3652C124.495 55.201 124.44 54.9781 124.44 54.6679V53.8062H123.975V53.3278H124.44L124.508 52.6304H125.078V53.3278H125.985V53.8062H125.078V54.5449C125.078 54.7226 125.091 54.8729 125.142 54.9825C125.21 55.1374 125.36 55.1964 125.561 55.1964C125.711 55.1964 125.894 55.1736 126.021 55.1513V55.6112C125.812 55.6525 125.57 55.6933 125.356 55.6933" fill="#939598"/>
<path d="M126.612 55.6296V53.3278H127.136L127.159 53.4737C127.583 53.3552 127.897 53.2642 128.298 53.2642C128.316 53.2642 128.344 53.2642 128.38 53.2685V53.8156C128.307 53.8113 128.221 53.8113 128.157 53.8113C127.842 53.8113 127.605 53.8475 127.254 53.9298V55.6296L126.612 55.6296Z" fill="#939598"/>
<path d="M130.717 54.6635C130.448 54.6405 130.174 54.6271 129.887 54.6271C129.418 54.6271 129.253 54.7228 129.253 54.9367C129.253 55.1373 129.39 55.2469 129.75 55.2469C130.051 55.2469 130.411 55.1787 130.717 55.1099V54.6635ZM130.853 55.6296L130.835 55.4928C130.443 55.5889 129.987 55.6934 129.586 55.6934C129.34 55.6934 129.076 55.6614 128.889 55.5246C128.716 55.4018 128.633 55.2012 128.633 54.9687C128.633 54.7087 128.748 54.4673 129.021 54.3444C129.263 54.2305 129.586 54.2215 129.883 54.2215C130.124 54.2215 130.448 54.2349 130.717 54.2533V54.212C130.717 53.8521 130.479 53.7336 129.832 53.7336C129.582 53.7336 129.276 53.747 128.984 53.7744V53.3095C129.308 53.2827 129.673 53.2642 129.974 53.2642C130.375 53.2642 130.79 53.2962 131.045 53.4783C131.309 53.6654 131.359 53.9252 131.359 54.2666V55.6296L130.853 55.6296Z" fill="#939598"/>
<path d="M132.186 52.3574H132.828V55.6297H132.186V52.3574Z" fill="#939598"/>
</svg>
