<svg width="106" height="25" viewBox="0 0 106 25" fill="none" xmlns="http://www.w3.org/2000/svg">
<g clip-path="url(#clip0_1257_14696)">
<path d="M68.664 8.915C66.88 7.303 64.726 6.515 62.236 6.515C59.78 6.515 57.626 7.304 55.841 8.915C54.057 10.492 53.15 12.687 53.15 15.499C53.15 18.311 54.057 20.504 55.841 22.116C57.625 23.693 59.78 24.482 62.236 24.482C64.726 24.482 66.88 23.693 68.664 22.116C70.482 20.504 71.389 18.31 71.389 15.499C71.389 12.688 70.481 10.492 68.664 8.915ZM58.872 19.098C57.931 18.173 57.457 16.972 57.457 15.498C57.457 14.024 57.927 12.824 58.872 11.932C59.3102 11.4872 59.8343 11.1363 60.4125 10.9006C60.9906 10.6649 61.6107 10.5493 62.235 10.561C62.8645 10.5492 63.4899 10.6645 64.0738 10.9001C64.6576 11.1357 65.188 11.4867 65.633 11.932C66.607 12.824 67.081 14.023 67.081 15.498C67.081 16.973 66.611 18.172 65.633 19.098C64.692 19.989 63.547 20.435 62.235 20.435C61.614 20.4449 60.9971 20.3319 60.42 20.1024C59.8428 19.8729 59.3167 19.5316 58.872 19.098ZM77.753 24.001V0.473H73.513V24.001H77.753ZM91.438 6.995V16.383C91.438 18.645 90.238 20.145 87.954 20.145C85.631 20.145 84.463 18.647 84.463 16.383V6.995H80.215V17.103C80.215 21.019 82.638 24.481 87.954 24.481H87.987C93.27 24.481 95.689 20.942 95.689 17.103V6.995H91.438ZM48.638 6.995L44.398 18.515L40.158 6.995H35.649L42.415 24.002H46.387L53.152 6.995H48.638ZM35.669 15.018C35.669 12.55 34.896 10.527 33.381 8.915C31.866 7.303 29.917 6.515 27.527 6.515C25.071 6.515 22.983 7.373 21.267 9.052C19.583 10.733 18.744 12.858 18.744 15.498C18.744 18.138 19.585 20.299 21.234 21.978C22.918 23.659 24.937 24.481 27.326 24.481C30.996 24.481 33.586 22.835 35.165 19.509L32.003 17.657C30.962 19.748 29.445 20.777 27.393 20.777C24.87 20.777 23.086 19.131 22.816 16.526H35.668V15.017L35.669 15.018ZM27.39 9.806C29.779 9.806 31.362 11.177 31.765 13.372H22.814C23.455 11.349 25.203 9.806 27.391 9.806H27.39ZM18.743 24.001L13.054 13.853C16.653 12.516 18.437 10.185 18.437 6.79C18.441 2.641 15.208 0 10.06 0H0V24.001H4.442V14.264H8.212L13.662 24.002L18.743 24.001ZM10.06 3.977C12.685 3.977 13.998 5.04 13.998 7.131C13.998 9.222 12.684 10.285 10.06 10.285H4.442V3.977H10.06ZM102.877 24.481C100.148 24.481 97.935 22.225 97.935 19.441V2.4H102.175V7.001H105.811V10.498H102.175V19.163C102.175 19.979 102.824 20.64 103.626 20.64H105.811V24.481H102.877Z" fill="black"/>
</g>
<defs>
<clipPath id="clip0_1257_14696">
<rect width="106" height="25" fill="white"/>
</clipPath>
</defs>
</svg>
