<svg width="58" height="16" viewBox="0 0 58 16" fill="none" xmlns="http://www.w3.org/2000/svg">
<path d="M12.7302 5.00759H8.8097C8.8097 4.36139 8.73435 3.92911 8.58366 3.71075C8.3494 3.3832 7.70548 3.22007 6.65191 3.22133C5.62747 3.22133 4.95 3.31528 4.61949 3.50318C4.28898 3.69361 4.12183 4.10113 4.12183 4.73146C4.12183 5.30276 4.26999 5.68363 4.56251 5.86073C4.8191 6.00171 5.10574 6.07877 5.39827 6.08544L6.19034 6.14257C7.88466 6.25556 8.94266 6.33427 9.36434 6.37871C10.7079 6.51074 11.6792 6.86812 12.2781 7.45084C12.7625 7.92074 13.063 8.54901 13.1253 9.22186C13.1815 9.71239 13.2081 10.2059 13.2051 10.6996C13.2051 11.9692 13.0848 12.8947 12.8442 13.4761C12.4073 14.5514 11.4259 15.2351 9.89999 15.5271C8.93015 15.6734 7.94969 15.7371 6.96912 15.7175C4.77334 15.7175 3.24365 15.5861 2.38002 15.3233C1.32013 14.9996 0.623656 14.3458 0.290617 13.3619C0.0968725 12.8007 0 11.8822 0 10.6063H3.92049V10.9319C3.92049 11.6137 4.1155 12.0523 4.50552 12.2478C4.81476 12.3899 5.15118 12.4627 5.49134 12.4611H6.93303C7.66749 12.4611 8.13666 12.423 8.34053 12.3469C8.50278 12.293 8.65087 12.2033 8.77384 12.0843C8.89681 11.9653 8.99151 11.8201 9.05093 11.6594C9.11736 11.4112 9.14744 11.1546 9.14021 10.8977C9.14021 10.207 8.88694 9.78618 8.38042 9.6351C8.19174 9.57416 7.31799 9.49101 5.75917 9.38563C4.50552 9.29677 3.63494 9.21044 3.14741 9.12665C1.86337 8.89178 1.00798 8.39856 0.581235 7.64699C0.201343 7.01221 0.0113968 6.04672 0.0113968 4.75051C-0.0113092 3.95113 0.0938604 3.15326 0.322908 2.38724C0.493199 1.83752 0.841431 1.36041 1.31253 1.03136C1.96847 0.557819 2.8112 0.279788 3.84071 0.197267C4.698 0.121094 5.64773 0.0830078 6.6899 0.0830078C8.3361 0.0830078 9.50807 0.177589 10.2058 0.366752C11.9153 0.82506 12.7688 2.11238 12.7663 4.22872C12.7663 4.40202 12.7549 4.661 12.7302 5.00759Z" fill="#004899"/>
<path d="M29.9678 15.6973V0H37.8182C38.8959 0 39.719 0.0882337 40.2875 0.264701C40.8917 0.433925 41.4449 0.749692 41.8984 1.18411C42.3519 1.61853 42.6918 2.15824 42.8879 2.75556C43.1184 3.41445 43.233 4.40597 43.2317 5.73011C43.2317 7.32213 43.1051 8.46472 42.8518 9.1579C42.3453 10.5354 41.3101 11.3276 39.7462 11.5345C39.5626 11.565 38.7794 11.5916 37.3966 11.6145L36.6976 11.6373H34.1732V15.6973H29.9678ZM34.1732 8.00197H36.802C37.634 7.9715 38.1412 7.90866 38.3216 7.81154C38.5749 7.67443 38.7414 7.39957 38.8212 6.98697C38.8838 6.58198 38.9105 6.17221 38.9009 5.76249C38.9233 5.26708 38.8727 4.77107 38.7509 4.29044C38.5989 3.84102 38.2355 3.5668 37.6606 3.46778C37.5466 3.45254 37.2807 3.44492 36.8438 3.44492H34.1732V8.00197Z" fill="#004899"/>
<path d="M52.2185 12.9837H46.5885L45.8287 15.6973H41.46L46.1763 0H52.5319L57.2939 15.6973H53.0258L52.2185 12.9837ZM51.3809 9.92534L49.4111 3.12119L47.4946 9.92534H51.3809Z" fill="#004899"/>
<path d="M24.1521 2.20652C24.9782 2.20637 25.7939 2.39131 26.5396 2.7478C27.2853 3.1043 27.9421 3.62334 28.462 4.267L29.3699 2.31507C28.4351 1.43059 27.3009 0.785672 26.064 0.43522C24.827 0.0847676 23.5239 0.0391582 22.2656 0.302274C21.0073 0.565391 19.831 1.12944 18.8369 1.94641C17.8429 2.76337 17.0604 3.80906 16.5562 4.99445H14.7859L13.7393 7.24346H16.0186C16.0015 7.45103 15.9901 7.66051 15.9901 7.87379C15.9901 8.13088 16.0034 8.38606 16.0281 8.63552H14.8884L13.8418 10.8826H16.615C17.2366 12.2942 18.2558 13.4931 19.5475 14.3321C20.8392 15.1711 22.3471 15.6136 23.8862 15.6053C25.4655 15.6115 27.011 15.1476 28.3271 14.2723V11.5111C27.7633 12.1574 27.0578 12.6639 26.2659 12.9909C25.4741 13.318 24.6174 13.4566 23.7631 13.3959C22.9088 13.3351 22.0802 13.0768 21.3422 12.6411C20.6043 12.2054 19.9771 11.6041 19.5098 10.8845H25.3165L26.3631 8.63743H18.6532C18.6121 8.36321 18.5912 8.08634 18.5905 7.80905C18.5905 7.61861 18.6019 7.42818 18.619 7.23775H27.007L28.0536 4.98874H19.3446C19.8321 4.14297 20.5329 3.44065 21.3768 2.9523C22.2206 2.46395 23.1778 2.20675 24.1521 2.20652Z" fill="#FDC300"/>
<path d="M24.1521 2.27452C24.9682 2.27337 25.7743 2.45565 26.5109 2.80794C27.2476 3.16023 27.8961 3.67358 28.4088 4.31024L28.4772 4.39213L28.5227 4.29501L29.425 2.34308L29.4459 2.29928L29.4098 2.265C28.0749 1.01097 26.3557 0.24719 24.5324 0.0981436C22.7091 -0.0509026 20.8891 0.423571 19.3692 1.44424C18.0833 2.30689 17.0828 3.53404 16.4954 4.96914L16.5561 4.92724H14.7422L14.7251 4.96533L13.6785 7.21434L13.6348 7.30955H16.0186L15.9521 7.23719C15.9312 7.46952 15.9236 7.67709 15.9236 7.87323C15.9235 8.12762 15.9361 8.38186 15.9616 8.63496L16.0281 8.5607H14.8409L14.8238 8.60069L13.7772 10.8478L13.7335 10.9449H16.6112L16.5485 10.903C17.1746 12.3272 18.2025 13.5367 19.5056 14.3825C20.8086 15.2284 22.33 15.6738 23.8824 15.6638C25.4757 15.668 27.0344 15.1981 28.3613 14.3137L28.3898 14.2927V11.3353L28.2739 11.4705C27.7167 12.1086 27.0196 12.6087 26.2373 12.9315C25.4551 13.2543 24.6089 13.391 23.7651 13.3311C22.9212 13.2711 22.1027 13.0161 21.3737 12.5859C20.6447 12.1557 20.0249 11.5621 19.563 10.8516L19.506 10.9563H25.3563L25.3734 10.9182L26.42 8.66924L26.4656 8.57212H18.6531L18.7196 8.63116C18.6796 8.36004 18.6593 8.08636 18.6588 7.8123C18.6589 7.62531 18.6684 7.43844 18.6873 7.25242L18.619 7.31336H27.0507L27.0678 7.27528L28.1144 5.02627L28.1599 4.93105H19.3445L19.4034 5.03198C19.8855 4.19636 20.5777 3.50202 21.4109 3.0182C22.2441 2.53437 23.1892 2.27796 24.1521 2.27452ZM19.3445 5.06245H28.0536L27.9928 4.96533L26.9557 7.21434L27.0165 7.17435H18.5582V7.23719C18.5392 7.42703 18.5297 7.6177 18.5297 7.80849C18.5301 8.08888 18.5504 8.36889 18.5905 8.64639V8.70352H26.3555L26.2947 8.6083L25.2462 10.8554L25.307 10.8173H19.3825L19.4509 10.9221C19.924 11.6506 20.5592 12.2594 21.3064 12.7004C22.0537 13.1415 22.8928 13.403 23.7578 13.4642C24.6228 13.5255 25.4902 13.3849 26.2919 13.0535C27.0936 12.7221 27.8078 12.209 28.3784 11.5543L28.2606 11.5105V14.2661L28.2891 14.2108C26.9854 15.0823 25.4531 15.5462 23.8862 15.5439C22.3588 15.5544 20.8618 15.1162 19.5801 14.2833C18.2983 13.4504 17.288 12.2594 16.6739 10.8573L16.6549 10.8173H13.838L13.8988 10.9144L14.9454 8.66924L14.8846 8.70733H16.1022V8.63306C16.0756 8.38003 16.0623 8.12576 16.0623 7.87133C16.0623 7.6809 16.0623 7.47523 16.0908 7.24671V7.17244H13.7392L13.8 7.26956L14.8466 5.02056L14.7858 5.06055H16.6017L16.6188 5.01865C17.1989 3.60775 18.1839 2.40142 19.449 1.55278C20.9444 0.549088 22.7348 0.0827287 24.5285 0.229698C26.3221 0.376667 28.0132 1.1283 29.3262 2.36212L29.311 2.28404L28.405 4.23597L28.517 4.22264C27.9434 3.5126 27.2059 2.95328 26.3683 2.59303C25.5307 2.23279 24.6182 2.08245 23.7097 2.15501C22.8011 2.22757 21.9239 2.52085 21.1538 3.0095C20.3836 3.49815 19.7438 4.16747 19.2895 4.95962L19.2306 5.06055L19.3445 5.06245Z" fill="#004899"/>
</svg>
