<svg width="72" height="73" viewBox="0 0 72 73" fill="none" xmlns="http://www.w3.org/2000/svg">
<path d="M3.04289 47.8635H3.54443L3.07838 49.8101C3.00921 50.0989 3.02225 50.3164 3.11785 50.4614C3.21309 50.6066 3.39034 50.6792 3.64944 50.6792C3.90691 50.6792 4.11802 50.6066 4.28297 50.4614C4.44809 50.3164 4.56524 50.0989 4.63441 49.8101L5.10027 47.8635H5.60832L5.13087 49.8583C5.02712 50.2917 4.84226 50.6162 4.57755 50.8313C4.31266 51.0467 3.96539 51.1543 3.53574 51.1543C3.10572 51.1543 2.81077 51.0469 2.65017 50.8324C2.48939 50.618 2.46133 50.2932 2.56544 49.8583L3.04289 47.8635Z" fill="#696A6A"/>
<path d="M5.54094 51.069L6.33869 47.7366L7.85452 49.6962C7.89508 49.7514 7.936 49.8106 7.97637 49.8734C8.01675 49.9363 8.05803 50.0069 8.1004 50.0858L8.63253 47.8635H9.10202L8.30481 51.1934L6.75712 49.1988C6.71565 49.145 6.67709 49.0882 6.64106 49.0282C6.60466 48.9683 6.57189 48.9055 6.54184 48.8399L6.00825 51.069H5.54094Z" fill="#696A6A"/>
<path d="M9.06047 51.0688L9.8278 47.8634H10.3355L9.56834 51.0688H9.06047Z" fill="#696A6A"/>
<path d="M10.2983 51.0688L11.0657 47.8634H12.8093L12.7034 48.3055H11.4676L11.2762 49.1047H12.512L12.4026 49.5623H11.1667L10.8062 51.0688H10.2983Z" fill="#696A6A"/>
<path d="M12.6014 51.0688L13.3687 47.8634H13.8764L13.1093 51.0688H12.6014Z" fill="#696A6A"/>
<path d="M13.8393 51.0688L14.6066 47.8634H16.3502L16.2443 48.3055H15.0085L14.8161 49.1091H16.0518L15.9425 49.5668H14.7067L14.4587 50.6024H15.6944L15.5829 51.0688H13.8393Z" fill="#696A6A"/>
<path d="M16.7863 50.5984H17.2132C17.4479 50.5984 17.6278 50.5823 17.7529 50.5502C17.8781 50.5182 17.9928 50.4641 18.098 50.3882C18.2409 50.2848 18.3602 50.1559 18.4562 50.0018C18.552 49.8479 18.6246 49.6685 18.6734 49.4641C18.7222 49.2596 18.7356 49.0808 18.7135 48.927C18.6912 48.7728 18.6336 48.644 18.5404 48.5403C18.4703 48.4646 18.3778 48.4103 18.2623 48.3781C18.1466 48.3462 17.9583 48.3301 17.6964 48.3301H17.5129H17.3293L16.7863 50.5984ZM16.1658 51.0693L16.9331 47.8637H17.6181C18.0635 47.8637 18.3713 47.8865 18.5418 47.9325C18.712 47.9786 18.8527 48.0558 18.9633 48.1637C19.1102 48.3053 19.2036 48.4871 19.2438 48.7087C19.2838 48.9307 19.2697 49.184 19.2016 49.4686C19.1335 49.7532 19.0265 50.0054 18.8806 50.2251C18.735 50.4449 18.5545 50.6261 18.3398 50.7691C18.1773 50.8772 18.0032 50.9542 17.8181 51.0004C17.6325 51.0462 17.3559 51.0693 16.9872 51.0693H16.8505H16.1658Z" fill="#696A6A"/>
<path d="M21.6745 49.2034H21.8049C22.0864 49.2034 22.2818 49.1717 22.3908 49.1091C22.5 49.0464 22.5733 48.9354 22.6113 48.7763C22.6523 48.6055 22.6311 48.4849 22.5474 48.4151C22.4638 48.345 22.2878 48.3097 22.0189 48.3097H21.8885L21.6745 49.2034ZM21.5404 49.63L21.196 51.0688H20.7202L21.4877 47.8634H22.2559C22.4835 47.8634 22.6481 47.876 22.7495 47.9016C22.8505 47.9269 22.934 47.9691 22.9999 48.0276C23.0801 48.102 23.1328 48.2023 23.1581 48.3285C23.1833 48.4549 23.1779 48.5939 23.1417 48.7455C23.1051 48.8974 23.0439 49.0375 22.9577 49.1661C22.8715 49.2945 22.7705 49.3953 22.655 49.4681C22.5612 49.5266 22.4578 49.5682 22.3445 49.5928C22.2309 49.6178 22.0606 49.63 21.833 49.63H21.7328H21.5404Z" fill="#696A6A"/>
<path d="M23.7686 49.8099H24.6394L24.494 49.0785C24.4871 49.0319 24.4806 48.9783 24.475 48.9177C24.4697 48.857 24.4661 48.7895 24.4637 48.7151C24.4301 48.7851 24.3962 48.8505 24.3623 48.9112C24.3287 48.9716 24.2959 49.0274 24.2637 49.0785L23.7686 49.8099ZM24.8717 51.0688L24.7147 50.2434H23.4768L22.9164 51.0688H22.3832L24.6937 47.7364L25.4072 51.0688H24.8717Z" fill="#696A6A"/>
<path d="M26.1351 51.0688L26.486 49.6017L25.8502 47.8634H26.3837L26.7785 48.9515C26.7875 48.9794 26.7984 49.0158 26.8109 49.0611C26.8235 49.1063 26.8358 49.155 26.8474 49.2077C26.8793 49.1567 26.9121 49.1082 26.9448 49.0631C26.9776 49.0178 27.0108 48.9763 27.0442 48.9383L27.9736 47.8634H28.4817L26.9897 49.6017L26.6387 51.0688H26.1351Z" fill="#696A6A"/>
<path d="M30.9811 49.4858C30.9813 49.461 30.9885 49.3925 31.0026 49.2801C31.0135 49.1867 31.022 49.1092 31.0281 49.0478C30.9979 49.1209 30.9622 49.1941 30.9213 49.2669C30.8802 49.3398 30.8331 49.4143 30.7794 49.4903L29.5531 51.1982L29.1529 49.4554C29.1359 49.3837 29.1229 49.3143 29.1142 49.2473C29.1055 49.1802 29.0995 49.1137 29.0966 49.0478C29.0792 49.1152 29.0571 49.1854 29.0302 49.2593C29.0032 49.333 28.9709 49.4101 28.9331 49.4903L28.2201 51.069H27.753L29.2911 47.7275L29.7289 49.7509C29.7352 49.7829 29.7444 49.8363 29.7557 49.9107C29.7669 49.9851 29.7801 50.0771 29.7955 50.1865C29.8473 50.0945 29.9219 49.9779 30.02 49.8363C30.0461 49.7983 30.066 49.7691 30.0794 49.7487L31.464 47.7275L31.4196 51.069H30.9478L30.9811 49.4858Z" fill="#696A6A"/>
<path d="M31.8251 51.0688L32.5926 47.8634H34.3362L34.2303 48.3055H32.9944L32.8021 49.1091H34.0378L33.9285 49.5668H32.6925L32.4447 50.6024H33.6804L33.5685 51.0688H31.8251Z" fill="#696A6A"/>
<path d="M34.1515 51.069L34.9493 47.7366L36.4651 49.6962C36.5057 49.7514 36.5466 49.8106 36.587 49.8734C36.6273 49.9363 36.6686 50.0069 36.711 50.0858L37.2431 47.8635H37.7128L36.9154 51.1934L35.3677 49.1988C35.3262 49.145 35.2877 49.0882 35.2516 49.0282C35.2152 48.9683 35.1825 48.9055 35.1524 48.8399L34.6188 51.069H34.1515Z" fill="#696A6A"/>
<path d="M39.3333 48.3055L38.6719 51.0688H38.1641L38.8253 48.3055H37.9951L38.1011 47.8634H40.2651L40.1593 48.3055H39.3333Z" fill="#696A6A"/>
<path d="M39.8604 50.4273L40.312 50.2349C40.3165 50.3777 40.3607 50.4869 40.445 50.5621C40.5294 50.6374 40.6513 50.6749 40.811 50.6749C40.9616 50.6749 41.092 50.6318 41.2013 50.5456C41.3109 50.4596 41.3831 50.3442 41.4177 50.1998C41.4628 50.0113 41.3503 49.8434 41.0815 49.6962C41.0438 49.6743 41.0148 49.6582 40.9949 49.6479C40.6916 49.4757 40.4994 49.3198 40.4182 49.1804C40.3373 49.041 40.3207 48.8706 40.3688 48.6693C40.4313 48.408 40.5685 48.1963 40.7802 48.0343C40.9918 47.8722 41.2377 47.7911 41.5182 47.7911C41.7487 47.7911 41.9306 47.8367 42.0637 47.928C42.197 48.0194 42.273 48.1503 42.2919 48.3211L41.8448 48.5313C41.8061 48.4306 41.755 48.3569 41.6916 48.31C41.6281 48.2633 41.5477 48.24 41.4512 48.24C41.3147 48.24 41.1973 48.2767 41.0994 48.3493C41.002 48.4225 40.9381 48.5202 40.9086 48.643C40.8626 48.8356 40.996 49.0151 41.3091 49.1815C41.3331 49.1945 41.352 49.205 41.3656 49.2123C41.6395 49.358 41.8177 49.5009 41.8993 49.6403C41.9812 49.7799 41.9973 49.9539 41.9471 50.1625C41.8745 50.4663 41.7237 50.7074 41.4945 50.8861C41.2652 51.0649 40.9918 51.1543 40.6748 51.1543C40.4085 51.1543 40.2055 51.0917 40.0657 50.966C39.9256 50.8405 39.8571 50.6611 39.8604 50.4273Z" fill="#696A6A"/>
<path d="M43.6128 51.0688L44.3801 47.8634H44.888L44.1207 51.0688H43.6128Z" fill="#696A6A"/>
<path d="M44.8507 51.069L45.6484 47.7366L47.1643 49.6962C47.2048 49.7514 47.2457 49.8106 47.2861 49.8734C47.3265 49.9363 47.3678 50.0069 47.4102 50.0858L47.9423 47.8635H48.4118L47.6146 51.1934L46.0669 49.1988C46.0254 49.145 45.9867 49.0882 45.9506 49.0282C45.9144 48.9683 45.8815 48.9055 45.8514 48.8399L45.318 51.069H44.8507Z" fill="#696A6A"/>
<path d="M50.0325 48.3055L49.3709 51.0688H48.8632L49.5244 48.3055H48.6943L48.8002 47.8634H50.9642L50.8585 48.3055H50.0325Z" fill="#696A6A"/>
<path d="M50.5854 51.0688L51.3527 47.8634H53.0963L52.9906 48.3055H51.7548L51.5624 49.1091H52.7981L52.6885 49.5668H51.4528L51.2049 50.6024H52.4407L52.329 51.0688H50.5854Z" fill="#696A6A"/>
<path d="M53.86 49.2295H53.952C54.2207 49.2295 54.407 49.1976 54.5105 49.1333C54.6141 49.069 54.6858 48.9553 54.7245 48.7917C54.7669 48.6151 54.7495 48.4906 54.6719 48.4185C54.5949 48.3459 54.4281 48.3099 54.1721 48.3099H54.0802L53.86 49.2295ZM53.7311 49.6345L53.3876 51.0688H52.9118L53.6793 47.8634H54.3878C54.5954 47.8634 54.7533 47.8771 54.8611 47.905C54.969 47.9327 55.0559 47.9785 55.1216 48.043C55.1998 48.1201 55.2505 48.2204 55.2741 48.343C55.2971 48.4654 55.2911 48.5997 55.2563 48.7455C55.1949 49.0024 55.0863 49.2036 54.9306 49.349C54.7749 49.494 54.5753 49.5814 54.3322 49.6104L55.059 51.0688H54.4846L53.7886 49.6345H53.7311Z" fill="#696A6A"/>
<path d="M55.3599 51.0688L56.1273 47.8634H57.8709L57.7651 48.3055H56.5292L56.3378 49.1047H57.5737L57.4642 49.5623H56.2285L55.8678 51.0688H55.3599Z" fill="#696A6A"/>
<path d="M58.4595 49.8099H59.3304L59.185 49.0785C59.178 49.0319 59.1716 48.9783 59.166 48.9177C59.1608 48.857 59.1571 48.7895 59.1548 48.7151C59.1209 48.7851 59.0871 48.8505 59.0534 48.9112C59.0197 48.9716 58.9868 49.0274 58.9545 49.0785L58.4595 49.8099ZM59.5627 51.0688L59.4057 50.2434H58.1678L57.6075 51.0688H57.0741L59.3846 47.7364L60.0983 51.0688H59.5627Z" fill="#696A6A"/>
<path d="M63.4043 48.643C63.2908 48.5175 63.1615 48.4234 63.0163 48.3605C62.8715 48.2981 62.7107 48.2664 62.5342 48.2664C62.1929 48.2664 61.888 48.3788 61.6202 48.6035C61.352 48.8284 61.1753 49.1195 61.0897 49.4773C61.0069 49.8233 61.043 50.1085 61.1976 50.3332C61.3522 50.5581 61.5883 50.6707 61.9054 50.6707C62.0906 50.6707 62.2745 50.637 62.4578 50.5698C62.641 50.5027 62.8259 50.4013 63.0118 50.2653L62.8708 50.8545C62.7102 50.9551 62.5434 51.0305 62.3709 51.0799C62.1981 51.1295 62.018 51.1543 61.8302 51.1543C61.5912 51.1543 61.3797 51.1143 61.1963 51.0339C61.0127 50.9537 60.8626 50.8356 60.7466 50.6792C60.6311 50.526 60.557 50.3455 60.5253 50.1373C60.4931 49.9294 60.5052 49.7078 60.5613 49.4726C60.6177 49.2378 60.7116 49.0171 60.8429 48.8105C60.974 48.6039 61.136 48.4225 61.3283 48.2664C61.5213 48.1087 61.7277 47.9896 61.9475 47.9083C62.1675 47.8275 62.3944 47.7868 62.6278 47.7868C62.8114 47.7868 62.9798 47.8143 63.1331 47.8692C63.2865 47.9236 63.4281 48.0064 63.5582 48.1177L63.4043 48.643Z" fill="#696A6A"/>
<path d="M63.4535 51.0688L64.2209 47.8634H65.9645L65.8585 48.3055H64.623L64.4305 49.1091H65.6663L65.5567 49.5668H64.321L64.0731 50.6024H65.3088L65.1971 51.0688H63.4535Z" fill="#696A6A"/>
<path d="M54.1898 45.0703H50.6984L55.554 27.5338H59.0456L54.1898 45.0703Z" fill="#66686C"/>
<path d="M52.3772 28.0882C52.1351 27.7545 51.7618 27.5861 51.2546 27.5861H32.0558L31.1049 31.0208H34.5982V31.0188H48.5704L47.5539 34.6892H33.5814L33.5827 34.6816H30.0907L27.1925 45.1445H30.6862L32.6312 38.122H48.3374C48.8279 38.122 49.2896 37.9547 49.7238 37.6201C50.157 37.2851 50.4422 36.8721 50.5789 36.3789L52.5237 29.3549C52.6656 28.8452 52.6166 28.4222 52.3772 28.0882Z" fill="#66686C"/>
<path d="M25.1581 43.9757C24.9652 44.67 24.333 45.1504 23.6122 45.1504H5.59838C5.10752 45.1504 4.74269 44.9831 4.50278 44.6489C4.26306 44.3143 4.21164 43.9004 4.3487 43.4073L8.74411 27.5851H12.2387L8.31282 41.7168H22.2917L26.2176 27.5851H29.7115L25.1581 43.9757Z" fill="#66686C"/>
<path d="M65.0756 27.5664L69.496 36.3574L60.2037 45.146L65.0756 27.5664Z" fill="#27803B"/>
<path d="M61.9769 27.5664L66.394 36.3574L57.0979 45.146L61.9769 27.5664Z" fill="#E9661C"/>
</svg>
