<svg width="137" height="73" viewBox="0 0 137 73" fill="none" xmlns="http://www.w3.org/2000/svg">
<path d="M5.85796 52.8687H6.81623L5.92576 56.5879C5.79361 57.1397 5.81852 57.5552 6.00118 57.8323C6.18315 58.1098 6.52183 58.2485 7.01688 58.2485C7.50881 58.2485 7.91218 58.1098 8.22734 57.8323C8.54284 57.5552 8.76667 57.1397 8.89882 56.5879L9.78894 52.8687H10.7597L9.84741 56.68C9.64918 57.5082 9.29597 58.1281 8.79019 58.5391C8.28408 58.9508 7.62055 59.1562 6.79962 59.1562C5.978 59.1562 5.41445 58.9511 5.1076 58.5412C4.8004 58.1316 4.74678 57.5109 4.9457 56.68L5.85796 52.8687Z" fill="#696A6A"/>
<path d="M10.6309 58.9933L12.1552 52.6262L15.0514 56.3703C15.1289 56.4758 15.2071 56.589 15.2842 56.709C15.3614 56.8291 15.4403 56.964 15.5212 57.1148L16.538 52.8687H17.435L15.9118 59.231L12.9546 55.42C12.8754 55.3173 12.8017 55.2086 12.7329 55.0941C12.6634 54.9796 12.6007 54.8596 12.5433 54.7343L11.5238 58.9933H10.6309Z" fill="#696A6A"/>
<path d="M17.3556 58.9932L18.8217 52.8685H19.7917L18.3259 58.9932H17.3556Z" fill="#696A6A"/>
<path d="M19.7208 58.9932L21.1869 52.8685H24.5183L24.316 53.7133H21.9549L21.5892 55.2403H23.9503L23.7413 56.1145H21.3799L20.6911 58.9932H19.7208Z" fill="#696A6A"/>
<path d="M24.1212 58.9932L25.5873 52.8685H26.5573L25.0915 58.9932H24.1212Z" fill="#696A6A"/>
<path d="M26.4863 58.9932L27.9524 52.8685H31.2839L31.0815 53.7133H28.7204L28.3527 55.2486H30.7138L30.5048 56.1232H28.1438L27.6698 58.102H30.0309L29.8178 58.9932H26.4863Z" fill="#696A6A"/>
<path d="M32.117 58.0938H32.9328C33.3811 58.0938 33.725 58.0631 33.9641 58.0018C34.2031 57.9406 34.4224 57.8372 34.6234 57.6922C34.8964 57.4947 35.1244 57.2484 35.3077 56.954C35.4907 56.6599 35.6294 56.3171 35.7228 55.9265C35.8159 55.5359 35.8415 55.1941 35.7993 54.9004C35.7567 54.6057 35.6467 54.3597 35.4686 54.1615C35.3347 54.0169 35.1579 53.9131 34.9372 53.8515C34.7161 53.7906 34.3564 53.7598 33.8561 53.7598H33.5053H33.1545L32.117 58.0938ZM30.9315 58.9937L32.3976 52.8687H33.7063C34.5573 52.8687 35.1455 52.9123 35.4713 53.0001C35.7965 53.0884 36.0653 53.2357 36.2767 53.4419C36.5573 53.7124 36.7358 54.0598 36.8126 54.4832C36.889 54.9073 36.862 55.3913 36.732 55.9351C36.6019 56.479 36.3974 56.9609 36.1186 57.3805C35.8405 57.8005 35.4956 58.1468 35.0853 58.4201C34.7749 58.6266 34.4421 58.7736 34.0886 58.8618C33.734 58.9494 33.2054 58.9937 32.501 58.9937H32.2399H30.9315Z" fill="#696A6A"/>
<path d="M41.457 55.4289H41.706C42.244 55.4289 42.6173 55.3683 42.8255 55.2486C43.0341 55.1289 43.1742 54.9169 43.2469 54.6128C43.3251 54.2866 43.2846 54.0562 43.1248 53.9226C42.9649 53.7888 42.6287 53.7213 42.115 53.7213H41.8659L41.457 55.4289ZM41.2006 56.2439L40.5426 58.9932H39.6335L41.0999 52.8685H42.5678C43.0027 52.8685 43.3171 52.8928 43.5108 52.9415C43.7039 52.99 43.8634 53.0706 43.9893 53.1823C44.1425 53.3245 44.2432 53.5161 44.2916 53.7573C44.3397 53.9987 44.3294 54.2644 44.2602 54.554C44.1903 54.8442 44.0734 55.112 43.9087 55.3576C43.744 55.6029 43.551 55.7956 43.3303 55.9347C43.1511 56.0464 42.9535 56.126 42.737 56.173C42.5201 56.2208 42.1945 56.2439 41.7597 56.2439H41.5684H41.2006Z" fill="#696A6A"/>
<path d="M45.4581 56.5878H47.1218L46.844 55.1902C46.8308 55.1013 46.8184 54.9989 46.8077 54.883C46.7976 54.7671 46.7907 54.638 46.7862 54.4959C46.7219 54.6297 46.6572 54.7546 46.5925 54.8705C46.5281 54.9861 46.4655 55.0926 46.4039 55.1902L45.4581 56.5878ZM47.5656 58.9932L47.2657 57.416H44.9005L43.8298 58.9932H42.8109L47.2256 52.626L48.5889 58.9932H47.5656Z" fill="#696A6A"/>
<path d="M49.9798 58.9932L50.6502 56.19L49.4352 52.8685H50.4547L51.2089 54.9477C51.2262 55.0009 51.247 55.0705 51.2708 55.157C51.295 55.2435 51.3186 55.3365 51.3407 55.4372C51.4016 55.3396 51.4642 55.2469 51.5268 55.1608C51.5894 55.0743 51.6528 54.9951 51.7168 54.9224L53.4925 52.8685H54.4632L51.6126 56.19L50.9418 58.9932H49.9798Z" fill="#696A6A"/>
<path d="M59.2387 55.9683C59.2391 55.9209 59.2529 55.7901 59.2799 55.5753C59.3007 55.3968 59.3169 55.2487 59.3287 55.1314C59.2709 55.2712 59.2028 55.411 59.1246 55.55C59.046 55.6894 58.9561 55.8316 58.8534 55.9769L56.5103 59.2402L55.7457 55.9102C55.7132 55.7732 55.6883 55.6407 55.6717 55.5127C55.6551 55.3843 55.6437 55.2574 55.6381 55.1314C55.6049 55.2601 55.5627 55.3944 55.5112 55.5355C55.4596 55.6763 55.398 55.8237 55.3257 55.9769L53.9634 58.9932H53.0709L56.0097 52.6088L56.8462 56.4747C56.8583 56.536 56.8759 56.638 56.8974 56.7802C56.9188 56.9224 56.9441 57.0981 56.9735 57.3071C57.0724 57.1313 57.215 56.9086 57.4025 56.638C57.4523 56.5654 57.4903 56.5097 57.5159 56.4706L60.1614 52.6088L60.0766 58.9932H59.1751L59.2387 55.9683Z" fill="#696A6A"/>
<path d="M60.8514 58.9932L62.3178 52.8685H65.6493L65.4469 53.7133H63.0855L62.7181 55.2486H65.0792L64.8702 56.1232H62.5088L62.0352 58.102H64.3963L64.1825 58.9932H60.8514Z" fill="#696A6A"/>
<path d="M65.2965 58.9933L66.8207 52.6262L69.717 56.3703C69.7945 56.4758 69.8727 56.589 69.9498 56.709C70.0269 56.8291 70.1058 56.964 70.1868 57.1148L71.2035 52.8687H72.1009L70.5773 59.231L67.6202 55.42C67.541 55.3173 67.4673 55.2086 67.3984 55.0941C67.3289 54.9796 67.2663 54.8596 67.2089 54.7343L66.1894 58.9933H65.2965Z" fill="#696A6A"/>
<path d="M75.1972 53.7133L73.9334 58.9932H72.9631L74.2265 53.7133H72.6403L72.8427 52.8685H76.9774L76.7754 53.7133H75.1972Z" fill="#696A6A"/>
<path d="M76.2043 57.7673L77.067 57.3995C77.0757 57.6725 77.1601 57.8811 77.3213 58.0247C77.4825 58.1686 77.7153 58.2402 78.0205 58.2402C78.3083 58.2402 78.5574 58.1578 78.7663 57.9932C78.9756 57.8289 79.1137 57.6085 79.1797 57.3324C79.2659 56.9723 79.051 56.6516 78.5373 56.3703C78.4654 56.3285 78.41 56.2977 78.372 56.278C77.7925 55.949 77.4251 55.6511 77.2701 55.3847C77.1155 55.1184 77.0836 54.7928 77.1757 54.4081C77.295 53.9089 77.5572 53.5045 77.9617 53.1949C78.3661 52.8853 78.8359 52.7303 79.3717 52.7303C79.8121 52.7303 80.1598 52.8175 80.4141 52.9918C80.6687 53.1665 80.814 53.4167 80.85 53.7429L79.9958 54.1445C79.9218 53.9522 79.8242 53.8114 79.7032 53.7218C79.5817 53.6325 79.4281 53.5879 79.2437 53.5879C78.9829 53.5879 78.7587 53.6581 78.5716 53.7969C78.3854 53.9366 78.2633 54.1234 78.2069 54.358C78.1191 54.7261 78.374 55.0689 78.9722 55.3868C79.0182 55.4117 79.0542 55.4318 79.0801 55.4456C79.6035 55.7241 79.9439 55.9971 80.1 56.2634C80.2563 56.5302 80.2871 56.8626 80.1913 57.2612C80.0526 57.8417 79.7644 58.3025 79.3264 58.6439C78.8884 58.9854 78.3661 59.1562 77.7603 59.1562C77.2514 59.1562 76.8636 59.0366 76.5966 58.7965C76.3288 58.5567 76.198 58.2139 76.2043 57.7673Z" fill="#696A6A"/>
<path d="M83.3738 58.9932L84.84 52.8685H85.8103L84.3442 58.9932H83.3738Z" fill="#696A6A"/>
<path d="M85.7391 58.9933L87.2633 52.6262L90.1596 56.3703C90.2371 56.4758 90.3152 56.589 90.3924 56.709C90.4695 56.8291 90.5484 56.964 90.6294 57.1148L91.6461 52.8687H92.5431L91.0199 59.231L88.0628 55.42C87.9836 55.3173 87.9095 55.2086 87.8407 55.0941C87.7715 54.9796 87.7085 54.8596 87.6511 54.7343L86.632 58.9933H85.7391Z" fill="#696A6A"/>
<path d="M95.6398 53.7133L94.3757 58.9932H93.4057L94.669 53.7133H93.0829L93.2853 52.8685H97.42L97.218 53.7133H95.6398Z" fill="#696A6A"/>
<path d="M96.6962 58.9932L98.1623 52.8685H101.494L101.292 53.7133H98.9306L98.5629 55.2486H100.924L100.715 56.1232H98.3536L97.88 58.102H100.241L100.028 58.9932H96.6962Z" fill="#696A6A"/>
<path d="M102.953 55.4787H103.129C103.642 55.4787 103.998 55.4178 104.196 55.295C104.394 55.1722 104.531 54.9549 104.605 54.6422C104.686 54.3049 104.653 54.0669 104.504 53.9292C104.357 53.7905 104.039 53.7216 103.549 53.7216H103.374L102.953 55.4787ZM102.707 56.2526L102.05 58.9932H101.141L102.608 52.8685H103.961C104.358 52.8685 104.66 52.8948 104.866 52.9481C105.072 53.001 105.238 53.0886 105.363 53.2117C105.513 53.3591 105.61 53.5507 105.655 53.7849C105.699 54.0188 105.687 54.2755 105.621 54.554C105.504 55.0449 105.296 55.4292 104.999 55.707C104.701 55.9841 104.32 56.1512 103.855 56.2066L105.244 58.9932H104.146L102.817 56.2526H102.707Z" fill="#696A6A"/>
<path d="M105.819 58.9932L107.285 52.8685H110.616L110.414 53.7133H108.053L107.687 55.2403H110.049L109.839 56.1145H107.478L106.789 58.9932H105.819Z" fill="#696A6A"/>
<path d="M111.741 56.5878H113.405L113.127 55.1902C113.114 55.1013 113.102 54.9989 113.091 54.883C113.081 54.7671 113.074 54.638 113.07 54.4959C113.005 54.6297 112.94 54.7546 112.876 54.8705C112.811 54.9861 112.748 55.0926 112.687 55.1902L111.741 56.5878ZM113.849 58.9932L113.549 57.416H111.184L110.113 58.9932H109.094L113.509 52.626L114.872 58.9932H113.849Z" fill="#696A6A"/>
<path d="M121.189 54.358C120.972 54.1182 120.725 53.9383 120.448 53.8183C120.171 53.6989 119.864 53.6384 119.526 53.6384C118.874 53.6384 118.292 53.8532 117.78 54.2826C117.268 54.7122 116.93 55.2685 116.767 55.9521C116.608 56.6132 116.677 57.1581 116.973 57.5874C117.268 58.017 117.719 58.2322 118.325 58.2322C118.679 58.2322 119.03 58.1679 119.38 58.0395C119.731 57.9112 120.084 57.7175 120.439 57.4577L120.17 58.5834C119.863 58.7757 119.544 58.9196 119.214 59.0141C118.884 59.1089 118.54 59.1562 118.181 59.1562C117.725 59.1562 117.321 59.0798 116.97 58.9262C116.619 58.7729 116.333 58.5474 116.111 58.2485C115.89 57.9558 115.749 57.6109 115.688 57.2131C115.627 56.8159 115.65 56.3925 115.757 55.9431C115.865 55.4944 116.044 55.0727 116.295 54.678C116.545 54.2833 116.855 53.9366 117.222 53.6384C117.591 53.3371 117.986 53.1095 118.406 52.9541C118.826 52.7998 119.259 52.722 119.705 52.722C120.056 52.722 120.378 52.7746 120.671 52.8794C120.964 52.9835 121.234 53.1416 121.483 53.3544L121.189 54.358Z" fill="#696A6A"/>
<path d="M121.283 58.9932L122.749 52.8685H126.081L125.878 53.7133H123.517L123.15 55.2486H125.511L125.302 56.1232H122.94L122.467 58.102H124.828L124.614 58.9932H121.283Z" fill="#696A6A"/>
<path d="M103.583 47.5317H96.9121L106.19 14.0251H112.861L103.583 47.5317Z" fill="#66686C"/>
<path d="M100.12 15.0842C99.6573 14.4466 98.9439 14.1249 97.9749 14.1249H61.2922L59.4753 20.6875H66.1499V20.6837H92.8463L90.9041 27.6967H64.2071L64.2095 27.6821H57.5376L52.0001 47.6733H58.6754L62.3916 34.2555H92.401C93.3382 34.2555 94.2204 33.9358 95.0499 33.2965C95.8778 32.6565 96.4227 31.8674 96.6838 30.925L100.4 17.5044C100.671 16.5306 100.577 15.7224 100.12 15.0842Z" fill="#66686C"/>
<path d="M48.1129 45.4401C47.7444 46.7668 46.5364 47.6846 45.1592 47.6846H10.7406C9.80279 47.6846 9.10571 47.3649 8.64733 46.7263C8.18929 46.087 8.09105 45.2962 8.35293 44.3541L16.7511 14.123H23.4282L15.9271 41.124H42.6362L50.1373 14.123H56.8131L48.1129 45.4401Z" fill="#66686C"/>
<path d="M124.382 14.0873L132.828 30.884L115.074 47.6763L124.382 14.0873Z" fill="#27803B"/>
<path d="M118.462 14.0873L126.901 30.884L109.14 47.6763L118.462 14.0873Z" fill="#E9661C"/>
</svg>
