<svg width="128" height="98" viewBox="0 0 128 98" fill="none" xmlns="http://www.w3.org/2000/svg">
<g clip-path="url(#clip0_3073_32638)">
<path d="M107.7 8.89031C99.3467 5.06599 90.5282 2.35289 81.4699 0.820313C80.2304 3.03619 79.1088 5.31604 78.1099 7.65031C68.461 6.19633 58.6488 6.19633 48.9999 7.65031C48.0005 5.31628 46.8789 3.03646 45.6399 0.820312C36.5758 2.36583 27.7515 5.08537 19.3899 8.91031C2.7899 33.4703 -1.7101 57.4203 0.539904 81.0303C10.2613 88.2129 21.1423 93.6754 32.7099 97.1803C35.3146 93.6771 37.6194 89.9606 39.5999 86.0703C35.8382 84.6654 32.2076 82.932 28.7499 80.8903C29.6599 80.2303 30.5499 79.5503 31.4099 78.8903C41.4709 83.6217 52.4519 86.0749 63.5699 86.0749C74.6879 86.0749 85.6689 83.6217 95.7299 78.8903C96.5999 79.6003 97.4899 80.2803 98.3899 80.8903C94.9256 82.9353 91.2882 84.672 87.5199 86.0803C89.498 89.9688 91.8029 93.6822 94.4099 97.1803C105.987 93.6894 116.877 88.2295 126.6 81.0403C129.24 53.6603 122.09 29.9303 107.7 8.89031ZM42.4499 66.5103C36.1799 66.5103 30.9999 60.8203 30.9999 53.8203C30.9999 46.8203 35.9999 41.0803 42.4299 41.0803C48.8599 41.0803 53.9999 46.8203 53.8899 53.8203C53.7799 60.8203 48.8399 66.5103 42.4499 66.5103ZM84.6899 66.5103C78.4099 66.5103 73.2499 60.8203 73.2499 53.8203C73.2499 46.8203 78.2499 41.0803 84.6899 41.0803C91.1299 41.0803 96.2299 46.8203 96.1199 53.8203C96.0099 60.8203 91.0799 66.5103 84.6899 66.5103Z" fill="black"/>
</g>
<defs>
<clipPath id="clip0_3073_32638">
<rect width="127.14" height="96.36" fill="white" transform="translate(0 0.820312)"/>
</clipPath>
</defs>
</svg>
