<svg width="904" height="168" viewBox="0 0 904 168" fill="none" xmlns="http://www.w3.org/2000/svg">
<mask id="mask0_3465_12156" style="mask-type:luminance" maskUnits="userSpaceOnUse" x="0" y="0" width="904" height="90">
<path d="M903.246 0H0V90H903.246V0Z" fill="white"/>
</mask>
<g mask="url(#mask0_3465_12156)">
<path fill-rule="evenodd" clip-rule="evenodd" d="M35.5132 19.5509C38.4622 18.4431 41.6609 17.8502 45 17.8502C59.9948 17.8502 72.1498 30.0052 72.1498 45C72.1498 56.406 65.1127 66.1737 55.1422 70.1994C52.0059 71.4632 48.5888 72.1498 45 72.1498C41.4112 72.1498 37.9941 71.4476 34.8578 70.1994C24.8873 66.1893 17.8502 56.4216 17.8502 45C17.8502 41.4424 18.5368 38.0409 19.785 34.9202L17.8502 32.9542L6.61581 21.5014C2.41852 28.3356 0 36.3869 0 45C0 54.3308 2.83981 63.0062 7.70804 70.1994C10.4854 74.2874 13.9026 77.9074 17.8502 80.8876C22.0007 84.0395 26.7285 86.4892 31.8464 88.0496C36.0125 89.3134 40.4282 90 45.0156 90C49.603 90 54.0187 89.3134 58.1848 88.0496C63.2871 86.4892 68.0149 84.0395 72.181 80.8876C76.113 77.9074 79.5458 74.2874 82.3076 70.1994C87.1758 63.0062 90.0156 54.3464 90.0156 45C90.0156 34.7954 86.6297 25.3866 80.9033 17.8502C78.4067 14.5579 75.4733 11.6089 72.1654 9.11232C64.5978 3.3859 55.2046 -2.16709e-05 45 -2.16709e-05C36.7302 -2.16709e-05 28.991 2.23125 22.344 6.11648L33.8436 17.8502L35.5132 19.5509ZM894.227 52.8797V44.017C894.227 34.2181 891.028 25.1525 885.598 17.8346C882.992 14.3238 879.887 11.2188 876.377 8.61302C869.09 3.21426 860.055 0.0155817 850.288 -0.015625H786.08V17.8346H850.194C864.643 17.8346 876.377 29.5527 876.377 44.017V52.8797H894.227ZM903.246 88.034H868.169L864.502 85.6623L840.536 70.1838L819.471 56.5776V88.034H801.621V29.5527H812.824L819.471 33.8436L824.886 37.3544L866.656 64.3793L875.643 70.1994L876.361 70.6675L882.072 74.3654L894.196 82.2139L903.214 88.0496L903.246 88.034ZM742.516 70.1838H698.109V88.034H760.366V70.1838H742.516ZM760.366 51.1789V-2.16709e-05H704.272V17.8502H742.516V33.3599H675.343V51.2101H760.366V51.1789ZM630.531 88.034V70.1838H571.253V88.034H630.531ZM571.253 33.3443V51.1945H656.619V33.3443H589.088V17.8346H626.489V-2.16709e-05H571.238V33.3443H571.253ZM467.304 43.9546H449.454V88.034H467.304V61.8048H554.355V43.9546C554.355 34.1713 551.141 25.1369 545.726 17.8346C543.121 14.3238 540.016 11.2188 536.505 8.61302C529.218 3.21426 520.184 0.0155817 510.416 -0.015625H410.57V17.8346H510.322C524.756 17.8346 536.458 29.5215 536.505 43.939H484.156H467.289L467.304 43.9546ZM428.436 70.1838V88.034H410.586L390.005 70.1838L335.472 22.8901V88.034H317.621V3.94762H339.841L355.881 17.8502L410.586 65.2843V35.9501H428.436V70.1838ZM286.914 88.034V70.1838H243.88V51.1789H306.356V33.3287H243.88V17.819H282.171V-2.16709e-05H226.03V88.034H286.914ZM207.181 68.3113V50.4611H207.134C207.165 49.7434 207.181 49.0256 207.181 48.3079V48.0738C207.15 36.6054 203.124 26.0887 196.415 17.819C194.308 15.2288 191.937 12.8415 189.331 10.7351C181.03 4.05684 170.498 0.0155817 159.029 -2.16709e-05H102.217V17.8502H158.936C175.709 17.8502 189.3 31.4407 189.3 48.2143V50.4767H102.202V88.034H120.052V68.3113H207.15H207.181Z" fill="black"/>
<path fill-rule="evenodd" clip-rule="evenodd" d="M35.5132 19.5509C38.4622 18.4431 41.6609 17.8502 45 17.8502C59.9948 17.8502 72.1498 30.0052 72.1498 45C72.1498 56.406 65.1127 66.1737 55.1422 70.1994C52.0059 71.4632 48.5888 72.1498 45 72.1498C41.4112 72.1498 37.9941 71.4476 34.8578 70.1994C24.8873 66.1893 17.8502 56.4216 17.8502 45C17.8502 41.4424 18.5368 38.0409 19.785 34.9202L17.8502 32.9542L6.61581 21.5014C2.41852 28.3356 0 36.3869 0 45C0 54.3308 2.83981 63.0062 7.70804 70.1994C10.4854 74.2874 13.9026 77.9074 17.8502 80.8876C22.0007 84.0395 26.7285 86.4892 31.8464 88.0496C36.0125 89.3134 40.4282 90 45.0156 90C49.603 90 54.0187 89.3134 58.1848 88.0496C63.2871 86.4892 68.0149 84.0395 72.181 80.8876C76.113 77.9074 79.5458 74.2874 82.3076 70.1994C87.1758 63.0062 90.0156 54.3464 90.0156 45C90.0156 34.7954 86.6297 25.3866 80.9033 17.8502C78.4067 14.5579 75.4733 11.6089 72.1654 9.11232C64.5978 3.3859 55.2046 -2.16709e-05 45 -2.16709e-05C36.7302 -2.16709e-05 28.991 2.23125 22.344 6.11648L33.8436 17.8502L35.5132 19.5509ZM894.227 52.8797V44.017C894.227 34.2181 891.028 25.1525 885.598 17.8346C882.992 14.3238 879.887 11.2188 876.377 8.61302C869.09 3.21426 860.055 0.0155817 850.288 -0.015625H786.08V17.8346H850.194C864.643 17.8346 876.377 29.5527 876.377 44.017V52.8797H894.227ZM903.246 88.034H868.169L864.502 85.6623L840.536 70.1838L819.471 56.5776V88.034H801.621V29.5527H812.824L819.471 33.8436L824.886 37.3544L866.656 64.3793L875.643 70.1994L876.361 70.6675L882.072 74.3654L894.196 82.2139L903.214 88.0496L903.246 88.034ZM742.516 70.1838H698.109V88.034H760.366V70.1838H742.516ZM760.366 51.1789V-2.16709e-05H704.272V17.8502H742.516V33.3599H675.343V51.2101H760.366V51.1789ZM630.531 88.034V70.1838H571.253V88.034H630.531ZM571.253 33.3443V51.1945H656.619V33.3443H589.088V17.8346H626.489V-2.16709e-05H571.238V33.3443H571.253ZM467.304 43.9546H449.454V88.034H467.304V61.8048H554.355V43.9546C554.355 34.1713 551.141 25.1369 545.726 17.8346C543.121 14.3238 540.016 11.2188 536.505 8.61302C529.218 3.21426 520.184 0.0155817 510.416 -0.015625H410.57V17.8346H510.322C524.756 17.8346 536.458 29.5215 536.505 43.939H484.156H467.289L467.304 43.9546ZM428.436 70.1838V88.034H410.586L390.005 70.1838L335.472 22.8901V88.034H317.621V3.94762H339.841L355.881 17.8502L410.586 65.2843V35.9501H428.436V70.1838ZM286.914 88.034V70.1838H243.88V51.1789H306.356V33.3287H243.88V17.819H282.171V-2.16709e-05H226.03V88.034H286.914ZM207.181 68.3113V50.4611H207.134C207.165 49.7434 207.181 49.0256 207.181 48.3079V48.0738C207.15 36.6054 203.124 26.0887 196.415 17.819C194.308 15.2288 191.937 12.8415 189.331 10.7351C181.03 4.05684 170.498 0.0155817 159.029 -2.16709e-05H102.217V17.8502H158.936C175.709 17.8502 189.3 31.4407 189.3 48.2143V50.4767H102.202V88.034H120.052V68.3113H207.15H207.181Z" fill="black"/>
</g>
<rect x="689.299" y="106.535" width="213.947" height="52.465" rx="26.2325" fill="url(#paint0_linear_3465_12156)"/>
<path d="M761.106 142.268V123.405H768.586C769.861 123.405 770.904 123.663 771.716 124.178C772.537 124.685 773.144 125.335 773.537 126.13C773.939 126.925 774.14 127.745 774.14 128.592C774.14 129.632 773.891 130.514 773.393 131.238C772.904 131.963 772.236 132.452 771.389 132.705V132.051C772.576 132.321 773.476 132.884 774.087 133.74C774.707 134.596 775.017 135.57 775.017 136.661C775.017 137.779 774.803 138.757 774.375 139.595C773.947 140.434 773.31 141.089 772.463 141.56C771.625 142.032 770.585 142.268 769.345 142.268H761.106ZM764.302 139.294H768.952C769.503 139.294 769.996 139.185 770.433 138.967C770.869 138.74 771.21 138.425 771.454 138.024C771.708 137.613 771.834 137.128 771.834 136.57C771.834 136.063 771.725 135.609 771.507 135.207C771.288 134.806 770.97 134.487 770.551 134.251C770.131 134.007 769.629 133.884 769.044 133.884H764.302V139.294ZM764.302 130.937H768.546C769 130.937 769.407 130.85 769.765 130.675C770.123 130.501 770.406 130.243 770.616 129.902C770.826 129.562 770.93 129.143 770.93 128.645C770.93 127.99 770.721 127.444 770.302 127.008C769.882 126.571 769.297 126.353 768.546 126.353H764.302V130.937ZM780.515 142.268V123.405H792.697V126.366H783.672V131.016H791.125V133.976H783.672V139.307H792.697V142.268H780.515ZM803.253 142.268V126.366H797.149V123.405H812.514V126.366H806.41V142.268H803.253ZM815.669 142.268L821.616 123.405H826.24L832.186 142.268H828.938L823.541 125.344H824.248L818.917 142.268H815.669ZM818.983 138.181V135.234H828.885V138.181H818.983Z" fill="white"/>
<defs>
<linearGradient id="paint0_linear_3465_12156" x1="689.299" y1="132.768" x2="903.245" y2="132.768" gradientUnits="userSpaceOnUse">
<stop stop-color="#3C9AAA"/>
<stop offset="0.377812" stop-color="#3D9AAC"/>
<stop offset="0.987586" stop-color="#3574F4"/>
</linearGradient>
</defs>
</svg>
