<svg width="904" height="90" viewBox="0 0 904 90" fill="none" xmlns="http://www.w3.org/2000/svg">
<g clip-path="url(#clip0_3046_34094)">
<path fill-rule="evenodd" clip-rule="evenodd" d="M35.5132 19.5509C38.4622 18.4431 41.6609 17.8502 45 17.8502C59.9948 17.8502 72.1498 30.0052 72.1498 45C72.1498 56.406 65.1127 66.1737 55.1422 70.1994C52.0059 71.4632 48.5888 72.1498 45 72.1498C41.4112 72.1498 37.9941 71.4476 34.8578 70.1994C24.8873 66.1893 17.8502 56.4216 17.8502 45C17.8502 41.4424 18.5368 38.0409 19.785 34.9202L17.8502 32.9542L6.61581 21.5014C2.41852 28.3356 0 36.3869 0 45C0 54.3308 2.83981 63.0062 7.70804 70.1994C10.4854 74.2874 13.9026 77.9074 17.8502 80.8876C22.0007 84.0395 26.7285 86.4892 31.8464 88.0496C36.0125 89.3134 40.4282 90 45.0156 90C49.603 90 54.0187 89.3134 58.1848 88.0496C63.2871 86.4892 68.0149 84.0395 72.181 80.8876C76.113 77.9074 79.5458 74.2874 82.3076 70.1994C87.1758 63.0062 90.0156 54.3464 90.0156 45C90.0156 34.7954 86.6297 25.3866 80.9033 17.8502C78.4067 14.5579 75.4733 11.6089 72.1654 9.11232C64.5978 3.3859 55.2046 -2.16709e-05 45 -2.16709e-05C36.7302 -2.16709e-05 28.991 2.23125 22.344 6.11648L33.8436 17.8502L35.5132 19.5509ZM894.227 52.8797V44.017C894.227 34.2181 891.028 25.1525 885.598 17.8346C882.992 14.3238 879.887 11.2188 876.377 8.61302C869.09 3.21426 860.055 0.0155817 850.288 -0.015625H786.08V17.8346H850.194C864.643 17.8346 876.377 29.5527 876.377 44.017V52.8797H894.227ZM903.246 88.034H868.169L864.502 85.6623L840.536 70.1838L819.471 56.5776V88.034H801.621V29.5527H812.824L819.471 33.8436L824.886 37.3544L866.656 64.3793L875.643 70.1994L876.361 70.6675L882.072 74.3654L894.196 82.2139L903.214 88.0496L903.246 88.034ZM742.516 70.1838H698.109V88.034H760.366V70.1838H742.516ZM760.366 51.1789V-2.16709e-05H704.272V17.8502H742.516V33.3599H675.343V51.2101H760.366V51.1789ZM630.531 88.034V70.1838H571.253V88.034H630.531ZM571.253 33.3443V51.1945H656.619V33.3443H589.088V17.8346H626.489V-2.16709e-05H571.238V33.3443H571.253ZM467.304 43.9546H449.454V88.034H467.304V61.8048H554.355V43.9546C554.355 34.1713 551.141 25.1369 545.726 17.8346C543.121 14.3238 540.016 11.2188 536.505 8.61302C529.218 3.21426 520.184 0.0155817 510.416 -0.015625H410.57V17.8346H510.322C524.756 17.8346 536.458 29.5215 536.505 43.939H484.156H467.289L467.304 43.9546ZM428.436 70.1838V88.034H410.586L390.005 70.1838L335.472 22.8901V88.034H317.621V3.94762H339.841L355.881 17.8502L410.586 65.2843V35.9501H428.436V70.1838ZM286.914 88.034V70.1838H243.88V51.1789H306.356V33.3287H243.88V17.819H282.171V-2.16709e-05H226.03V88.034H286.914ZM207.181 68.3113V50.4611H207.134C207.165 49.7434 207.181 49.0256 207.181 48.3079V48.0738C207.15 36.6054 203.124 26.0887 196.415 17.819C194.308 15.2288 191.937 12.8415 189.331 10.7351C181.03 4.05684 170.498 0.0155817 159.029 -2.16709e-05H102.217V17.8502H158.936C175.709 17.8502 189.3 31.4407 189.3 48.2143V50.4767H102.202V88.034H120.052V68.3113H207.15H207.181Z" fill="black"/>
<path fill-rule="evenodd" clip-rule="evenodd" d="M35.5132 19.5509C38.4622 18.4431 41.6609 17.8502 45 17.8502C59.9948 17.8502 72.1498 30.0052 72.1498 45C72.1498 56.406 65.1127 66.1737 55.1422 70.1994C52.0059 71.4632 48.5888 72.1498 45 72.1498C41.4112 72.1498 37.9941 71.4476 34.8578 70.1994C24.8873 66.1893 17.8502 56.4216 17.8502 45C17.8502 41.4424 18.5368 38.0409 19.785 34.9202L17.8502 32.9542L6.61581 21.5014C2.41852 28.3356 0 36.3869 0 45C0 54.3308 2.83981 63.0062 7.70804 70.1994C10.4854 74.2874 13.9026 77.9074 17.8502 80.8876C22.0007 84.0395 26.7285 86.4892 31.8464 88.0496C36.0125 89.3134 40.4282 90 45.0156 90C49.603 90 54.0187 89.3134 58.1848 88.0496C63.2871 86.4892 68.0149 84.0395 72.181 80.8876C76.113 77.9074 79.5458 74.2874 82.3076 70.1994C87.1758 63.0062 90.0156 54.3464 90.0156 45C90.0156 34.7954 86.6297 25.3866 80.9033 17.8502C78.4067 14.5579 75.4733 11.6089 72.1654 9.11232C64.5978 3.3859 55.2046 -2.16709e-05 45 -2.16709e-05C36.7302 -2.16709e-05 28.991 2.23125 22.344 6.11648L33.8436 17.8502L35.5132 19.5509ZM894.227 52.8797V44.017C894.227 34.2181 891.028 25.1525 885.598 17.8346C882.992 14.3238 879.887 11.2188 876.377 8.61302C869.09 3.21426 860.055 0.0155817 850.288 -0.015625H786.08V17.8346H850.194C864.643 17.8346 876.377 29.5527 876.377 44.017V52.8797H894.227ZM903.246 88.034H868.169L864.502 85.6623L840.536 70.1838L819.471 56.5776V88.034H801.621V29.5527H812.824L819.471 33.8436L824.886 37.3544L866.656 64.3793L875.643 70.1994L876.361 70.6675L882.072 74.3654L894.196 82.2139L903.214 88.0496L903.246 88.034ZM742.516 70.1838H698.109V88.034H760.366V70.1838H742.516ZM760.366 51.1789V-2.16709e-05H704.272V17.8502H742.516V33.3599H675.343V51.2101H760.366V51.1789ZM630.531 88.034V70.1838H571.253V88.034H630.531ZM571.253 33.3443V51.1945H656.619V33.3443H589.088V17.8346H626.489V-2.16709e-05H571.238V33.3443H571.253ZM467.304 43.9546H449.454V88.034H467.304V61.8048H554.355V43.9546C554.355 34.1713 551.141 25.1369 545.726 17.8346C543.121 14.3238 540.016 11.2188 536.505 8.61302C529.218 3.21426 520.184 0.0155817 510.416 -0.015625H410.57V17.8346H510.322C524.756 17.8346 536.458 29.5215 536.505 43.939H484.156H467.289L467.304 43.9546ZM428.436 70.1838V88.034H410.586L390.005 70.1838L335.472 22.8901V88.034H317.621V3.94762H339.841L355.881 17.8502L410.586 65.2843V35.9501H428.436V70.1838ZM286.914 88.034V70.1838H243.88V51.1789H306.356V33.3287H243.88V17.819H282.171V-2.16709e-05H226.03V88.034H286.914ZM207.181 68.3113V50.4611H207.134C207.165 49.7434 207.181 49.0256 207.181 48.3079V48.0738C207.15 36.6054 203.124 26.0887 196.415 17.819C194.308 15.2288 191.937 12.8415 189.331 10.7351C181.03 4.05684 170.498 0.0155817 159.029 -2.16709e-05H102.217V17.8502H158.936C175.709 17.8502 189.3 31.4407 189.3 48.2143V50.4767H102.202V88.034H120.052V68.3113H207.15H207.181Z" fill="black"/>
</g>
<defs>
<clipPath id="clip0_3046_34094">
<rect width="903.246" height="90" fill="white"/>
</clipPath>
</defs>
</svg>
