<svg width="904" height="91" viewBox="0 0 904 91" fill="none" xmlns="http://www.w3.org/2000/svg">
<g clip-path="url(#clip0_3046_34097)">
<path fill-rule="evenodd" clip-rule="evenodd" d="M35.5132 20.1017C38.4622 18.9939 41.6609 18.401 45 18.401C59.9948 18.401 72.1498 30.556 72.1498 45.5508C72.1498 56.9568 65.1127 66.7245 55.1422 70.7501C52.0059 72.014 48.5888 72.7006 45 72.7006C41.4112 72.7006 37.9941 71.9984 34.8578 70.7501C24.8873 66.7401 17.8502 56.9724 17.8502 45.5508C17.8502 41.9932 18.5368 38.5917 19.785 35.471L17.8502 33.505L6.61581 22.0521C2.41852 28.8864 0 36.9377 0 45.5508C0 54.8816 2.83981 63.557 7.70804 70.7501C10.4854 74.8382 13.9026 78.4582 17.8502 81.4384C22.0007 84.5903 26.7285 87.04 31.8464 88.6003C36.0125 89.8642 40.4282 90.5508 45.0156 90.5508C49.603 90.5508 54.0187 89.8642 58.1848 88.6003C63.2871 87.04 68.0149 84.5903 72.181 81.4384C76.113 78.4582 79.5458 74.8382 82.3076 70.7501C87.1758 63.557 90.0156 54.8972 90.0156 45.5508C90.0156 35.3462 86.6297 25.9374 80.9033 18.401C78.4067 15.1087 75.4733 12.1596 72.1654 9.6631C64.5978 3.93668 55.2046 0.55076 45 0.55076C36.7302 0.55076 28.991 2.78204 22.344 6.66726L33.8436 18.401L35.5132 20.1017ZM894.227 53.4304V44.5678C894.227 34.7689 891.028 25.7033 885.598 18.3854C882.992 14.8746 879.887 11.7696 876.377 9.1638C869.09 3.76505 860.056 0.566363 850.288 0.535156H786.08V18.3854H850.194C864.643 18.3854 876.377 30.1035 876.377 44.5678V53.4304H894.227ZM903.246 88.5847H868.169L864.502 86.213L840.536 70.7345L819.471 57.1284V88.5847H801.621V30.1035H812.824L819.471 34.3944L824.886 37.9051L866.656 64.9301L875.643 70.7501L876.361 71.2182L882.072 74.9162L894.196 82.7647L903.214 88.6003L903.246 88.5847ZM742.516 70.7345H698.109V88.5847H760.366V70.7345H742.516ZM760.366 51.7297V0.55076H704.272V18.401H742.516V33.9107H675.343V51.7609H760.366V51.7297ZM630.531 88.5847V70.7345H571.253V88.5847H630.531ZM571.253 33.8951V51.7453H656.619V33.8951H589.088V18.3854H626.489V0.55076H571.238V33.8951H571.253ZM467.304 44.5053H449.454V88.5847H467.304V62.3555H554.355V44.5053C554.355 34.7221 551.141 25.6877 545.726 18.3854C543.121 14.8746 540.016 11.7696 536.505 9.1638C529.218 3.76505 520.184 0.566363 510.416 0.535156H410.57V18.3854H510.322C524.756 18.3854 536.458 30.0723 536.505 44.4897H484.156H467.289L467.304 44.5053ZM428.436 70.7345V88.5847H410.586L390.005 70.7345L335.472 23.4408V88.5847H317.621V4.4984H339.841L355.881 18.401L410.586 65.8351V36.5008H428.436V70.7345ZM286.914 88.5847V70.7345H243.88V51.7297H306.356V33.8795H243.88V18.3698H282.171V0.55076H226.03V88.5847H286.914ZM207.181 68.8621V51.0119H207.134C207.165 50.2942 207.181 49.5764 207.181 48.8587V48.6246C207.15 37.1562 203.124 26.6395 196.415 18.3698C194.308 15.7796 191.937 13.3923 189.331 11.2859C181.03 4.60763 170.498 0.566363 159.029 0.55076H102.217V18.401H158.936C175.709 18.401 189.3 31.9915 189.3 48.765V51.0275H102.202V88.5847H120.052V68.8621H207.15H207.181Z" fill="white"/>
<path fill-rule="evenodd" clip-rule="evenodd" d="M35.5132 20.1017C38.4622 18.9939 41.6609 18.401 45 18.401C59.9948 18.401 72.1498 30.556 72.1498 45.5508C72.1498 56.9568 65.1127 66.7245 55.1422 70.7501C52.0059 72.014 48.5888 72.7006 45 72.7006C41.4112 72.7006 37.9941 71.9984 34.8578 70.7501C24.8873 66.7401 17.8502 56.9724 17.8502 45.5508C17.8502 41.9932 18.5368 38.5917 19.785 35.471L17.8502 33.505L6.61581 22.0521C2.41852 28.8864 0 36.9377 0 45.5508C0 54.8816 2.83981 63.557 7.70804 70.7501C10.4854 74.8382 13.9026 78.4582 17.8502 81.4384C22.0007 84.5903 26.7285 87.04 31.8464 88.6003C36.0125 89.8642 40.4282 90.5508 45.0156 90.5508C49.603 90.5508 54.0187 89.8642 58.1848 88.6003C63.2871 87.04 68.0149 84.5903 72.181 81.4384C76.113 78.4582 79.5458 74.8382 82.3076 70.7501C87.1758 63.557 90.0156 54.8972 90.0156 45.5508C90.0156 35.3462 86.6297 25.9374 80.9033 18.401C78.4067 15.1087 75.4733 12.1596 72.1654 9.6631C64.5978 3.93668 55.2046 0.55076 45 0.55076C36.7302 0.55076 28.991 2.78204 22.344 6.66726L33.8436 18.401L35.5132 20.1017ZM894.227 53.4304V44.5678C894.227 34.7689 891.028 25.7033 885.598 18.3854C882.992 14.8746 879.887 11.7696 876.377 9.1638C869.09 3.76505 860.056 0.566363 850.288 0.535156H786.08V18.3854H850.194C864.643 18.3854 876.377 30.1035 876.377 44.5678V53.4304H894.227ZM903.246 88.5847H868.169L864.502 86.213L840.536 70.7345L819.471 57.1284V88.5847H801.621V30.1035H812.824L819.471 34.3944L824.886 37.9051L866.656 64.9301L875.643 70.7501L876.361 71.2182L882.072 74.9162L894.196 82.7647L903.214 88.6003L903.246 88.5847ZM742.516 70.7345H698.109V88.5847H760.366V70.7345H742.516ZM760.366 51.7297V0.55076H704.272V18.401H742.516V33.9107H675.343V51.7609H760.366V51.7297ZM630.531 88.5847V70.7345H571.253V88.5847H630.531ZM571.253 33.8951V51.7453H656.619V33.8951H589.088V18.3854H626.489V0.55076H571.238V33.8951H571.253ZM467.304 44.5053H449.454V88.5847H467.304V62.3555H554.355V44.5053C554.355 34.7221 551.141 25.6877 545.726 18.3854C543.121 14.8746 540.016 11.7696 536.505 9.1638C529.218 3.76505 520.184 0.566363 510.416 0.535156H410.57V18.3854H510.322C524.756 18.3854 536.458 30.0723 536.505 44.4897H484.156H467.289L467.304 44.5053ZM428.436 70.7345V88.5847H410.586L390.005 70.7345L335.472 23.4408V88.5847H317.621V4.4984H339.841L355.881 18.401L410.586 65.8351V36.5008H428.436V70.7345ZM286.914 88.5847V70.7345H243.88V51.7297H306.356V33.8795H243.88V18.3698H282.171V0.55076H226.03V88.5847H286.914ZM207.181 68.8621V51.0119H207.134C207.165 50.2942 207.181 49.5764 207.181 48.8587V48.6246C207.15 37.1562 203.124 26.6395 196.415 18.3698C194.308 15.7796 191.937 13.3923 189.331 11.2859C181.03 4.60763 170.498 0.566363 159.029 0.55076H102.217V18.401H158.936C175.709 18.401 189.3 31.9915 189.3 48.765V51.0275H102.202V88.5847H120.052V68.8621H207.15H207.181Z" fill="white"/>
</g>
<defs>
<clipPath id="clip0_3046_34097">
<rect width="903.246" height="90" fill="white" transform="translate(0 0.550781)"/>
</clipPath>
</defs>
</svg>
