<svg width="407" height="90" viewBox="0 0 407 90" fill="none" xmlns="http://www.w3.org/2000/svg">
<path d="M27.6224 67.309C23.234 67.309 19.2165 66.4437 15.5698 64.7131C11.9541 62.9515 8.89457 60.5256 6.39134 57.4352C3.91902 54.3447 2.12658 50.7753 1.01404 46.7269C-0.0676026 42.6476 -0.283931 38.2901 0.365054 33.6545C1.01404 29.0189 2.45108 24.6769 4.67617 20.6284C6.90126 16.5491 9.69807 12.9642 13.0666 9.87384C16.4661 6.78344 20.2209 4.37292 24.3311 2.6423C28.4414 0.880765 32.6907 0 37.079 0C41.4983 0 45.5159 0.880765 49.1316 2.6423C52.7474 4.37292 55.7914 6.78344 58.2638 9.87384C60.767 12.9642 62.5594 16.5491 63.6411 20.6284C64.7536 24.6769 64.9854 29.0189 64.3364 33.6545C63.6874 38.2901 62.2504 42.6476 60.0253 46.7269C57.8002 50.7753 54.9879 54.3447 51.5885 57.4352C48.22 60.5256 44.4806 62.9515 40.3703 64.7131C36.291 66.4437 32.0417 67.309 27.6224 67.309ZM28.3178 62.3025C32.0571 62.3025 35.6575 61.5454 39.1187 60.0311C42.6109 58.5168 45.7785 56.4462 48.6217 53.8194C51.4649 51.1616 53.8136 48.1021 55.6678 44.6409C57.553 41.1796 58.7737 37.5175 59.33 33.6545C59.8862 29.7297 59.7008 26.0367 58.7737 22.5754C57.8775 19.1141 56.3786 16.0701 54.2771 13.4433C52.1757 10.8164 49.5952 8.7613 46.5357 7.2779C43.5071 5.76361 40.1231 5.00645 36.3837 5.00645C32.6443 5.00645 29.0285 5.76361 25.5364 7.2779C22.0751 8.7922 18.9229 10.8782 16.0798 13.536C13.2366 16.1628 10.8724 19.2069 8.98728 22.6681C7.13304 26.1294 5.92778 29.7915 5.37151 33.6545C4.81524 37.5793 4.98521 41.2723 5.88142 44.7336C6.80855 48.1948 8.32284 51.2543 10.4243 53.9121C12.5258 56.5389 15.0908 58.5941 18.1194 60.0774C21.1789 61.5608 24.5784 62.3025 28.3178 62.3025Z" fill="white"/>
<path d="M70.7364 89.2818H65.73L75.5111 19.7477H80.5176L79.1732 29.297C81.2747 26.083 83.9325 23.4871 87.1465 21.5092C90.3914 19.5314 94.069 18.5424 98.1792 18.5424C101.548 18.5424 104.607 19.176 107.358 20.443C110.139 21.7101 112.488 23.4716 114.404 25.7276C116.32 27.9527 117.695 30.5332 118.53 33.4691C119.395 36.405 119.596 39.5572 119.132 42.9257C118.669 46.2942 117.587 49.4619 115.887 52.4287C114.218 55.3955 112.101 58.0069 109.536 60.2629C107.002 62.488 104.175 64.234 101.053 65.5011C97.932 66.7682 94.6871 67.4017 91.3185 67.4017C87.2083 67.4017 83.8088 66.4128 81.1202 64.4349C78.4315 62.4571 76.5 59.8611 75.3257 56.6471L70.7364 89.2818ZM97.4375 23.4562C93.9145 23.4562 90.7468 24.3369 87.9345 26.0985C85.1532 27.8291 82.8663 30.1623 81.0738 33.0982C79.2814 36.0341 78.138 39.3099 77.6435 42.9257C77.149 46.4797 77.3654 49.74 78.2925 52.7068C79.2505 55.6736 80.873 58.0532 83.1599 59.8457C85.4468 61.6072 88.3672 62.488 91.9212 62.488C95.4133 62.488 98.7509 61.6227 101.934 59.892C105.117 58.1614 107.806 55.8281 110 52.8923C112.194 49.9255 113.554 46.6033 114.079 42.9257C114.574 39.3717 114.157 36.1268 112.828 33.1909C111.499 30.2241 109.49 27.86 106.801 26.0985C104.113 24.3369 100.991 23.4562 97.4375 23.4562Z" fill="white"/>
<path d="M143.556 67.309C139.291 67.309 135.552 66.2119 132.338 64.0177C129.155 61.8235 126.775 58.8876 125.199 55.2101C123.654 51.5016 123.19 47.4068 123.808 42.9257C124.272 39.5263 125.307 36.3586 126.914 33.4227C128.552 30.4559 130.592 27.86 133.033 25.6349C135.475 23.3789 138.179 21.6174 141.145 20.3503C144.143 19.0832 147.234 18.4497 150.417 18.4497C153.785 18.4497 156.798 19.1141 159.456 20.443C162.145 21.741 164.354 23.5798 166.085 25.9594C167.816 28.339 169.005 31.1513 169.654 34.3962C170.334 37.6102 170.35 41.1333 169.701 44.9654H128.768C128.645 48.2721 129.217 51.2389 130.484 53.8657C131.782 56.4617 133.605 58.5168 135.954 60.0311C138.333 61.5145 141.099 62.2716 144.251 62.3025C147.682 62.3025 150.911 61.4063 153.94 59.6139C156.968 57.7905 159.518 55.3028 161.589 52.1506L166.456 53.3095C164.014 57.4197 160.739 60.7882 156.628 63.4151C152.549 66.011 148.192 67.309 143.556 67.309ZM129.232 40.7006H165.297C165.544 37.5175 165.019 34.5971 163.721 31.9393C162.454 29.2507 160.615 27.1028 158.205 25.4958C155.794 23.8888 152.997 23.0853 149.814 23.0853C146.6 23.0853 143.571 23.8734 140.728 25.4495C137.885 27.0256 135.444 29.158 133.404 31.8466C131.395 34.5044 130.005 37.4557 129.232 40.7006Z" fill="white"/>
<path d="M218.622 37.5948L214.635 66.1037H209.629L213.523 38.3828C213.893 35.6324 213.569 33.1291 212.549 30.8731C211.529 28.6171 209.984 26.8247 207.913 25.4958C205.874 24.167 203.479 23.5025 200.728 23.5025C197.978 23.5025 195.382 24.167 192.94 25.4958C190.499 26.8247 188.459 28.6171 186.821 30.8731C185.183 33.1291 184.164 35.6324 183.762 38.3828L179.868 66.1037H174.862L181.351 19.7477H186.358L185.384 26.8402C187.424 24.2751 189.912 22.2355 192.848 20.7212C195.814 19.2069 198.92 18.4497 202.165 18.4497C205.719 18.4497 208.81 19.315 211.436 21.0457C214.094 22.7454 216.072 25.0477 217.37 27.9527C218.699 30.8577 219.116 34.0717 218.622 37.5948Z" fill="white"/>
<path d="M228.477 66.1037V1.20526H251.655C255.178 1.20526 258.361 2.08602 261.204 3.84756C264.078 5.60909 266.35 7.97325 268.018 10.94C269.687 13.9068 270.522 17.1672 270.522 20.7212C270.522 24.3678 269.656 27.6746 267.926 30.6414C266.226 33.5772 263.939 35.9259 261.065 37.6875C258.191 39.4181 255.054 40.2834 251.655 40.2834H239.788V66.1037H228.477ZM239.788 28.9725H250.449C252.056 28.9725 253.524 28.5708 254.853 27.7673C256.182 26.9638 257.233 25.8821 258.005 24.5224C258.809 23.1626 259.211 21.6483 259.211 19.9795C259.211 18.2797 258.809 16.75 258.005 15.3902C257.233 14.0304 256.182 12.9488 254.853 12.1453C253.524 11.3418 252.056 10.94 250.449 10.94H239.788V28.9725Z" fill="white"/>
<path d="M296.225 67.309C291.961 67.309 288.067 66.2119 284.544 64.0177C281.051 61.8235 278.255 58.8722 276.153 55.1637C274.083 51.4552 273.047 47.3604 273.047 42.8794C273.047 39.5108 273.65 36.3586 274.855 33.4227C276.06 30.4559 277.714 27.86 279.815 25.6349C281.948 23.3789 284.42 21.6174 287.232 20.3503C290.045 19.0832 293.042 18.4497 296.225 18.4497C299.841 18.4497 303.148 19.2223 306.146 20.7675C309.174 22.2818 311.739 24.3678 313.841 27.0256C315.942 29.6833 317.472 32.7119 318.43 36.1114C319.388 39.5108 319.604 43.0648 319.079 46.7733H285.193C285.625 48.5039 286.336 50.0645 287.325 51.4552C288.314 52.815 289.566 53.9121 291.08 54.7465C292.594 55.55 294.309 55.9672 296.225 55.9981C298.203 56.029 299.996 55.5655 301.603 54.6074C303.241 53.6185 304.6 52.2896 305.682 50.6208L317.225 53.3095C315.339 57.4197 312.527 60.7882 308.788 63.4151C305.048 66.011 300.861 67.309 296.225 67.309ZM284.822 38.2901H307.629C307.289 36.4359 306.563 34.767 305.45 33.2836C304.369 31.7694 303.024 30.5641 301.417 29.6679C299.81 28.7717 298.08 28.3235 296.225 28.3235C294.371 28.3235 292.656 28.7717 291.08 29.6679C289.504 30.5332 288.159 31.723 287.047 33.2373C285.965 34.7207 285.223 36.405 284.822 38.2901Z" fill="white"/>
<path d="M347.199 67.309C342.934 67.309 339.04 66.2119 335.517 64.0177C332.025 61.8235 329.228 58.8722 327.127 55.1637C325.056 51.4552 324.021 47.3604 324.021 42.8794C324.021 39.5108 324.623 36.3586 325.829 33.4227C327.034 30.4559 328.687 27.86 330.789 25.6349C332.921 23.3789 335.394 21.6174 338.206 20.3503C341.018 19.0832 344.016 18.4497 347.199 18.4497C350.815 18.4497 354.121 19.2223 357.119 20.7675C360.148 22.2818 362.713 24.3678 364.814 27.0256C366.916 29.6833 368.445 32.7119 369.403 36.1114C370.361 39.5108 370.578 43.0648 370.052 46.7733H336.166C336.599 48.5039 337.31 50.0645 338.299 51.4552C339.287 52.815 340.539 53.9121 342.053 54.7465C343.568 55.55 345.283 55.9672 347.199 55.9981C349.177 56.029 350.969 55.5655 352.576 54.6074C354.214 53.6185 355.574 52.2896 356.655 50.6208L368.198 53.3095C366.313 57.4197 363.501 60.7882 359.761 63.4151C356.022 66.011 351.834 67.309 347.199 67.309ZM335.795 38.2901H358.602C358.262 36.4359 357.536 34.767 356.424 33.2836C355.342 31.7694 353.998 30.5641 352.391 29.6679C350.784 28.7717 349.053 28.3235 347.199 28.3235C345.345 28.3235 343.629 28.7717 342.053 29.6679C340.477 30.5332 339.133 31.723 338.02 33.2373C336.939 34.7207 336.197 36.405 335.795 38.2901Z" fill="white"/>
<path d="M377.641 66.1037L377.595 19.7477H388.906L388.952 23.8734C390.528 22.2046 392.413 20.8911 394.607 19.9331C396.802 18.9442 399.166 18.4497 401.7 18.4497C403.4 18.4497 405.099 18.6969 406.799 19.1914L402.349 30.595C401.174 30.1314 400 29.8997 398.826 29.8997C397.002 29.8997 395.334 30.3478 393.819 31.244C392.336 32.1093 391.146 33.2991 390.25 34.8134C389.385 36.2968 388.952 37.9502 388.952 39.7735V66.1037H377.641Z" fill="white"/>
</svg>
