<svg width="193" height="158" viewBox="0 0 193 158" fill="none" xmlns="http://www.w3.org/2000/svg">
<g clip-path="url(#clip0_3465_12170)">
<path fill-rule="evenodd" clip-rule="evenodd" d="M174.588 71.5432H129.325V89.7301H192.781V71.5432H174.594H174.588ZM192.774 52.177V0H135.607V18.1868H174.588V33.9902H106.117V52.177H192.774ZM60.4325 89.7363V71.5494H0.00621318V89.7363H60.4325ZM0.00621318 33.9902V52.177H87.0176V33.9902H18.1931V18.1868H56.3172V0H0V33.9902H0.00621318Z" fill="black"/>
<rect width="193" height="52" transform="translate(0 106)" fill="url(#paint0_linear_3465_12170)"/>
<path d="M53.24 143.5V120.46H62.456C64.0987 120.46 65.4267 120.791 66.44 121.452C67.4533 122.103 68.1947 122.924 68.664 123.916C69.1333 124.908 69.368 125.911 69.368 126.924C69.368 128.215 69.0747 129.287 68.488 130.14C67.912 130.993 67.1173 131.564 66.104 131.852V131.052C67.544 131.351 68.6213 132.017 69.336 133.052C70.0613 134.087 70.424 135.244 70.424 136.524C70.424 137.9 70.168 139.111 69.656 140.156C69.1547 141.201 68.3867 142.023 67.352 142.62C66.3173 143.207 65.016 143.5 63.448 143.5H53.24ZM57.656 139.404H63C63.5867 139.404 64.1093 139.281 64.568 139.036C65.0267 138.78 65.384 138.428 65.64 137.98C65.9067 137.521 66.04 136.983 66.04 136.364C66.04 135.82 65.928 135.335 65.704 134.908C65.48 134.481 65.1387 134.145 64.68 133.9C64.232 133.644 63.672 133.516 63 133.516H57.656V139.404ZM57.656 129.452H62.392C62.8827 129.452 63.32 129.367 63.704 129.196C64.088 129.025 64.392 128.764 64.616 128.412C64.84 128.049 64.952 127.585 64.952 127.02C64.952 126.316 64.7333 125.724 64.296 125.244C63.8587 124.764 63.224 124.524 62.392 124.524H57.656V129.452ZM77.135 143.5V120.46H92.175V124.524H81.487V129.452H90.255V133.516H81.487V139.436H92.175V143.5H77.135ZM104.874 143.5V124.524H97.61V120.46H116.49V124.524H109.226V143.5H104.874ZM120.356 143.5L127.396 120.46H133.892L140.932 143.5H136.452L130.18 123.18H131.012L124.836 143.5H120.356ZM124.58 138.7V134.636H136.74V138.7H124.58Z" fill="white"/>
</g>
<defs>
<linearGradient id="paint0_linear_3465_12170" x1="-7.18955e-07" y1="26" x2="193" y2="26" gradientUnits="userSpaceOnUse">
<stop stop-color="#3C9AAA"/>
<stop offset="0.377812" stop-color="#3D9AAC"/>
<stop offset="0.987586" stop-color="#3574F4"/>
</linearGradient>
<clipPath id="clip0_3465_12170">
<rect width="193" height="158" fill="white"/>
</clipPath>
</defs>
</svg>
