<svg width="19" height="16" viewBox="0 0 19 16" fill="none" xmlns="http://www.w3.org/2000/svg">
<path d="M19 2.13355C18.3042 2.44188 17.5567 2.65021 16.7709 2.74438C17.5817 2.25921 18.1883 1.4956 18.4775 0.596047C17.7157 1.04854 16.882 1.36704 16.0125 1.53771C15.4279 0.913435 14.6534 0.499652 13.8095 0.360609C12.9655 0.221565 12.0993 0.36504 11.3452 0.768758C10.5912 1.17248 9.99151 1.81385 9.63933 2.5933C9.28714 3.37275 9.20215 4.24667 9.39753 5.07938C7.85394 5.00188 6.34389 4.60067 4.96539 3.9018C3.58689 3.20293 2.37074 2.22201 1.39587 1.02271C1.06254 1.59771 0.870869 2.26438 0.870869 2.97438C0.870497 3.61354 1.0279 4.24292 1.3291 4.80666C1.63031 5.3704 2.066 5.85108 2.59754 6.20605C1.9811 6.18643 1.37826 6.01987 0.839202 5.72021V5.77021C0.83914 6.66666 1.14923 7.53553 1.71685 8.22938C2.28448 8.92323 3.07468 9.39932 3.95337 9.57688C3.38152 9.73164 2.78198 9.75444 2.20004 9.64355C2.44795 10.4149 2.93086 11.0894 3.58117 11.5727C4.23148 12.0559 5.01663 12.3237 5.8267 12.3385C4.45156 13.4181 2.75327 14.0036 1.00504 14.001C0.695353 14.0011 0.385933 13.983 0.0783691 13.9469C1.85293 15.0879 3.91865 15.6934 6.02837 15.691C13.17 15.691 17.0742 9.77605 17.0742 4.64605C17.0742 4.47938 17.07 4.31105 17.0625 4.14438C17.8219 3.59519 18.4775 2.91513 18.9984 2.13605L19 2.13355V2.13355Z" fill="white"/>
</svg>
