<svg width="40" height="12" viewBox="0 0 40 12" fill="none" xmlns="http://www.w3.org/2000/svg">
<path d="M39.1187 6.40721L33.3785 11.0608C33.3133 11.1153 33.2352 11.1587 33.1489 11.1883C33.0626 11.2179 32.9699 11.2331 32.8762 11.2331C32.7825 11.2331 32.6898 11.2179 32.6035 11.1883C32.5172 11.1587 32.4392 11.1153 32.374 11.0608C32.3067 11.0079 32.2532 10.9446 32.2167 10.8747C32.1802 10.8047 32.1613 10.7296 32.1613 10.6536C32.1613 10.5776 32.1802 10.5025 32.2167 10.4325C32.2532 10.3626 32.3067 10.2993 32.374 10.2464L36.8764 6.58171H3.0452L7.54766 10.2464C7.61492 10.2993 7.6684 10.3626 7.70492 10.4325C7.74144 10.5025 7.76026 10.5776 7.76026 10.6536C7.76026 10.7296 7.74144 10.8047 7.70492 10.8747C7.6684 10.9446 7.61492 11.0079 7.54766 11.0608C7.48244 11.1153 7.40437 11.1587 7.31809 11.1883C7.23182 11.2179 7.13908 11.2331 7.04539 11.2331C6.9517 11.2331 6.85896 11.2179 6.77268 11.1883C6.6864 11.1587 6.60834 11.1153 6.54312 11.0608L0.802939 6.40721C0.735674 6.35433 0.682194 6.29105 0.645672 6.2211C0.609151 6.15115 0.590332 6.07597 0.590332 6.00002C0.590332 5.92406 0.609151 5.84888 0.645672 5.77893C0.682194 5.70899 0.735674 5.6457 0.802939 5.59283L6.54312 0.939246C6.6813 0.855232 6.85222 0.814445 7.0245 0.824371C7.19679 0.834297 7.35887 0.894271 7.481 0.993282C7.60313 1.09229 7.67711 1.2237 7.68935 1.36337C7.7016 1.50304 7.65129 1.64161 7.54766 1.75362L3.0452 5.41832H36.8764L32.374 1.75362C32.2703 1.64161 32.22 1.50304 32.2323 1.36337C32.2445 1.2237 32.3185 1.09229 32.4406 0.993282C32.5627 0.894271 32.7248 0.834297 32.8971 0.824371C33.0694 0.814445 33.2403 0.855232 33.3785 0.939246L39.1187 5.59283C39.1859 5.6457 39.2394 5.70899 39.2759 5.77893C39.3125 5.84888 39.3313 5.92406 39.3313 6.00002C39.3313 6.07597 39.3125 6.15115 39.2759 6.2211C39.2394 6.29105 39.1859 6.35433 39.1187 6.40721V6.40721Z" fill="white"/>
</svg>
