<svg width="635" height="140" viewBox="0 0 635 140" fill="none" xmlns="http://www.w3.org/2000/svg">
<g clip-path="url(#clip0_1786_27145)">
<path d="M43.6825 105.711C36.8429 105.711 30.5813 104.362 24.8977 101.665C19.2622 98.9195 14.4937 95.1385 10.5923 90.3218C6.73896 85.5052 3.94531 79.942 2.21132 73.6322C0.525495 67.2743 0.188331 60.4828 1.19982 53.2579C2.21132 46.0329 4.45105 39.2655 7.91903 32.9557C11.387 26.5978 15.7461 21.0105 20.9962 16.1938C26.2945 11.3772 32.1467 7.62023 38.5528 4.92291C44.959 2.17743 51.5818 0.804688 58.4214 0.804688C65.3092 0.804688 71.5709 2.17743 77.2063 4.92291C82.8418 7.62023 87.5862 11.3772 91.4395 16.1938C95.341 21.0105 98.1346 26.5978 99.8204 32.9557C101.554 39.2655 101.916 46.0329 100.904 53.2579C99.8927 60.4828 97.6529 67.2743 94.185 73.6322C90.717 79.942 86.3339 85.5052 81.0356 90.3218C75.7854 95.1385 69.9573 98.9195 63.5512 101.665C57.1932 104.362 50.5703 105.711 43.6825 105.711ZM44.7663 97.908C50.5944 97.908 56.2058 96.728 61.6004 94.3678C67.0432 92.0077 71.9803 88.7805 76.4116 84.6864C80.8429 80.5441 84.5035 75.7756 87.3935 70.381C90.3317 64.9864 92.2342 59.2786 93.1012 53.2579C93.9682 47.1407 93.6792 41.3848 92.2342 35.9902C90.8374 30.5956 88.5013 25.8512 85.226 21.7571C81.9507 17.6629 77.9288 14.4599 73.1604 12.1479C68.44 9.78772 63.1658 8.60764 57.3377 8.60764C51.5096 8.60764 45.8741 9.78772 40.4313 12.1479C35.0367 14.508 30.1237 17.7592 25.6924 21.9016C21.2611 25.9957 17.5764 30.7401 14.6382 36.1347C11.7483 41.5293 9.86977 47.2371 9.00277 53.2579C8.13578 59.375 8.40069 65.1309 9.79752 70.5255C11.2425 75.9201 13.6027 80.6886 16.878 84.8309C20.1533 88.925 24.1511 92.1281 28.8714 94.4401C33.6399 96.7521 38.9382 97.908 44.7663 97.908Z" fill="black"/>
<path d="M110.879 139.957H103.076L118.321 31.583H126.124L124.029 46.4664C127.304 41.4571 131.446 37.4111 136.455 34.3285C141.513 31.2458 147.245 29.7045 153.651 29.7045C158.901 29.7045 163.669 30.6919 167.956 32.6667C172.291 34.6415 175.952 37.387 178.938 40.9032C181.924 44.3712 184.068 48.393 185.368 52.9688C186.717 57.5447 187.03 62.4576 186.308 67.7078C185.585 72.9579 183.899 77.8949 181.25 82.5189C178.649 87.1429 175.35 91.2129 171.352 94.7291C167.402 98.1971 162.995 100.918 158.13 102.893C153.265 104.868 148.208 105.856 142.958 105.856C136.552 105.856 131.253 104.314 127.063 101.232C122.873 98.1489 119.862 94.1029 118.032 89.0936L110.879 139.957ZM152.495 37.3629C147.004 37.3629 142.067 38.7357 137.684 41.4812C133.349 44.1785 129.784 47.815 126.991 52.3908C124.197 56.9666 122.415 62.0723 121.644 67.7078C120.874 73.2469 121.211 78.3284 122.656 82.9524C124.149 87.5764 126.678 91.2852 130.242 94.0788C133.806 96.8243 138.358 98.197 143.897 98.197C149.34 98.197 154.542 96.8484 159.503 94.1511C164.464 91.4538 168.655 87.8172 172.074 83.2414C175.494 78.6174 177.614 73.4396 178.432 67.7078C179.203 62.1686 178.553 57.1112 176.482 52.5353C174.411 47.9114 171.28 44.2267 167.089 41.4812C162.899 38.7357 158.034 37.3629 152.495 37.3629Z" fill="black"/>
<path d="M224.374 105.711C217.727 105.711 211.899 104.001 206.89 100.581C201.929 97.1615 198.22 92.5857 195.763 86.8539C193.355 81.0739 192.632 74.6919 193.596 67.7078C194.318 62.4095 195.932 57.4724 198.437 52.8966C200.989 48.2726 204.168 44.2267 207.973 40.7587C211.779 37.2425 215.993 34.4971 220.617 32.5222C225.289 30.5474 230.106 29.56 235.067 29.56C240.317 29.56 245.013 30.5956 249.156 32.6667C253.346 34.6897 256.79 37.5556 259.487 41.2644C262.185 44.9732 264.039 49.3564 265.051 54.4138C266.11 59.4231 266.134 64.9141 265.123 70.8867H201.326C201.134 76.0405 202.025 80.6645 204 84.7586C206.023 88.8046 208.865 92.0077 212.525 94.3678C216.234 96.6798 220.545 97.8599 225.458 97.908C230.804 97.908 235.838 96.5112 240.558 93.7176C245.278 90.8758 249.252 86.9984 252.479 82.0854L260.065 83.8916C256.26 90.2978 251.155 95.5479 244.748 99.642C238.39 103.688 231.599 105.711 224.374 105.711ZM202.049 64.2398H258.259C258.644 59.2786 257.826 54.7269 255.803 50.5846C253.828 46.3941 250.962 43.0466 247.205 40.5419C243.448 38.0373 239.089 36.785 234.128 36.785C229.118 36.785 224.398 38.0132 219.967 40.4697C215.536 42.9262 211.73 46.2496 208.551 50.4401C205.421 54.5824 203.253 59.1823 202.049 64.2398Z" fill="black"/>
<path d="M341.37 59.3991L335.156 103.833H327.353L333.422 60.6273C334 56.3405 333.495 52.439 331.905 48.9229C330.316 45.4067 327.907 42.6131 324.68 40.5419C321.501 38.4708 317.768 37.4352 313.481 37.4352C309.195 37.4352 305.149 38.4708 301.344 40.5419C297.538 42.6131 294.359 45.4067 291.807 48.9229C289.254 52.439 287.664 56.3405 287.038 60.6273L280.969 103.833H273.166L283.281 31.583H291.084L289.567 42.6372C292.746 38.6394 296.623 35.4604 301.199 33.1002C305.823 30.7401 310.664 29.56 315.721 29.56C321.26 29.56 326.077 30.9087 330.171 33.606C334.313 36.2551 337.396 39.8435 339.419 44.3712C341.49 48.8988 342.14 53.9081 341.37 59.3991Z" fill="black"/>
<path d="M356.73 103.833V2.68317H392.854C398.345 2.68317 403.306 4.05592 407.738 6.8014C412.217 9.54689 415.757 13.2316 418.358 17.8556C420.959 22.4795 422.26 27.5611 422.26 33.1002C422.26 38.7839 420.911 43.9377 418.214 48.5616C415.565 53.1374 412 56.7981 407.521 59.5436C403.042 62.2409 398.153 63.5895 392.854 63.5895H374.358V103.833H356.73ZM374.358 45.9606H390.976C393.48 45.9606 395.768 45.3345 397.84 44.0822C399.911 42.8298 401.548 41.144 402.753 39.0247C404.005 36.9054 404.631 34.5452 404.631 31.9442C404.631 29.2951 404.005 26.9109 402.753 24.7915C401.548 22.6722 399.911 20.9864 397.84 19.7341C395.768 18.4817 393.48 17.8556 390.976 17.8556H374.358V45.9606Z" fill="black"/>
<path d="M462.321 105.711C455.674 105.711 449.605 104.001 444.114 100.581C438.671 97.1615 434.312 92.5616 431.037 86.7816C427.81 81.0017 426.196 74.6196 426.196 67.6355C426.196 62.3854 427.136 57.4724 429.014 52.8966C430.893 48.2726 433.47 44.2267 436.745 40.7587C440.068 37.2425 443.922 34.4971 448.305 32.5222C452.688 30.5474 457.36 29.56 462.321 29.56C467.957 29.56 473.11 30.7642 477.783 33.1725C482.503 35.5326 486.501 38.7839 489.776 42.9262C493.051 47.0685 495.435 51.7888 496.929 57.0871C498.422 62.3854 498.759 67.9245 497.94 73.7045H445.126C445.8 76.4018 446.908 78.8342 448.449 81.0017C449.991 83.121 451.941 84.8309 454.301 86.1314C456.662 87.3837 459.335 88.034 462.321 88.0821C465.404 88.1303 468.197 87.4078 470.702 85.9146C473.255 84.3733 475.374 82.3021 477.06 79.7012L495.05 83.8916C492.112 90.2978 487.729 95.5479 481.901 99.642C476.073 103.688 469.546 105.711 462.321 105.711ZM444.548 60.4828H480.095C479.565 57.5928 478.433 54.9918 476.699 52.6799C475.013 50.3197 472.918 48.4412 470.413 47.0444C467.908 45.6476 465.211 44.9492 462.321 44.9492C459.431 44.9492 456.758 45.6476 454.301 47.0444C451.845 48.393 449.75 50.2474 448.016 52.6076C446.33 54.9196 445.174 57.5447 444.548 60.4828Z" fill="black"/>
<path d="M541.767 105.711C535.12 105.711 529.051 104.001 523.56 100.581C518.118 97.1615 513.759 92.5616 510.483 86.7816C507.256 81.0017 505.643 74.6196 505.643 67.6355C505.643 62.3854 506.582 57.4724 508.46 52.8966C510.339 48.2726 512.916 44.2267 516.191 40.7587C519.515 37.2425 523.368 34.4971 527.751 32.5222C532.134 30.5474 536.806 29.56 541.767 29.56C547.403 29.56 552.557 30.7642 557.229 33.1725C561.949 35.5326 565.947 38.7839 569.222 42.9262C572.497 47.0685 574.882 51.7888 576.375 57.0871C577.868 62.3854 578.205 67.9245 577.386 73.7045H524.572C525.246 76.4018 526.354 78.8342 527.896 81.0017C529.437 83.121 531.387 84.8309 533.748 86.1314C536.108 87.3837 538.781 88.034 541.767 88.0821C544.85 88.1303 547.644 87.4078 550.148 85.9146C552.701 84.3733 554.82 82.3021 556.506 79.7012L574.496 83.8916C571.558 90.2978 567.175 95.5479 561.347 99.642C555.519 103.688 548.992 105.711 541.767 105.711ZM523.994 60.4828H559.541C559.011 57.5928 557.879 54.9918 556.145 52.6799C554.459 50.3197 552.364 48.4412 549.859 47.0444C547.355 45.6476 544.657 44.9492 541.767 44.9492C538.877 44.9492 536.204 45.6476 533.748 47.0444C531.291 48.393 529.196 50.2474 527.462 52.6076C525.776 54.9196 524.62 57.5447 523.994 60.4828Z" fill="black"/>
<path d="M589.214 103.833L589.142 31.583H606.77L606.843 38.0132C609.299 35.4122 612.237 33.3651 615.657 31.872C619.077 30.3307 622.762 29.56 626.711 29.56C629.36 29.56 632.01 29.9453 634.659 30.716L627.723 48.4894C625.893 47.7669 624.062 47.4056 622.232 47.4056C619.39 47.4056 616.789 48.104 614.429 49.5009C612.117 50.8495 610.263 52.7039 608.866 55.0641C607.517 57.3761 606.843 59.953 606.843 62.7948V103.833H589.214Z" fill="black"/>
</g>
<defs>
<clipPath id="clip0_1786_27145">
<rect width="635" height="140" fill="white"/>
</clipPath>
</defs>
</svg>
