<svg width="19" height="16" viewBox="0 0 19 16" fill="none" xmlns="http://www.w3.org/2000/svg">
<g clip-path="url(#clip0_3047_32578)">
<path d="M18.9998 2.1332C18.304 2.44153 17.5565 2.64986 16.7707 2.74403C17.5815 2.25886 18.1881 1.49525 18.4773 0.595692C17.7155 1.04819 16.8818 1.36669 16.0123 1.53736C15.4277 0.91308 14.6532 0.499297 13.8093 0.360254C12.9653 0.22121 12.0991 0.364685 11.345 0.768403C10.591 1.17213 9.99127 1.8135 9.63909 2.59295C9.2869 3.3724 9.20191 4.24632 9.39729 5.07903C7.8537 5.00153 6.34365 4.60032 4.96515 3.90145C3.58665 3.20258 2.3705 2.22166 1.39563 1.02236C1.0623 1.59736 0.870625 2.26403 0.870625 2.97403C0.870253 3.61319 1.02766 4.24257 1.32886 4.80631C1.63007 5.37005 2.06576 5.85073 2.5973 6.2057C1.98086 6.18608 1.37802 6.01952 0.838958 5.71986V5.76986C0.838896 6.66631 1.14899 7.53517 1.71661 8.22902C2.28424 8.92287 3.07444 9.39897 3.95313 9.57653C3.38128 9.73129 2.78174 9.75409 2.1998 9.6432C2.44771 10.4145 2.93062 11.089 3.58093 11.5723C4.23124 12.0555 5.01639 12.3233 5.82646 12.3381C4.45132 13.4177 2.75303 14.0032 1.0048 14.0006C0.695109 14.0007 0.385689 13.9826 0.078125 13.9465C1.85269 15.0875 3.91841 15.693 6.02813 15.6906C13.1698 15.6906 17.074 9.7757 17.074 4.6457C17.074 4.47903 17.0698 4.3107 17.0623 4.14403C17.8217 3.59484 18.4773 2.91478 18.9982 2.1357L18.9998 2.1332Z" fill="black"/>
</g>
<defs>
<clipPath id="clip0_3047_32578">
<rect width="19" height="16" fill="white"/>
</clipPath>
</defs>
</svg>
