<svg width="120" height="28" viewBox="0 0 120 28" fill="none" xmlns="http://www.w3.org/2000/svg">
<path d="M8.14822 20.6647C6.85372 20.6647 5.6686 20.4103 4.59289 19.9015C3.52628 19.3836 2.62377 18.6703 1.88536 17.7617C1.15606 16.8531 0.627312 15.8036 0.299127 14.6133C-0.0199418 13.4139 -0.0837556 12.1328 0.107686 10.7699C0.299127 9.40693 0.723033 8.13032 1.3794 6.94003C2.03577 5.74065 2.8608 4.68666 3.85447 3.77804C4.85726 2.86942 5.96488 2.1607 7.17734 1.65187C8.38981 1.13396 9.64329 0.875 10.9378 0.875C12.2414 0.875 13.4265 1.13396 14.4931 1.65187C15.5597 2.1607 16.4577 2.86942 17.187 3.77804C17.9254 4.68666 18.4542 5.74065 18.7732 6.94003C19.1014 8.13032 19.1698 9.40693 18.9783 10.7699C18.7869 12.1328 18.363 13.4139 17.7066 14.6133C17.0503 15.8036 16.2207 16.8531 15.2179 17.7617C14.2242 18.6703 13.1211 19.3836 11.9087 19.9015C10.7053 20.4103 9.45185 20.6647 8.14822 20.6647ZM8.35334 19.1928C9.45641 19.1928 10.5185 18.9701 11.5395 18.5249C12.5696 18.0797 13.504 17.4709 14.3427 16.6986C15.1814 15.9172 15.8743 15.0177 16.4212 14C16.9773 12.9823 17.3374 11.9056 17.5015 10.7699C17.6656 9.61592 17.6109 8.53012 17.3374 7.51246C17.073 6.49481 16.6309 5.59982 16.011 4.82749C15.3911 4.05517 14.6299 3.45094 13.7274 3.0148C12.834 2.56957 11.8358 2.34696 10.7327 2.34696C9.62962 2.34696 8.56301 2.56957 7.53288 3.0148C6.51186 3.46002 5.582 4.07334 4.7433 4.85475C3.90461 5.62708 3.20721 6.52207 2.65112 7.53972C2.10415 8.55737 1.74861 9.63409 1.58452 10.7699C1.42043 11.9238 1.47057 13.0096 1.73494 14.0273C2.00843 15.0449 2.45512 15.9444 3.07503 16.7259C3.69493 17.4982 4.45158 18.1024 5.34498 18.5386C6.24749 18.9747 7.25027 19.1928 8.35334 19.1928Z" fill="black"/>
<path d="M20.8663 27.125H19.3894L22.2747 6.68108H23.7516L23.355 9.48871C23.9749 8.54374 24.7589 7.7805 25.707 7.19899C26.6642 6.61747 27.749 6.32671 28.9615 6.32671C29.9552 6.32671 30.8577 6.51298 31.669 6.88551C32.4895 7.25805 33.1823 7.77596 33.7475 8.43925C34.3127 9.09346 34.7184 9.85215 34.9646 10.7153C35.2198 11.5785 35.2791 12.5053 35.1423 13.4957C35.0056 14.4861 34.6865 15.4174 34.1851 16.2897C33.6928 17.162 33.0684 17.9298 32.3117 18.5931C31.5642 19.2473 30.73 19.7606 29.8093 20.1332C28.8886 20.5057 27.9314 20.692 26.9377 20.692C25.7252 20.692 24.7224 20.4012 23.9293 19.8197C23.1362 19.2382 22.5664 18.4749 22.22 17.53L20.8663 27.125ZM28.7427 7.77142C27.7035 7.77142 26.769 8.03037 25.9395 8.54829C25.119 9.05711 24.4444 9.74312 23.9156 10.6063C23.3869 11.4695 23.0496 12.4326 22.9037 13.4957C22.7579 14.5406 22.8217 15.4992 23.0952 16.3715C23.3778 17.2438 23.8564 17.9434 24.531 18.4704C25.2056 18.9883 26.0671 19.2473 27.1155 19.2473C28.1456 19.2473 29.1301 18.9929 30.0691 18.484C31.0081 17.9752 31.8012 17.2892 32.4485 16.426C33.0957 15.5537 33.4968 14.577 33.6518 13.4957C33.7977 12.4508 33.6746 11.4968 33.2826 10.6336C32.8906 9.76129 32.298 9.0662 31.5049 8.54829C30.7118 8.03037 29.7911 7.77142 28.7427 7.77142Z" fill="black"/>
<path d="M42.347 20.6647C41.089 20.6647 39.9859 20.3422 39.0378 19.697C38.0988 19.0519 37.3969 18.1887 36.932 17.1075C36.4761 16.0171 36.3394 14.8132 36.5217 13.4957C36.6585 12.4962 36.9639 11.5649 37.4379 10.7017C37.9211 9.82944 38.5227 9.0662 39.2429 8.41199C39.9631 7.7487 40.7608 7.23079 41.6359 6.85826C42.5202 6.48572 43.4318 6.29946 44.3708 6.29946C45.3645 6.29946 46.2533 6.49481 47.0373 6.88551C47.8304 7.26713 48.4823 7.80776 48.9928 8.5074C49.5033 9.20704 49.8543 10.0339 50.0457 10.9879C50.2463 11.9329 50.2508 12.9687 50.0594 14.0954H37.9849C37.9484 15.0676 38.1171 15.9399 38.4908 16.7122C38.8737 17.4755 39.4116 18.0797 40.1044 18.5249C40.8064 18.9611 41.6223 19.1837 42.5521 19.1928C43.564 19.1928 44.5167 18.9293 45.4101 18.4023C46.3035 17.8662 47.0556 17.1347 47.6663 16.2079L49.1022 16.5487C48.382 17.7571 47.4156 18.7475 46.2032 19.5199C44.9998 20.2831 43.7145 20.6647 42.347 20.6647ZM38.1216 12.8415H48.7603C48.8332 11.9056 48.6783 11.047 48.2954 10.2656C47.9216 9.47508 47.3792 8.84359 46.6681 8.37111C45.9571 7.89862 45.132 7.66238 44.1931 7.66238C43.245 7.66238 42.3516 7.89408 41.5129 8.35748C40.6742 8.82087 39.954 9.44782 39.3523 10.2383C38.7598 11.0197 38.3495 11.8875 38.1216 12.8415Z" fill="black"/>
<path d="M64.4903 11.9283L63.3143 20.3104H61.8375L62.9862 12.16C63.0955 11.3514 62.9998 10.6154 62.699 9.9521C62.3982 9.28881 61.9423 8.76181 61.3316 8.37111C60.7299 7.9804 60.0234 7.78505 59.212 7.78505C58.4007 7.78505 57.6349 7.9804 56.9147 8.37111C56.1945 8.76181 55.5929 9.28881 55.1097 9.9521C54.6265 10.6154 54.3257 11.3514 54.2072 12.16L53.0585 20.3104H51.5817L53.4961 6.68108H54.973L54.6858 8.76636C55.2875 8.0122 56.0213 7.41251 56.8874 6.96729C57.7625 6.52207 58.6787 6.29946 59.6359 6.29946C60.6843 6.29946 61.5959 6.55387 62.3708 7.0627C63.1548 7.56244 63.7382 8.23936 64.1211 9.09346C64.5131 9.94756 64.6362 10.8925 64.4903 11.9283Z" fill="black"/>
<path d="M67.3974 20.3104V1.22936H74.2346C75.2739 1.22936 76.2128 1.48832 77.0515 2.00623C77.8994 2.52414 78.5694 3.21924 79.0617 4.09151C79.554 4.96379 79.8001 5.92238 79.8001 6.96729C79.8001 8.03946 79.5448 9.01168 79.0343 9.88396C78.5329 10.7471 77.8583 11.4377 77.0105 11.9556C76.1627 12.4644 75.2374 12.7188 74.2346 12.7188H70.734V20.3104H67.3974ZM70.734 9.3933H73.8791C74.3531 9.3933 74.7861 9.27518 75.1781 9.03894C75.5702 8.8027 75.8801 8.48468 76.108 8.08489C76.345 7.6851 76.4635 7.23988 76.4635 6.74922C76.4635 6.24948 76.345 5.79971 76.108 5.39992C75.8801 5.00013 75.5702 4.68211 75.1781 4.44587C74.7861 4.20963 74.3531 4.09151 73.8791 4.09151H70.734V9.3933Z" fill="black"/>
<path d="M87.3823 20.6647C86.1243 20.6647 84.9756 20.3422 83.9364 19.697C82.9062 19.0519 82.0812 18.1842 81.4613 17.0938C80.8505 16.0035 80.5451 14.7996 80.5451 13.4821C80.5451 12.4917 80.7229 11.5649 81.0784 10.7017C81.434 9.82944 81.9217 9.0662 82.5416 8.41199C83.1706 7.7487 83.8999 7.23079 84.7295 6.85826C85.5591 6.48572 86.4434 6.29946 87.3823 6.29946C88.4489 6.29946 89.4244 6.52661 90.3086 6.98092C91.202 7.42614 91.9587 8.03946 92.5786 8.82087C93.1985 9.60229 93.6497 10.4927 93.9324 11.4922C94.215 12.4917 94.2788 13.5366 94.1238 14.6269H84.1278C84.2554 15.1358 84.4651 15.5946 84.7568 16.0035C85.0486 16.4033 85.4178 16.7259 85.8645 16.9712C86.3112 17.2074 86.8171 17.3301 87.3823 17.3392C87.9658 17.3483 88.4945 17.212 88.9686 16.9303C89.4517 16.6395 89.8528 16.2488 90.1719 15.7582L93.5768 16.5487C93.0207 17.7571 92.1912 18.7475 91.0881 19.5199C89.985 20.2831 88.7498 20.6647 87.3823 20.6647ZM84.0184 12.1328H90.7462C90.6459 11.5876 90.4317 11.097 90.1035 10.6608C89.7845 10.2156 89.3879 9.86124 88.9139 9.59774C88.4398 9.33424 87.9293 9.20249 87.3823 9.20249C86.8354 9.20249 86.3294 9.33424 85.8645 9.59774C85.3995 9.85215 85.003 10.202 84.6748 10.6472C84.3557 11.0833 84.1369 11.5785 84.0184 12.1328Z" fill="black"/>
<path d="M102.419 20.6647C101.161 20.6647 100.012 20.3422 98.9729 19.697C97.9427 19.0519 97.1177 18.1842 96.4978 17.0938C95.887 16.0035 95.5816 14.7996 95.5816 13.4821C95.5816 12.4917 95.7594 11.5649 96.1149 10.7017C96.4704 9.82944 96.9582 9.0662 97.5781 8.41199C98.2071 7.7487 98.9364 7.23079 99.766 6.85826C100.596 6.48572 101.48 6.29946 102.419 6.29946C103.485 6.29946 104.461 6.52661 105.345 6.98092C106.239 7.42614 106.995 8.03946 107.615 8.82087C108.235 9.60229 108.686 10.4927 108.969 11.4922C109.251 12.4917 109.315 13.5366 109.16 14.6269H99.1643C99.2919 15.1358 99.5016 15.5946 99.7933 16.0035C100.085 16.4033 100.454 16.7259 100.901 16.9712C101.348 17.2074 101.854 17.3301 102.419 17.3392C103.002 17.3483 103.531 17.212 104.005 16.9303C104.488 16.6395 104.889 16.2488 105.208 15.7582L108.613 16.5487C108.057 17.7571 107.228 18.7475 106.125 19.5199C105.021 20.2831 103.786 20.6647 102.419 20.6647ZM99.0549 12.1328H105.783C105.682 11.5876 105.468 11.097 105.14 10.6608C104.821 10.2156 104.424 9.86124 103.95 9.59774C103.476 9.33424 102.966 9.20249 102.419 9.20249C101.872 9.20249 101.366 9.33424 100.901 9.59774C100.436 9.85215 100.039 10.202 99.7113 10.6472C99.3922 11.0833 99.1734 11.5785 99.0549 12.1328Z" fill="black"/>
<path d="M111.399 20.3104L111.385 6.68108H114.722L114.735 7.89408C115.2 7.40343 115.756 7.01726 116.404 6.73559C117.051 6.44484 117.748 6.29946 118.496 6.29946C118.997 6.29946 119.499 6.37215 120 6.51752L118.687 9.87033C118.341 9.73403 117.994 9.66589 117.648 9.66589C117.11 9.66589 116.618 9.79764 116.171 10.0611C115.734 10.3156 115.383 10.6654 115.118 11.1106C114.863 11.5467 114.735 12.0328 114.735 12.5689V20.3104H111.399Z" fill="black"/>
</svg>
