<svg width="172" height="33" viewBox="0 0 172 33" fill="none" xmlns="http://www.w3.org/2000/svg">
<g clip-path="url(#clip0_1263_13110)">
<path d="M151.255 16.64C150.371 16.0569 149.397 15.6423 148.475 15.124C147.877 14.7871 147.24 14.489 146.721 14.0614C145.837 13.3358 146.019 11.9105 146.942 11.2885C148.267 10.4074 150.462 10.8997 150.696 12.7009C150.696 12.7397 150.735 12.7657 150.774 12.7657H152.775C152.827 12.7657 152.866 12.7268 152.853 12.675C152.749 11.431 152.268 10.3944 151.385 9.73355C150.54 9.09862 149.579 8.76172 148.552 8.76172C143.265 8.76172 142.784 14.3465 145.629 16.1088C145.954 16.3161 148.747 17.7155 149.735 18.3245C150.722 18.9335 151.034 20.0479 150.605 20.929C150.215 21.7324 149.202 22.2896 148.189 22.2248C147.084 22.16 146.227 21.564 145.928 20.631C145.876 20.4626 145.85 20.1386 145.85 19.9961C145.85 19.9572 145.811 19.9183 145.772 19.9183H143.603C143.564 19.9183 143.525 19.9572 143.525 19.9961C143.525 21.564 143.915 22.4321 144.98 23.2226C145.98 23.9741 147.071 24.2851 148.202 24.2851C151.164 24.2851 152.697 22.6135 153.008 20.8772C153.281 19.1797 152.775 17.6507 151.255 16.64Z" fill="#161616"/>
<path d="M57.0569 9.04688H56.0956H55.0434C55.0044 9.04688 54.9784 9.07279 54.9654 9.09871L53.1856 14.9556C53.1596 15.0334 53.0558 15.0334 53.0298 14.9556L51.25 9.09871C51.237 9.05983 51.211 9.04688 51.172 9.04688H50.1198H49.1583H47.8592C47.8202 9.04688 47.7812 9.08575 47.7812 9.12462V24.0779C47.7812 24.1167 47.8202 24.1556 47.8592 24.1556H50.0288C50.0678 24.1556 50.1068 24.1167 50.1068 24.0779V12.7139C50.1068 12.6232 50.2366 12.6103 50.2626 12.688L52.0554 18.5838L52.1852 18.9984C52.1982 19.0373 52.2242 19.0503 52.2632 19.0503H53.9262C53.9651 19.0503 53.9911 19.0243 54.0041 18.9984L54.1339 18.5838L55.9268 12.688C55.9528 12.5973 56.0826 12.6232 56.0826 12.7139V24.0779C56.0826 24.1167 56.1216 24.1556 56.1605 24.1556H58.3302C58.3691 24.1556 58.4081 24.1167 58.4081 24.0779V9.12462C58.4081 9.08575 58.3691 9.04688 58.3302 9.04688H57.0569Z" fill="#161616"/>
<path d="M118.036 9.04688C117.997 9.04688 117.971 9.07279 117.958 9.09871L116.179 14.9556C116.153 15.0334 116.049 15.0334 116.023 14.9556L114.243 9.09871C114.23 9.05983 114.204 9.04688 114.165 9.04688H110.865C110.826 9.04688 110.787 9.08575 110.787 9.12462V24.0779C110.787 24.1167 110.826 24.1556 110.865 24.1556H113.035C113.074 24.1556 113.113 24.1167 113.113 24.0779V12.7139C113.113 12.6232 113.243 12.6103 113.269 12.688L115.061 18.5838L115.191 18.9984C115.204 19.0373 115.23 19.0503 115.269 19.0503H116.932C116.971 19.0503 116.997 19.0243 117.01 18.9984L117.14 18.5838L118.933 12.688C118.959 12.5973 119.089 12.6232 119.089 12.7139V24.0779C119.089 24.1167 119.128 24.1556 119.167 24.1556H121.336C121.375 24.1556 121.414 24.1167 121.414 24.0779V9.12462C121.414 9.08575 121.375 9.04688 121.336 9.04688H118.036Z" fill="#161616"/>
<path d="M90.0546 9.04688H86.0143H83.8448H79.8046C79.7656 9.04688 79.7266 9.08575 79.7266 9.12462V10.9905C79.7266 11.0294 79.7656 11.0683 79.8046 11.0683H83.7669V24.0779C83.7669 24.1167 83.8058 24.1556 83.8448 24.1556H86.0143C86.0533 24.1556 86.0923 24.1167 86.0923 24.0779V11.0683H90.0546C90.0936 11.0683 90.1325 11.0294 90.1325 10.9905V9.12462C90.1325 9.08575 90.1066 9.04688 90.0546 9.04688Z" fill="#161616"/>
<path d="M102.851 24.1556H104.825C104.877 24.1556 104.916 24.1038 104.903 24.052L100.824 9.04695C100.811 9.00808 100.785 8.99512 100.746 8.99512H99.9922H98.6671H97.9136C97.8746 8.99512 97.8486 9.02104 97.8356 9.04695L93.7564 24.052C93.7434 24.1038 93.7824 24.1556 93.8344 24.1556H95.809C95.848 24.1556 95.874 24.1297 95.887 24.1038L97.0692 19.737C97.0821 19.6982 97.1081 19.6852 97.1471 19.6852H101.513C101.552 19.6852 101.578 19.7111 101.591 19.737L102.773 24.1038C102.786 24.1297 102.825 24.1556 102.851 24.1556ZM97.6667 17.5472L99.2517 11.7032C99.2776 11.6255 99.3816 11.6255 99.4076 11.7032L100.993 17.5472C101.006 17.599 100.967 17.6508 100.915 17.6508H97.7447C97.6927 17.6508 97.6538 17.599 97.6667 17.5472Z" fill="#161616"/>
<path d="M136.524 24.1556H138.498C138.55 24.1556 138.589 24.1038 138.576 24.052L134.497 9.04695C134.484 9.00808 134.458 8.99512 134.419 8.99512H133.666H132.341H131.587C131.548 8.99512 131.522 9.02104 131.509 9.04695L127.43 24.052C127.417 24.1038 127.456 24.1556 127.508 24.1556H129.483C129.522 24.1556 129.548 24.1297 129.561 24.1038L130.743 19.737C130.756 19.6982 130.782 19.6852 130.821 19.6852H135.186C135.225 19.6852 135.251 19.7111 135.264 19.737L136.446 24.1038C136.459 24.1297 136.485 24.1556 136.524 24.1556ZM131.34 17.5472L132.925 11.7032C132.951 11.6255 133.055 11.6255 133.081 11.7032L134.666 17.5472C134.679 17.599 134.64 17.6508 134.588 17.6508H131.418C131.366 17.6508 131.327 17.599 131.34 17.5472Z" fill="#161616"/>
<path d="M67.216 21.9396V17.3007C67.216 17.2619 67.255 17.223 67.294 17.223H73.075C73.114 17.223 73.153 17.1841 73.153 17.1452V15.2793C73.153 15.2405 73.114 15.2016 73.075 15.2016H67.294C67.255 15.2016 67.216 15.1627 67.216 15.1238V11.1588C67.216 11.1199 67.255 11.081 67.294 11.081H73.8675C73.9065 11.081 73.9455 11.0421 73.9455 11.0033V9.13732C73.9455 9.09845 73.9065 9.05957 73.8675 9.05957H67.216H64.9686C64.9296 9.05957 64.8906 9.09845 64.8906 9.13732V11.081V15.2145V17.236V22.0303V24.0776C64.8906 24.1165 64.9296 24.1554 64.9686 24.1554H67.216H74.1403C74.1793 24.1554 74.2183 24.1165 74.2183 24.0776V22.1081C74.2183 22.0692 74.1793 22.0303 74.1403 22.0303H67.281C67.242 22.0174 67.216 21.9914 67.216 21.9396Z" fill="#161616"/>
<path d="M171.08 24.0258L163.571 16.29C163.545 16.2641 163.545 16.2123 163.571 16.1864L170.327 9.18915C170.379 9.13732 170.34 9.05957 170.275 9.05957H167.508C167.482 9.05957 167.469 9.07253 167.456 9.08549L161.727 15.0202C161.675 15.072 161.597 15.0331 161.597 14.9683V9.13732C161.597 9.09845 161.558 9.05957 161.519 9.05957H159.349C159.31 9.05957 159.271 9.09845 159.271 9.13732V24.0906C159.271 24.1295 159.31 24.1684 159.349 24.1684H161.519C161.558 24.1684 161.597 24.1295 161.597 24.0906V17.5081C161.597 17.4433 161.688 17.4044 161.727 17.4562L168.222 24.1424C168.235 24.1554 168.261 24.1684 168.274 24.1684H171.041C171.093 24.1554 171.132 24.0647 171.08 24.0258Z" fill="#161616"/>
<path d="M32.9583 1L19.8242 10.7183L22.2666 4.99099L32.9583 1Z" fill="#E17726" stroke="#E17726" stroke-width="0.25" stroke-linecap="round" stroke-linejoin="round"/>
<path d="M2.66211 1L15.6793 10.809L13.3539 4.99098L2.66211 1Z" fill="#E27625" stroke="#E27625" stroke-width="0.25" stroke-linecap="round" stroke-linejoin="round"/>
<path d="M28.229 23.5332L24.7344 28.8718L32.2173 30.9321L34.3609 23.6499L28.229 23.5332Z" fill="#E27625" stroke="#E27625" stroke-width="0.25" stroke-linecap="round" stroke-linejoin="round"/>
<path d="M1.27344 23.6499L3.40398 30.9321L10.8739 28.8718L7.39227 23.5332L1.27344 23.6499Z" fill="#E27625" stroke="#E27625" stroke-width="0.25" stroke-linecap="round" stroke-linejoin="round"/>
<path d="M10.4711 14.5149L8.39258 17.6507L15.7975 17.9876L15.5507 10.0186L10.4711 14.5149Z" fill="#E27625" stroke="#E27625" stroke-width="0.25" stroke-linecap="round" stroke-linejoin="round"/>
<path d="M25.1505 14.5148L19.9931 9.92773L19.8242 17.9875L27.2291 17.6506L25.1505 14.5148Z" fill="#E27625" stroke="#E27625" stroke-width="0.25" stroke-linecap="round" stroke-linejoin="round"/>
<path d="M10.873 28.8722L15.3549 26.7083L11.4966 23.7021L10.873 28.8722Z" fill="#E27625" stroke="#E27625" stroke-width="0.25" stroke-linecap="round" stroke-linejoin="round"/>
<path d="M20.2656 26.7083L24.7345 28.8722L24.1239 23.7021L20.2656 26.7083Z" fill="#E27625" stroke="#E27625" stroke-width="0.25" stroke-linecap="round" stroke-linejoin="round"/>
<path d="M24.7345 28.8719L20.2656 26.708L20.6293 29.6105L20.5903 30.8415L24.7345 28.8719Z" fill="#D5BFB2" stroke="#D5BFB2" stroke-width="0.25" stroke-linecap="round" stroke-linejoin="round"/>
<path d="M10.873 28.8719L15.0302 30.8415L15.0042 29.6105L15.3549 26.708L10.873 28.8719Z" fill="#D5BFB2" stroke="#D5BFB2" stroke-width="0.25" stroke-linecap="round" stroke-linejoin="round"/>
<path d="M15.1081 21.7837L11.3926 20.6953L14.0168 19.4902L15.1081 21.7837Z" fill="#233447" stroke="#233447" stroke-width="0.25" stroke-linecap="round" stroke-linejoin="round"/>
<path d="M20.5137 21.7837L21.605 19.4902L24.2422 20.6953L20.5137 21.7837Z" fill="#233447" stroke="#233447" stroke-width="0.25" stroke-linecap="round" stroke-linejoin="round"/>
<path d="M10.8722 28.8718L11.5218 23.5332L7.39062 23.6499L10.8722 28.8718Z" fill="#CC6228" stroke="#CC6228" stroke-width="0.25" stroke-linecap="round" stroke-linejoin="round"/>
<path d="M24.0977 23.5332L24.7343 28.8718L28.2289 23.6499L24.0977 23.5332Z" fill="#CC6228" stroke="#CC6228" stroke-width="0.25" stroke-linecap="round" stroke-linejoin="round"/>
<path d="M27.2291 17.6504L19.8242 17.9873L20.5127 21.784L21.604 19.4904L24.2412 20.6955L27.2291 17.6504Z" fill="#CC6228" stroke="#CC6228" stroke-width="0.25" stroke-linecap="round" stroke-linejoin="round"/>
<path d="M11.3935 20.6955L14.0177 19.4904L15.109 21.784L15.7975 17.9873L8.39258 17.6504L11.3935 20.6955Z" fill="#CC6228" stroke="#CC6228" stroke-width="0.25" stroke-linecap="round" stroke-linejoin="round"/>
<path d="M8.39258 17.6504L11.4975 23.7017L11.3935 20.6955L8.39258 17.6504Z" fill="#E27525" stroke="#E27525" stroke-width="0.25" stroke-linecap="round" stroke-linejoin="round"/>
<path d="M24.2419 20.6955L24.125 23.7017L27.2299 17.6504L24.2419 20.6955Z" fill="#E27525" stroke="#E27525" stroke-width="0.25" stroke-linecap="round" stroke-linejoin="round"/>
<path d="M15.798 17.9873L15.1094 21.784L15.9798 26.2673L16.1747 20.3586L15.798 17.9873Z" fill="#E27525" stroke="#E27525" stroke-width="0.25" stroke-linecap="round" stroke-linejoin="round"/>
<path d="M19.8247 17.9873L19.4609 20.3457L19.6428 26.2673L20.5132 21.784L19.8247 17.9873Z" fill="#E27525" stroke="#E27525" stroke-width="0.25" stroke-linecap="round" stroke-linejoin="round"/>
<path d="M20.513 21.7838L19.6426 26.2671L20.2662 26.7077L24.1246 23.7015L24.2415 20.6953L20.513 21.7838Z" fill="#F5841F" stroke="#F5841F" stroke-width="0.25" stroke-linecap="round" stroke-linejoin="round"/>
<path d="M11.3926 20.6953L11.4966 23.7015L15.3549 26.7077L15.9785 26.2671L15.1081 21.7838L11.3926 20.6953Z" fill="#F5841F" stroke="#F5841F" stroke-width="0.25" stroke-linecap="round" stroke-linejoin="round"/>
<path d="M20.5904 30.8417L20.6293 29.6107L20.2916 29.3256H15.329L15.0042 29.6107L15.0302 30.8417L10.873 28.8721L12.328 30.0642L15.277 32.0986H20.3305L23.2925 30.0642L24.7345 28.8721L20.5904 30.8417Z" fill="#C0AC9D" stroke="#C0AC9D" stroke-width="0.25" stroke-linecap="round" stroke-linejoin="round"/>
<path d="M20.2653 26.7081L19.6417 26.2676H15.9782L15.3547 26.7081L15.0039 29.6107L15.3287 29.3256H20.2913L20.6291 29.6107L20.2653 26.7081Z" fill="#161616" stroke="#161616" stroke-width="0.25" stroke-linecap="round" stroke-linejoin="round"/>
<path d="M33.5165 11.3532L34.6208 5.98873L32.9579 1L20.2656 10.3944L25.1502 14.5149L32.0485 16.5234L33.5685 14.7482L32.906 14.2687L33.9582 13.3099L33.1528 12.6879L34.2051 11.8845L33.5165 11.3532Z" fill="#763E1A" stroke="#763E1A" stroke-width="0.25" stroke-linecap="round" stroke-linejoin="round"/>
<path d="M1 5.98873L2.11724 11.3532L1.40273 11.8845L2.468 12.6879L1.66255 13.3099L2.71483 14.2687L2.05228 14.7482L3.57225 16.5234L10.4706 14.5149L15.3552 10.3944L2.66287 1L1 5.98873Z" fill="#763E1A" stroke="#763E1A" stroke-width="0.25" stroke-linecap="round" stroke-linejoin="round"/>
<path d="M32.0496 16.523L25.1513 14.5146L27.2299 17.6504L24.125 23.7016L28.2302 23.6498H34.362L32.0496 16.523Z" fill="#F5841F" stroke="#F5841F" stroke-width="0.25" stroke-linecap="round" stroke-linejoin="round"/>
<path d="M10.4711 14.5146L3.57287 16.523L1.27344 23.6498H7.39227L11.4974 23.7016L8.39259 17.6504L10.4711 14.5146Z" fill="#F5841F" stroke="#F5841F" stroke-width="0.25" stroke-linecap="round" stroke-linejoin="round"/>
<path d="M19.8251 17.9878L20.2668 10.3945L22.2674 4.99121H13.3555L15.3561 10.3945L15.7978 17.9878L15.9667 20.372L15.9797 26.2678H19.6432L19.6562 20.372L19.8251 17.9878Z" fill="#F5841F" stroke="#F5841F" stroke-width="0.25" stroke-linecap="round" stroke-linejoin="round"/>
</g>
<defs>
<clipPath id="clip0_1263_13110">
<rect width="172" height="33" fill="white"/>
</clipPath>
</defs>
</svg>
