<svg width="1212" height="217" viewBox="0 0 1212 217" fill="none" xmlns="http://www.w3.org/2000/svg">
<mask id="mask0_3465_12163" style="mask-type:luminance" maskUnits="userSpaceOnUse" x="0" y="0" width="1211" height="122">
<path d="M1210.99 0.738281H0V121.294H1210.99V0.738281Z" fill="white"/>
</mask>
<g mask="url(#mask0_3465_12163)">
<path fill-rule="evenodd" clip-rule="evenodd" d="M47.6128 26.9263C51.5666 25.4424 55.8551 24.6482 60.3319 24.6482C80.4355 24.6482 96.7318 40.9299 96.7318 61.0155C96.7318 76.2939 87.2971 89.3778 73.9296 94.7701C69.7247 96.4631 65.1434 97.3829 60.3319 97.3829C55.5203 97.3829 50.939 96.4423 46.7341 94.7701C33.3666 89.3987 23.9319 76.3148 23.9319 61.0155C23.9319 56.2501 24.8524 51.6938 26.5259 47.5136L23.9319 44.8801L8.86987 29.5389C3.24253 38.6935 0 49.4782 0 61.0155C0 73.5142 3.80736 85.1349 10.3342 94.7701C14.0579 100.246 18.6393 105.095 23.9319 109.087C29.4965 113.309 35.8351 116.591 42.6967 118.681C48.2822 120.374 54.2024 121.293 60.3528 121.293C66.5031 121.293 72.4233 120.374 78.0088 118.681C84.8495 116.591 91.1881 113.309 96.7736 109.087C102.045 105.095 106.648 100.246 110.35 94.7701C116.877 85.1349 120.685 73.5351 120.685 61.0155C120.685 47.3464 116.145 34.7433 108.468 24.6482C105.12 20.2381 101.188 16.2878 96.7527 12.9437C86.6068 5.27316 74.0132 0.737698 60.3319 0.737698C49.2445 0.737698 38.8685 3.72651 29.9568 8.93079L45.3744 24.6482L47.6128 26.9263ZM1198.9 71.5703V59.6988C1198.9 46.5731 1194.61 34.4297 1187.33 24.6273C1183.83 19.9246 1179.67 15.7654 1174.97 12.2749C1165.2 5.04326 1153.08 0.758599 1139.99 0.716797H1053.9V24.6273H1139.86C1159.23 24.6273 1174.97 40.3238 1174.97 59.6988V71.5703H1198.9ZM1210.99 118.66H1163.96L1159.04 115.483L1126.91 94.7492L1098.67 76.5238V118.66H1074.74V40.3238H1089.76L1098.67 46.0715L1105.93 50.7741L1161.93 86.9742L1173.98 94.7701L1174.94 95.3972L1182.6 100.351L1198.86 110.864L1210.95 118.681L1210.99 118.66ZM995.497 94.7492H935.96V118.66H1019.43V94.7492H995.497ZM1019.43 69.2922V0.737698H944.223V24.6482H995.497V45.4235H905.438V69.334H1019.43V69.2922ZM845.358 118.66V94.7492H765.883V118.66H845.358ZM765.883 45.4026V69.3131H880.334V45.4026H789.795V24.6273H839.939V0.737698H765.863V45.4026H765.883ZM626.518 59.6151H602.587V118.66H626.518V83.5255H743.228V59.6151C743.228 46.5104 738.919 34.4088 731.659 24.6273C728.167 19.9246 724.004 15.7654 719.296 12.2749C709.527 5.04326 697.415 0.758599 684.319 0.716797H550.454V24.6273H684.193C703.545 24.6273 719.233 40.282 719.296 59.5942H649.112H626.498L626.518 59.6151ZM574.408 94.7492V118.66H550.476L522.883 94.7492L449.77 31.399V118.66H425.837V6.02559H455.628L477.132 24.6482L550.476 88.1865V48.893H574.408V94.7492ZM384.668 118.66V94.7492H326.972V69.2922H410.734V45.3818H326.972V24.6064H378.309V0.737698H303.04V118.66H384.668ZM277.769 92.2412V68.3307H277.706C277.748 67.3693 277.769 66.4078 277.769 65.4465V65.1329C277.728 49.7709 272.33 35.6837 263.335 24.6064C260.51 21.1368 257.331 17.939 253.838 15.1175C242.708 6.1719 228.588 0.758599 213.211 0.737698H137.043V24.6482H213.087C235.574 24.6482 253.796 42.8528 253.796 65.321V68.3516H137.023V118.66H160.955V92.2412H277.728H277.769Z" fill="white"/>
<path fill-rule="evenodd" clip-rule="evenodd" d="M47.6128 26.9263C51.5666 25.4424 55.8551 24.6482 60.3319 24.6482C80.4355 24.6482 96.7318 40.9299 96.7318 61.0155C96.7318 76.2939 87.2971 89.3778 73.9296 94.7701C69.7247 96.4631 65.1434 97.3829 60.3319 97.3829C55.5203 97.3829 50.939 96.4423 46.7341 94.7701C33.3666 89.3987 23.9319 76.3148 23.9319 61.0155C23.9319 56.2501 24.8524 51.6938 26.5259 47.5136L23.9319 44.8801L8.86987 29.5389C3.24253 38.6935 0 49.4782 0 61.0155C0 73.5142 3.80736 85.1349 10.3342 94.7701C14.0579 100.246 18.6393 105.095 23.9319 109.087C29.4965 113.309 35.8351 116.591 42.6967 118.681C48.2822 120.374 54.2024 121.293 60.3528 121.293C66.5031 121.293 72.4233 120.374 78.0088 118.681C84.8495 116.591 91.1881 113.309 96.7736 109.087C102.045 105.095 106.648 100.246 110.35 94.7701C116.877 85.1349 120.685 73.5351 120.685 61.0155C120.685 47.3464 116.145 34.7433 108.468 24.6482C105.12 20.2381 101.188 16.2878 96.7527 12.9437C86.6068 5.27316 74.0132 0.737698 60.3319 0.737698C49.2445 0.737698 38.8685 3.72651 29.9568 8.93079L45.3744 24.6482L47.6128 26.9263ZM1198.9 71.5703V59.6988C1198.9 46.5731 1194.61 34.4297 1187.33 24.6273C1183.83 19.9246 1179.67 15.7654 1174.97 12.2749C1165.2 5.04326 1153.08 0.758599 1139.99 0.716797H1053.9V24.6273H1139.86C1159.23 24.6273 1174.97 40.3238 1174.97 59.6988V71.5703H1198.9ZM1210.99 118.66H1163.96L1159.04 115.483L1126.91 94.7492L1098.67 76.5238V118.66H1074.74V40.3238H1089.76L1098.67 46.0715L1105.93 50.7741L1161.93 86.9742L1173.98 94.7701L1174.94 95.3972L1182.6 100.351L1198.86 110.864L1210.95 118.681L1210.99 118.66ZM995.497 94.7492H935.96V118.66H1019.43V94.7492H995.497ZM1019.43 69.2922V0.737698H944.223V24.6482H995.497V45.4235H905.438V69.334H1019.43V69.2922ZM845.358 118.66V94.7492H765.883V118.66H845.358ZM765.883 45.4026V69.3131H880.334V45.4026H789.795V24.6273H839.939V0.737698H765.863V45.4026H765.883ZM626.518 59.6151H602.587V118.66H626.518V83.5255H743.228V59.6151C743.228 46.5104 738.919 34.4088 731.659 24.6273C728.167 19.9246 724.004 15.7654 719.296 12.2749C709.527 5.04326 697.415 0.758599 684.319 0.716797H550.454V24.6273H684.193C703.545 24.6273 719.233 40.282 719.296 59.5942H649.112H626.498L626.518 59.6151ZM574.408 94.7492V118.66H550.476L522.883 94.7492L449.77 31.399V118.66H425.837V6.02559H455.628L477.132 24.6482L550.476 88.1865V48.893H574.408V94.7492ZM384.668 118.66V94.7492H326.972V69.2922H410.734V45.3818H326.972V24.6064H378.309V0.737698H303.04V118.66H384.668ZM277.769 92.2412V68.3307H277.706C277.748 67.3693 277.769 66.4078 277.769 65.4465V65.1329C277.728 49.7709 272.33 35.6837 263.335 24.6064C260.51 21.1368 257.331 17.939 253.838 15.1175C242.708 6.1719 228.588 0.758599 213.211 0.737698H137.043V24.6482H213.087C235.574 24.6482 253.796 42.8528 253.796 65.321V68.3516H137.023V118.66H160.955V92.2412H277.728H277.769Z" fill="white"/>
</g>
<rect width="254" height="80" transform="translate(766 135)" fill="url(#paint0_linear_3465_12163)"/>
<path d="M828.36 193V158.44H842.184C844.648 158.44 846.64 158.936 848.16 159.928C849.68 160.904 850.792 162.136 851.496 163.624C852.2 165.112 852.552 166.616 852.552 168.136C852.552 170.072 852.112 171.68 851.232 172.96C850.368 174.24 849.176 175.096 847.656 175.528V174.328C849.816 174.776 851.432 175.776 852.504 177.328C853.592 178.88 854.136 180.616 854.136 182.536C854.136 184.6 853.752 186.416 852.984 187.984C852.232 189.552 851.08 190.784 849.528 191.68C847.976 192.56 846.024 193 843.672 193H828.36ZM834.984 186.856H843C843.88 186.856 844.664 186.672 845.352 186.304C846.04 185.92 846.576 185.392 846.96 184.72C847.36 184.032 847.56 183.224 847.56 182.296C847.56 181.48 847.392 180.752 847.056 180.112C846.72 179.472 846.208 178.968 845.52 178.6C844.848 178.216 844.008 178.024 843 178.024H834.984V186.856ZM834.984 171.928H842.088C842.824 171.928 843.48 171.8 844.056 171.544C844.632 171.288 845.088 170.896 845.424 170.368C845.76 169.824 845.928 169.128 845.928 168.28C845.928 167.224 845.6 166.336 844.944 165.616C844.288 164.896 843.336 164.536 842.088 164.536H834.984V171.928ZM864.202 193V158.44H886.762V164.536H870.73V171.928H883.882V178.024H870.73V186.904H886.762V193H864.202ZM905.811 193V164.536H894.915V158.44H923.235V164.536H912.339V193H905.811ZM929.034 193L939.594 158.44H949.338L959.898 193H953.178L943.77 162.52H945.018L935.754 193H929.034ZM935.37 185.8V179.704H953.61V185.8H935.37Z" fill="white"/>
<defs>
<linearGradient id="paint0_linear_3465_12163" x1="-9.4619e-07" y1="39.9999" x2="254" y2="39.9999" gradientUnits="userSpaceOnUse">
<stop stop-color="#3C9AAA"/>
<stop offset="0.377812" stop-color="#3D9AAC"/>
<stop offset="0.987586" stop-color="#3574F4"/>
</linearGradient>
</defs>
</svg>
